<svg xmlns="http://www.w3.org/2000/svg" width="1000" height="1200" viewBox="0 0 1000 1200">
<rect width="100%" height="100%" fill="white"/>
<text x="500" y="35" text-anchor="middle" font-size="24" font-family="Helvetica, Arial, sans-serif">Shakespeare: Step-10 Ablation</text>
<rect x="80" y="70" width="840" height="260" fill="none" stroke="#cccccc" stroke-width="1"/>
<polyline fill="none" stroke="#1f77b4" stroke-width="2" points="80.00,70.00 80.84,72.16 81.68,74.27 82.52,76.35 83.36,78.39 84.20,80.40 85.05,82.37 85.89,84.30 86.73,86.21 87.57,88.08 88.41,89.92 89.25,91.74 90.09,93.52 90.93,95.27 91.77,97.00 92.61,98.71 93.45,100.38 94.29,102.03 95.14,103.66 95.98,105.27 96.82,106.85 97.66,108.41 98.50,109.94 99.34,111.46 100.18,112.95 101.02,114.43 101.86,115.88 102.70,117.32 103.54,118.74 104.38,120.14 105.23,121.52 106.07,122.88 106.91,124.23 107.75,125.56 108.59,126.88 109.43,128.17 110.27,129.46 111.11,130.72 111.95,131.98 112.79,133.22 113.63,134.44 114.47,135.65 115.32,136.85 116.16,138.03 117.00,139.20 117.84,140.36 118.68,141.50 119.52,142.63 120.36,143.75 121.20,144.86 122.04,145.96 122.88,147.04 123.72,148.12 124.56,149.18 125.41,150.23 126.25,151.27 127.09,152.31 127.93,153.33 128.77,154.34 129.61,155.34 130.45,156.33 131.29,157.31 132.13,158.28 132.97,159.25 133.81,160.20 134.65,161.15 135.50,162.08 136.34,163.01 137.18,163.93 138.02,164.84 138.86,165.74 139.70,166.64 140.54,167.53 141.38,168.40 142.22,169.28 143.06,170.14 143.90,171.00 144.74,171.84 145.59,172.69 146.43,173.52 147.27,174.35 148.11,175.17 148.95,175.98 149.79,176.79 150.63,177.59 151.47,178.38 152.31,179.17 153.15,179.95 153.99,180.73 154.83,181.50 155.68,182.26 156.52,183.01 157.36,183.77 158.20,184.51 159.04,185.25 159.88,185.98 160.72,186.71 161.56,187.43 162.40,188.15 163.24,188.86 164.08,189.57 164.92,190.27 165.77,190.96 166.61,191.65 167.45,192.34 168.29,193.02 169.13,193.69 169.97,194.36 170.81,195.03 171.65,195.69 172.49,196.35 173.33,197.00 174.17,197.64 175.02,198.29 175.86,198.93 176.70,199.56 177.54,200.19 178.38,200.81 179.22,201.43 180.06,202.05 180.90,202.66 181.74,203.27 182.58,203.87 183.42,204.47 184.26,205.07 185.11,205.66 185.95,206.25 186.79,206.83 187.63,207.41 188.47,207.99 189.31,208.56 190.15,209.13 190.99,209.70 191.83,210.26 192.67,210.82 193.51,211.37 194.35,211.92 195.20,212.47 196.04,213.02 196.88,213.56 197.72,214.09 198.56,214.63 199.40,215.16 200.24,215.69 201.08,216.21 201.92,216.73 202.76,217.25 203.60,217.77 204.44,218.28 205.29,218.79 206.13,219.29 206.97,219.80 207.81,220.30 208.65,220.79 209.49,221.29 210.33,221.78 211.17,222.27 212.01,222.75 212.85,223.23 213.69,223.71 214.53,224.19 215.38,224.66 216.22,225.14 217.06,225.60 217.90,226.07 218.74,226.53 219.58,227.00 220.42,227.45 221.26,227.91 222.10,228.36 222.94,228.81 223.78,229.26 224.62,229.71 225.47,230.15 226.31,230.59 227.15,231.03 227.99,231.47 228.83,231.90 229.67,232.33 230.51,232.76 231.35,233.19 232.19,233.61 233.03,234.03 233.87,234.45 234.71,234.87 235.56,235.28 236.40,235.70 237.24,236.11 238.08,236.52 238.92,236.92 239.76,237.33 240.60,237.73 241.44,238.13 242.28,238.53 243.12,238.93 243.96,239.32 244.80,239.71 245.65,240.10 246.49,240.49 247.33,240.88 248.17,241.26 249.01,241.64 249.85,242.02 250.69,242.40 251.53,242.78 252.37,243.15 253.21,243.52 254.05,243.90 254.89,244.26 255.74,244.63 256.58,245.00 257.42,245.36 258.26,245.72 259.10,246.08 259.94,246.44 260.78,246.80 261.62,247.15 262.46,247.50 263.30,247.86 264.14,248.21 264.98,248.55 265.83,248.90 266.67,249.24 267.51,249.59 268.35,249.93 269.19,250.27 270.03,250.61 270.87,250.94 271.71,251.28 272.55,251.61 273.39,251.94 274.23,252.27 275.08,252.60 275.92,252.93 276.76,253.25 277.60,253.58 278.44,253.90 279.28,254.22 280.12,254.54 280.96,254.86 281.80,255.17 282.64,255.49 283.48,255.80 284.32,256.12 285.17,256.43 286.01,256.74 286.85,257.04 287.69,257.35 288.53,257.66 289.37,257.96 290.21,258.26 291.05,258.56 291.89,258.86 292.73,259.16 293.57,259.46 294.41,259.75 295.26,260.05 296.10,260.34 296.94,260.63 297.78,260.92 298.62,261.21 299.46,261.50 300.30,261.79 301.14,262.07 301.98,262.36 302.82,262.64 303.66,262.92 304.50,263.20 305.35,263.48 306.19,263.76 307.03,264.03 307.87,264.31 308.71,264.58 309.55,264.86 310.39,265.13 311.23,265.40 312.07,265.67 312.91,265.94 313.75,266.21 314.59,266.47 315.44,266.74 316.28,267.00 317.12,267.26 317.96,267.53 318.80,267.79 319.64,268.05 320.48,268.30 321.32,268.56 322.16,268.82 323.00,269.07 323.84,269.33 324.68,269.58 325.53,269.83 326.37,270.08 327.21,270.33 328.05,270.58 328.89,270.83 329.73,271.08 330.57,271.32 331.41,271.57 332.25,271.81 333.09,272.05 333.93,272.29 334.77,272.53 335.62,272.77 336.46,273.01 337.30,273.25 338.14,273.49 338.98,273.72 339.82,273.96 340.66,274.19 341.50,274.42 342.34,274.66 343.18,274.89 344.02,275.12 344.86,275.35 345.71,275.57 346.55,275.80 347.39,276.03 348.23,276.25 349.07,276.48 349.91,276.70 350.75,276.92 351.59,277.15 352.43,277.37 353.27,277.59 354.11,277.81 354.95,278.03 355.80,278.24 356.64,278.46 357.48,278.68 358.32,278.89 359.16,279.10 360.00,279.32 360.84,279.53 361.68,279.74 362.52,279.95 363.36,280.16 364.20,280.37 365.05,280.58 365.89,280.79 366.73,280.99 367.57,281.20 368.41,281.40 369.25,281.61 370.09,281.81 370.93,282.01 371.77,282.22 372.61,282.42 373.45,282.62 374.29,282.82 375.14,283.01 375.98,283.21 376.82,283.41 377.66,283.61 378.50,283.80 379.34,284.00 380.18,284.19 381.02,284.38 381.86,284.58 382.70,284.77 383.54,284.96 384.38,285.15 385.23,285.34 386.07,285.53 386.91,285.72 387.75,285.90 388.59,286.09 389.43,286.28 390.27,286.46 391.11,286.65 391.95,286.83 392.79,287.01 393.63,287.20 394.47,287.38 395.32,287.56 396.16,287.74 397.00,287.92 397.84,288.10 398.68,288.28 399.52,288.46 400.36,288.63 401.20,288.81 402.04,288.99 402.88,289.16 403.72,289.33 404.56,289.51 405.41,289.68 406.25,289.85 407.09,290.03 407.93,290.20 408.77,290.37 409.61,290.54 410.45,290.71 411.29,290.88 412.13,291.04 412.97,291.21 413.81,291.38 414.65,291.54 415.50,291.71 416.34,291.87 417.18,292.04 418.02,292.20 418.86,292.37 419.70,292.53 420.54,292.69 421.38,292.85 422.22,293.01 423.06,293.17 423.90,293.33 424.74,293.49 425.59,293.65 426.43,293.81 427.27,293.96 428.11,294.12 428.95,294.28 429.79,294.43 430.63,294.59 431.47,294.74 432.31,294.90 433.15,295.05 433.99,295.20 434.83,295.35 435.68,295.50 436.52,295.66 437.36,295.81 438.20,295.96 439.04,296.10 439.88,296.25 440.72,296.40 441.56,296.55 442.40,296.70 443.24,296.84 444.08,296.99 444.92,297.13 445.77,297.28 446.61,297.42 447.45,297.57 448.29,297.71 449.13,297.85 449.97,298.00 450.81,298.14 451.65,298.28 452.49,298.42 453.33,298.56 454.17,298.70 455.02,298.84 455.86,298.98 456.70,299.12 457.54,299.25 458.38,299.39 459.22,299.53 460.06,299.66 460.90,299.80 461.74,299.94 462.58,300.07 463.42,300.20 464.26,300.34 465.11,300.47 465.95,300.60 466.79,300.74 467.63,300.87 468.47,301.00 469.31,301.13 470.15,301.26 470.99,301.39 471.83,301.52 472.67,301.65 473.51,301.78 474.35,301.91 475.20,302.03 476.04,302.16 476.88,302.29 477.72,302.42 478.56,302.54 479.40,302.67 480.24,302.79 481.08,302.92 481.92,303.04 482.76,303.16 483.60,303.29 484.44,303.41 485.29,303.53 486.13,303.65 486.97,303.77 487.81,303.90 488.65,304.02 489.49,304.14 490.33,304.26 491.17,304.38 492.01,304.49 492.85,304.61 493.69,304.73 494.53,304.85 495.38,304.96 496.22,305.08 497.06,305.20 497.90,305.31 498.74,305.43 499.58,305.54 500.42,305.66 501.26,305.77 502.10,305.89 502.94,306.00 503.78,306.11 504.62,306.23 505.47,306.34 506.31,306.45 507.15,306.56 507.99,306.67 508.83,306.78 509.67,306.89 510.51,307.00 511.35,307.11 512.19,307.22 513.03,307.33 513.87,307.44 514.71,307.54 515.56,307.65 516.40,307.76 517.24,307.87 518.08,307.97 518.92,308.08 519.76,308.18 520.60,308.29 521.44,308.39 522.28,308.50 523.12,308.60 523.96,308.70 524.80,308.81 525.65,308.91 526.49,309.01 527.33,309.11 528.17,309.22 529.01,309.32 529.85,309.42 530.69,309.52 531.53,309.62 532.37,309.72 533.21,309.82 534.05,309.92 534.89,310.02 535.74,310.12 536.58,310.21 537.42,310.31 538.26,310.41 539.10,310.51 539.94,310.60 540.78,310.70 541.62,310.79 542.46,310.89 543.30,310.99 544.14,311.08 544.98,311.18 545.83,311.27 546.67,311.36 547.51,311.46 548.35,311.55 549.19,311.64 550.03,311.74 550.87,311.83 551.71,311.92 552.55,312.01 553.39,312.10 554.23,312.19 555.08,312.28 555.92,312.37 556.76,312.46 557.60,312.55 558.44,312.64 559.28,312.73 560.12,312.82 560.96,312.91 561.80,313.00 562.64,313.08 563.48,313.17 564.32,313.26 565.17,313.35 566.01,313.43 566.85,313.52 567.69,313.60 568.53,313.69 569.37,313.77 570.21,313.86 571.05,313.94 571.89,314.03 572.73,314.11 573.57,314.19 574.41,314.28 575.26,314.36 576.10,314.44 576.94,314.53 577.78,314.61 578.62,314.69 579.46,314.77 580.30,314.85 581.14,314.93 581.98,315.01 582.82,315.09 583.66,315.17 584.50,315.25 585.35,315.33 586.19,315.41 587.03,315.49 587.87,315.57 588.71,315.65 589.55,315.72 590.39,315.80 591.23,315.88 592.07,315.96 592.91,316.03 593.75,316.11 594.59,316.18 595.44,316.26 596.28,316.34 597.12,316.41 597.96,316.49 598.80,316.56 599.64,316.64 600.48,316.71 601.32,316.78 602.16,316.86 603.00,316.93 603.84,317.00 604.68,317.08 605.53,317.15 606.37,317.22 607.21,317.29 608.05,317.36 608.89,317.44 609.73,317.51 610.57,317.58 611.41,317.65 612.25,317.72 613.09,317.79 613.93,317.86 614.77,317.93 615.62,318.00 616.46,318.07 617.30,318.13 618.14,318.20 618.98,318.27 619.82,318.34 620.66,318.41 621.50,318.47 622.34,318.54 623.18,318.61 624.02,318.67 624.86,318.74 625.71,318.81 626.55,318.87 627.39,318.94 628.23,319.00 629.07,319.07 629.91,319.13 630.75,319.20 631.59,319.26 632.43,319.33 633.27,319.39 634.11,319.45 634.95,319.52 635.80,319.58 636.64,319.64 637.48,319.70 638.32,319.77 639.16,319.83 640.00,319.89 640.84,319.95 641.68,320.01 642.52,320.07 643.36,320.14 644.20,320.20 645.05,320.26 645.89,320.32 646.73,320.38 647.57,320.44 648.41,320.50 649.25,320.55 650.09,320.61 650.93,320.67 651.77,320.73 652.61,320.79 653.45,320.85 654.29,320.90 655.14,320.96 655.98,321.02 656.82,321.08 657.66,321.13 658.50,321.19 659.34,321.25 660.18,321.30 661.02,321.36 661.86,321.41 662.70,321.47 663.54,321.52 664.38,321.58 665.23,321.63 666.07,321.69 666.91,321.74 667.75,321.80 668.59,321.85 669.43,321.91 670.27,321.96 671.11,322.01 671.95,322.06 672.79,322.12 673.63,322.17 674.47,322.22 675.32,322.27 676.16,322.33 677.00,322.38 677.84,322.43 678.68,322.48 679.52,322.53 680.36,322.58 681.20,322.63 682.04,322.68 682.88,322.73 683.72,322.78 684.56,322.83 685.41,322.88 686.25,322.93 687.09,322.98 687.93,323.03 688.77,323.08 689.61,323.13 690.45,323.18 691.29,323.22 692.13,323.27 692.97,323.32 693.81,323.37 694.65,323.41 695.50,323.46 696.34,323.51 697.18,323.55 698.02,323.60 698.86,323.65 699.70,323.69 700.54,323.74 701.38,323.78 702.22,323.83 703.06,323.87 703.90,323.92 704.74,323.96 705.59,324.01 706.43,324.05 707.27,324.10 708.11,324.14 708.95,324.19 709.79,324.23 710.63,324.27 711.47,324.32 712.31,324.36 713.15,324.40 713.99,324.44 714.83,324.49 715.68,324.53 716.52,324.57 717.36,324.61 718.20,324.65 719.04,324.70 719.88,324.74 720.72,324.78 721.56,324.82 722.40,324.86 723.24,324.90 724.08,324.94 724.92,324.98 725.77,325.02 726.61,325.06 727.45,325.10 728.29,325.14 729.13,325.18 729.97,325.22 730.81,325.26 731.65,325.30 732.49,325.33 733.33,325.37 734.17,325.41 735.02,325.45 735.86,325.49 736.70,325.52 737.54,325.56 738.38,325.60 739.22,325.64 740.06,325.67 740.90,325.71 741.74,325.75 742.58,325.78 743.42,325.82 744.26,325.85 745.11,325.89 745.95,325.92 746.79,325.96 747.63,326.00 748.47,326.03 749.31,326.07 750.15,326.10 750.99,326.13 751.83,326.17 752.67,326.20 753.51,326.24 754.35,326.27 755.20,326.30 756.04,326.34 756.88,326.37 757.72,326.40 758.56,326.44 759.40,326.47 760.24,326.50 761.08,326.54 761.92,326.57 762.76,326.60 763.60,326.63 764.44,326.66 765.29,326.69 766.13,326.73 766.97,326.76 767.81,326.79 768.65,326.82 769.49,326.85 770.33,326.88 771.17,326.91 772.01,326.94 772.85,326.97 773.69,327.00 774.53,327.03 775.38,327.06 776.22,327.09 777.06,327.12 777.90,327.15 778.74,327.18 779.58,327.21 780.42,327.24 781.26,327.26 782.10,327.29 782.94,327.32 783.78,327.35 784.62,327.38 785.47,327.40 786.31,327.43 787.15,327.46 787.99,327.49 788.83,327.51 789.67,327.54 790.51,327.57 791.35,327.59 792.19,327.62 793.03,327.65 793.87,327.67 794.71,327.70 795.56,327.72 796.40,327.75 797.24,327.78 798.08,327.80 798.92,327.83 799.76,327.85 800.60,327.88 801.44,327.90 802.28,327.92 803.12,327.95 803.96,327.97 804.80,328.00 805.65,328.02 806.49,328.05 807.33,328.07 808.17,328.09 809.01,328.12 809.85,328.14 810.69,328.16 811.53,328.19 812.37,328.21 813.21,328.23 814.05,328.25 814.89,328.28 815.74,328.30 816.58,328.32 817.42,328.34 818.26,328.36 819.10,328.38 819.94,328.41 820.78,328.43 821.62,328.45 822.46,328.47 823.30,328.49 824.14,328.51 824.98,328.53 825.83,328.55 826.67,328.57 827.51,328.59 828.35,328.61 829.19,328.63 830.03,328.65 830.87,328.67 831.71,328.69 832.55,328.71 833.39,328.73 834.23,328.75 835.08,328.77 835.92,328.79 836.76,328.80 837.60,328.82 838.44,328.84 839.28,328.86 840.12,328.88 840.96,328.90 841.80,328.91 842.64,328.93 843.48,328.95 844.32,328.97 845.17,328.98 846.01,329.00 846.85,329.02 847.69,329.03 848.53,329.05 849.37,329.07 850.21,329.08 851.05,329.10 851.89,329.12 852.73,329.13 853.57,329.15 854.41,329.16 855.26,329.18 856.10,329.19 856.94,329.21 857.78,329.23 858.62,329.24 859.46,329.26 860.30,329.27 861.14,329.28 861.98,329.30 862.82,329.31 863.66,329.33 864.50,329.34 865.35,329.36 866.19,329.37 867.03,329.38 867.87,329.40 868.71,329.41 869.55,329.42 870.39,329.44 871.23,329.45 872.07,329.46 872.91,329.48 873.75,329.49 874.59,329.50 875.44,329.51 876.28,329.53 877.12,329.54 877.96,329.55 878.80,329.56 879.64,329.57 880.48,329.59 881.32,329.60 882.16,329.61 883.00,329.62 883.84,329.63 884.68,329.64 885.53,329.65 886.37,329.66 887.21,329.68 888.05,329.69 888.89,329.70 889.73,329.71 890.57,329.72 891.41,329.73 892.25,329.74 893.09,329.75 893.93,329.76 894.77,329.77 895.62,329.78 896.46,329.79 897.30,329.79 898.14,329.80 898.98,329.81 899.82,329.82 900.66,329.83 901.50,329.84 902.34,329.85 903.18,329.86 904.02,329.86 904.86,329.87 905.71,329.88 906.55,329.89 907.39,329.90 908.23,329.90 909.07,329.91 909.91,329.92 910.75,329.93 911.59,329.93 912.43,329.94 913.27,329.95 914.11,329.95 914.95,329.96 915.80,329.97 916.64,329.97 917.48,329.98 918.32,329.99 919.16,329.99 920.00,330.00"/>
<polyline fill="none" stroke="#ff7f0e" stroke-width="2" points="80.00,96.29 80.84,94.31 81.68,92.44 82.52,90.67 83.36,89.00 84.20,87.42 85.05,85.94 85.89,84.55 86.73,83.24 87.57,82.01 88.41,80.86 89.25,79.78 90.09,78.78 90.93,77.84 91.77,76.96 92.61,76.15 93.45,75.41 94.29,74.71 95.14,74.08 95.98,73.50 96.82,72.97 97.66,72.49 98.50,72.06 99.34,71.67 100.18,71.33 101.02,71.03 101.86,70.77 102.70,70.55 103.54,70.37 104.38,70.23 105.23,70.12 106.07,70.05 106.91,70.01 107.75,70.00 108.59,70.02 109.43,70.07 110.27,70.15 111.11,70.26 111.95,70.40 112.79,70.56 113.63,70.74 114.47,70.95 115.32,71.19 116.16,71.44 117.00,71.72 117.84,72.01 118.68,72.33 119.52,72.67 120.36,73.02 121.20,73.40 122.04,73.79 122.88,74.20 123.72,74.62 124.56,75.06 125.41,75.52 126.25,75.99 127.09,76.47 127.93,76.97 128.77,77.48 129.61,78.01 130.45,78.54 131.29,79.09 132.13,79.65 132.97,80.22 133.81,80.80 134.65,81.39 135.50,82.00 136.34,82.61 137.18,83.23 138.02,83.86 138.86,84.49 139.70,85.14 140.54,85.79 141.38,86.45 142.22,87.12 143.06,87.80 143.90,88.48 144.74,89.17 145.59,89.86 146.43,90.56 147.27,91.27 148.11,91.98 148.95,92.70 149.79,93.42 150.63,94.15 151.47,94.88 152.31,95.62 153.15,96.36 153.99,97.10 154.83,97.85 155.68,98.60 156.52,99.36 157.36,100.11 158.20,100.88 159.04,101.64 159.88,102.41 160.72,103.18 161.56,103.95 162.40,104.72 163.24,105.50 164.08,106.28 164.92,107.06 165.77,107.84 166.61,108.62 167.45,109.41 168.29,110.19 169.13,110.98 169.97,111.77 170.81,112.56 171.65,113.35 172.49,114.14 173.33,114.93 174.17,115.73 175.02,116.52 175.86,117.31 176.70,118.11 177.54,118.90 178.38,119.69 179.22,120.49 180.06,121.28 180.90,122.07 181.74,122.87 182.58,123.66 183.42,124.45 184.26,125.24 185.11,126.03 185.95,126.82 186.79,127.61 187.63,128.40 188.47,129.19 189.31,129.98 190.15,130.77 190.99,131.55 191.83,132.33 192.67,133.12 193.51,133.90 194.35,134.68 195.20,135.46 196.04,136.24 196.88,137.01 197.72,137.79 198.56,138.56 199.40,139.33 200.24,140.10 201.08,140.87 201.92,141.64 202.76,142.41 203.60,143.17 204.44,143.93 205.29,144.69 206.13,145.45 206.97,146.20 207.81,146.96 208.65,147.71 209.49,148.46 210.33,149.21 211.17,149.95 212.01,150.70 212.85,151.44 213.69,152.18 214.53,152.92 215.38,153.65 216.22,154.38 217.06,155.11 217.90,155.84 218.74,156.57 219.58,157.29 220.42,158.01 221.26,158.73 222.10,159.45 222.94,160.16 223.78,160.88 224.62,161.58 225.47,162.29 226.31,163.00 227.15,163.70 227.99,164.40 228.83,165.09 229.67,165.79 230.51,166.48 231.35,167.17 232.19,167.86 233.03,168.54 233.87,169.22 234.71,169.90 235.56,170.58 236.40,171.25 237.24,171.92 238.08,172.59 238.92,173.26 239.76,173.92 240.60,174.58 241.44,175.24 242.28,175.90 243.12,176.55 243.96,177.20 244.80,177.85 245.65,178.50 246.49,179.14 247.33,179.78 248.17,180.41 249.01,181.05 249.85,181.68 250.69,182.31 251.53,182.94 252.37,183.56 253.21,184.18 254.05,184.80 254.89,185.42 255.74,186.03 256.58,186.64 257.42,187.25 258.26,187.86 259.10,188.46 259.94,189.06 260.78,189.66 261.62,190.25 262.46,190.85 263.30,191.44 264.14,192.02 264.98,192.61 265.83,193.19 266.67,193.77 267.51,194.35 268.35,194.92 269.19,195.49 270.03,196.06 270.87,196.63 271.71,197.20 272.55,197.76 273.39,198.32 274.23,198.87 275.08,199.43 275.92,199.98 276.76,200.53 277.60,201.08 278.44,201.62 279.28,202.17 280.12,202.70 280.96,203.24 281.80,203.78 282.64,204.31 283.48,204.84 284.32,205.37 285.17,205.89 286.01,206.42 286.85,206.94 287.69,207.46 288.53,207.97 289.37,208.49 290.21,209.00 291.05,209.51 291.89,210.01 292.73,210.52 293.57,211.02 294.41,211.52 295.26,212.02 296.10,212.51 296.94,213.01 297.78,213.50 298.62,213.99 299.46,214.48 300.30,214.96 301.14,215.44 301.98,215.92 302.82,216.40 303.66,216.88 304.50,217.35 305.35,217.83 306.19,218.30 307.03,218.76 307.87,219.23 308.71,219.70 309.55,220.16 310.39,220.62 311.23,221.08 312.07,221.53 312.91,221.99 313.75,222.44 314.59,222.89 315.44,223.34 316.28,223.79 317.12,224.23 317.96,224.67 318.80,225.11 319.64,225.55 320.48,225.99 321.32,226.43 322.16,226.86 323.00,227.29 323.84,227.72 324.68,228.15 325.53,228.58 326.37,229.00 327.21,229.43 328.05,229.85 328.89,230.27 329.73,230.69 330.57,231.11 331.41,231.52 332.25,231.93 333.09,232.35 333.93,232.76 334.77,233.17 335.62,233.57 336.46,233.98 337.30,234.38 338.14,234.79 338.98,235.19 339.82,235.59 340.66,235.99 341.50,236.38 342.34,236.78 343.18,237.17 344.02,237.56 344.86,237.96 345.71,238.35 346.55,238.73 347.39,239.12 348.23,239.51 349.07,239.89 349.91,240.27 350.75,240.66 351.59,241.04 352.43,241.42 353.27,241.79 354.11,242.17 354.95,242.55 355.80,242.92 356.64,243.29 357.48,243.67 358.32,244.04 359.16,244.41 360.00,244.77 360.84,245.14 361.68,245.51 362.52,245.87 363.36,246.24 364.20,246.60 365.05,246.96 365.89,247.32 366.73,247.68 367.57,248.04 368.41,248.40 369.25,248.75 370.09,249.11 370.93,249.46 371.77,249.82 372.61,250.17 373.45,250.52 374.29,250.87 375.14,251.22 375.98,251.57 376.82,251.92 377.66,252.26 378.50,252.61 379.34,252.95 380.18,253.30 381.02,253.64 381.86,253.99 382.70,254.33 383.54,254.67 384.38,255.01 385.23,255.35 386.07,255.69 386.91,256.02 387.75,256.36 388.59,256.70 389.43,257.03 390.27,257.37 391.11,257.70 391.95,258.03 392.79,258.37 393.63,258.70 394.47,259.03 395.32,259.36 396.16,259.69 397.00,260.02 397.84,260.35 398.68,260.68 399.52,261.00 400.36,261.33 401.20,261.66 402.04,261.98 402.88,262.31 403.72,262.63 404.56,262.95 405.41,263.28 406.25,263.60 407.09,263.92 407.93,264.24 408.77,264.56 409.61,264.88 410.45,265.20 411.29,265.52 412.13,265.84 412.97,266.16 413.81,266.48 414.65,266.79 415.50,267.11 416.34,267.43 417.18,267.74 418.02,268.06 418.86,268.37 419.70,268.69 420.54,269.00 421.38,269.31 422.22,269.63 423.06,269.94 423.90,270.25 424.74,270.56 425.59,270.87 426.43,271.19 427.27,271.50 428.11,271.81 428.95,272.12 429.79,272.43 430.63,272.73 431.47,273.04 432.31,273.35 433.15,273.66 433.99,273.97 434.83,274.27 435.68,274.58 436.52,274.89 437.36,275.19 438.20,275.50 439.04,275.80 439.88,276.11 440.72,276.41 441.56,276.72 442.40,277.02 443.24,277.32 444.08,277.63 444.92,277.93 445.77,278.23 446.61,278.54 447.45,278.84 448.29,279.14 449.13,279.44 449.97,279.74 450.81,280.04 451.65,280.34 452.49,280.64 453.33,280.94 454.17,281.24 455.02,281.54 455.86,281.84 456.70,282.14 457.54,282.44 458.38,282.74 459.22,283.03 460.06,283.33 460.90,283.63 461.74,283.92 462.58,284.22 463.42,284.52 464.26,284.81 465.11,285.11 465.95,285.40 466.79,285.70 467.63,285.99 468.47,286.29 469.31,286.58 470.15,286.88 470.99,287.17 471.83,287.46 472.67,287.76 473.51,288.05 474.35,288.34 475.20,288.63 476.04,288.92 476.88,289.21 477.72,289.50 478.56,289.80 479.40,290.09 480.24,290.38 481.08,290.66 481.92,290.95 482.76,291.24 483.60,291.53 484.44,291.82 485.29,292.11 486.13,292.39 486.97,292.68 487.81,292.97 488.65,293.25 489.49,293.54 490.33,293.83 491.17,294.11 492.01,294.40 492.85,294.68 493.69,294.96 494.53,295.25 495.38,295.53 496.22,295.81 497.06,296.09 497.90,296.38 498.74,296.66 499.58,296.94 500.42,297.22 501.26,297.50 502.10,297.78 502.94,298.06 503.78,298.34 504.62,298.61 505.47,298.89 506.31,299.17 507.15,299.45 507.99,299.72 508.83,300.00 509.67,300.27 510.51,300.55 511.35,300.82 512.19,301.09 513.03,301.37 513.87,301.64 514.71,301.91 515.56,302.18 516.40,302.45 517.24,302.72 518.08,302.99 518.92,303.26 519.76,303.53 520.60,303.80 521.44,304.06 522.28,304.33 523.12,304.59 523.96,304.86 524.80,305.12 525.65,305.39 526.49,305.65 527.33,305.91 528.17,306.17 529.01,306.43 529.85,306.69 530.69,306.95 531.53,307.21 532.37,307.47 533.21,307.72 534.05,307.98 534.89,308.24 535.74,308.49 536.58,308.74 537.42,309.00 538.26,309.25 539.10,309.50 539.94,309.75 540.78,310.00 541.62,310.25 542.46,310.49 543.30,310.74 544.14,310.99 544.98,311.23 545.83,311.47 546.67,311.72 547.51,311.96 548.35,312.20 549.19,312.44 550.03,312.68 550.87,312.91 551.71,313.15 552.55,313.39 553.39,313.62 554.23,313.85 555.08,314.09 555.92,314.32 556.76,314.55 557.60,314.78 558.44,315.00 559.28,315.23 560.12,315.46 560.96,315.68 561.80,315.90 562.64,316.12 563.48,316.35 564.32,316.56 565.17,316.78 566.01,317.00 566.85,317.21 567.69,317.43 568.53,317.64 569.37,317.85 570.21,318.06 571.05,318.27 571.89,318.48 572.73,318.69 573.57,318.89 574.41,319.09 575.26,319.30 576.10,319.50 576.94,319.69 577.78,319.89 578.62,320.09 579.46,320.28 580.30,320.48 581.14,320.67 581.98,320.86 582.82,321.05 583.66,321.23 584.50,321.42 585.35,321.60 586.19,321.78 587.03,321.96 587.87,322.14 588.71,322.32 589.55,322.49 590.39,322.67 591.23,322.84 592.07,323.01 592.91,323.18 593.75,323.35 594.59,323.51 595.44,323.67 596.28,323.84 597.12,324.00 597.96,324.15 598.80,324.31 599.64,324.46 600.48,324.62 601.32,324.77 602.16,324.92 603.00,325.06 603.84,325.21 604.68,325.35 605.53,325.49 606.37,325.63 607.21,325.77 608.05,325.90 608.89,326.03 609.73,326.17 610.57,326.30 611.41,326.42 612.25,326.55 613.09,326.67 613.93,326.79 614.77,326.91 615.62,327.03 616.46,327.14 617.30,327.25 618.14,327.36 618.98,327.47 619.82,327.58 620.66,327.68 621.50,327.79 622.34,327.89 623.18,327.98 624.02,328.08 624.86,328.17 625.71,328.26 626.55,328.35 627.39,328.44 628.23,328.52 629.07,328.60 629.91,328.68 630.75,328.76 631.59,328.84 632.43,328.91 633.27,328.98 634.11,329.05 634.95,329.11 635.80,329.18 636.64,329.24 637.48,329.30 638.32,329.35 639.16,329.41 640.00,329.46 640.84,329.51 641.68,329.56 642.52,329.60 643.36,329.65 644.20,329.69 645.05,329.72 645.89,329.76 646.73,329.79 647.57,329.82 648.41,329.85 649.25,329.88 650.09,329.90 650.93,329.92 651.77,329.94 652.61,329.95 653.45,329.97 654.29,329.98 655.14,329.99 655.98,329.99 656.82,330.00 657.66,330.00 658.50,330.00 659.34,330.00 660.18,329.99 661.02,329.98 661.86,329.97 662.70,329.96 663.54,329.94 664.38,329.93 665.23,329.91 666.07,329.88 666.91,329.86 667.75,329.83 668.59,329.80 669.43,329.77 670.27,329.73 671.11,329.70 671.95,329.66 672.79,329.62 673.63,329.57 674.47,329.53 675.32,329.48 676.16,329.43 677.00,329.37 677.84,329.32 678.68,329.26 679.52,329.20 680.36,329.14 681.20,329.07 682.04,329.01 682.88,328.94 683.72,328.86 684.56,328.79 685.41,328.72 686.25,328.64 687.09,328.56 687.93,328.47 688.77,328.39 689.61,328.30 690.45,328.21 691.29,328.12 692.13,328.03 692.97,327.94 693.81,327.84 694.65,327.74 695.50,327.64 696.34,327.53 697.18,327.43 698.02,327.32 698.86,327.21 699.70,327.10 700.54,326.99 701.38,326.88 702.22,326.76 703.06,326.64 703.90,326.52 704.74,326.40 705.59,326.27 706.43,326.15 707.27,326.02 708.11,325.89 708.95,325.76 709.79,325.63 710.63,325.50 711.47,325.36 712.31,325.22 713.15,325.09 713.99,324.95 714.83,324.80 715.68,324.66 716.52,324.52 717.36,324.37 718.20,324.22 719.04,324.08 719.88,323.93 720.72,323.78 721.56,323.62 722.40,323.47 723.24,323.32 724.08,323.16 724.92,323.00 725.77,322.85 726.61,322.69 727.45,322.53 728.29,322.37 729.13,322.20 729.97,322.04 730.81,321.88 731.65,321.71 732.49,321.55 733.33,321.38 734.17,321.22 735.02,321.05 735.86,320.88 736.70,320.71 737.54,320.54 738.38,320.37 739.22,320.20 740.06,320.03 740.90,319.86 741.74,319.69 742.58,319.52 743.42,319.34 744.26,319.17 745.11,319.00 745.95,318.82 746.79,318.65 747.63,318.48 748.47,318.30 749.31,318.13 750.15,317.96 750.99,317.78 751.83,317.61 752.67,317.44 753.51,317.26 754.35,317.09 755.20,316.92 756.04,316.74 756.88,316.57 757.72,316.40 758.56,316.23 759.40,316.06 760.24,315.88 761.08,315.71 761.92,315.54 762.76,315.37 763.60,315.20 764.44,315.04 765.29,314.87 766.13,314.70 766.97,314.54 767.81,314.37 768.65,314.20 769.49,314.04 770.33,313.88 771.17,313.72 772.01,313.55 772.85,313.39 773.69,313.23 774.53,313.08 775.38,312.92 776.22,312.76 777.06,312.61 777.90,312.45 778.74,312.30 779.58,312.15 780.42,312.00 781.26,311.85 782.10,311.70 782.94,311.56 783.78,311.41 784.62,311.27 785.47,311.13 786.31,310.99 787.15,310.85 787.99,310.71 788.83,310.57 789.67,310.44 790.51,310.31 791.35,310.18 792.19,310.05 793.03,309.92 793.87,309.79 794.71,309.67 795.56,309.54 796.40,309.42 797.24,309.30 798.08,309.19 798.92,309.07 799.76,308.96 800.60,308.85 801.44,308.74 802.28,308.63 803.12,308.52 803.96,308.42 804.80,308.31 805.65,308.21 806.49,308.12 807.33,308.02 808.17,307.92 809.01,307.83 809.85,307.74 810.69,307.65 811.53,307.57 812.37,307.48 813.21,307.40 814.05,307.32 814.89,307.24 815.74,307.17 816.58,307.09 817.42,307.02 818.26,306.95 819.10,306.88 819.94,306.82 820.78,306.75 821.62,306.69 822.46,306.63 823.30,306.58 824.14,306.52 824.98,306.47 825.83,306.42 826.67,306.37 827.51,306.32 828.35,306.28 829.19,306.23 830.03,306.19 830.87,306.15 831.71,306.12 832.55,306.08 833.39,306.05 834.23,306.02 835.08,305.99 835.92,305.97 836.76,305.94 837.60,305.92 838.44,305.90 839.28,305.88 840.12,305.86 840.96,305.85 841.80,305.84 842.64,305.83 843.48,305.82 844.32,305.81 845.17,305.81 846.01,305.80 846.85,305.80 847.69,305.80 848.53,305.80 849.37,305.81 850.21,305.81 851.05,305.82 851.89,305.83 852.73,305.84 853.57,305.85 854.41,305.87 855.26,305.88 856.10,305.90 856.94,305.92 857.78,305.94 858.62,305.96 859.46,305.99 860.30,306.01 861.14,306.04 861.98,306.06 862.82,306.09 863.66,306.12 864.50,306.16 865.35,306.19 866.19,306.22 867.03,306.26 867.87,306.30 868.71,306.33 869.55,306.37 870.39,306.41 871.23,306.45 872.07,306.50 872.91,306.54 873.75,306.59 874.59,306.63 875.44,306.68 876.28,306.72 877.12,306.77 877.96,306.82 878.80,306.87 879.64,306.92 880.48,306.97 881.32,307.03 882.16,307.08 883.00,307.13 883.84,307.19 884.68,307.24 885.53,307.30 886.37,307.35 887.21,307.41 888.05,307.47 888.89,307.53 889.73,307.58 890.57,307.64 891.41,307.70 892.25,307.76 893.09,307.82 893.93,307.88 894.77,307.94 895.62,308.00 896.46,308.06 897.30,308.12 898.14,308.18 898.98,308.24 899.82,308.30 900.66,308.36 901.50,308.43 902.34,308.49 903.18,308.55 904.02,308.61 904.86,308.67 905.71,308.73 906.55,308.79 907.39,308.85 908.23,308.91 909.07,308.97 909.91,309.03 910.75,309.09 911.59,309.15 912.43,309.21 913.27,309.27 914.11,309.32 914.95,309.38 915.80,309.44 916.64,309.49 917.48,309.55 918.32,309.61 919.16,309.66 920.00,309.72"/>
<text x="500" y="58" text-anchor="middle" font-size="18" font-family="Helvetica, Arial, sans-serif">Step-2 vs Step-10 ZM Corrections</text>
<text x="80" y="354" text-anchor="start" font-size="12" font-family="Helvetica, Arial, sans-serif">x in [0.05, 0.95]</text>
<text x="920" y="354" text-anchor="end" font-size="12" font-family="Helvetica, Arial, sans-serif">y in [-2.355e-01, 3.052e+00]</text>
<line x1="90" y1="88" x2="115" y2="88" stroke="#1f77b4" stroke-width="2"/>
<text x="122" y="92" font-size="12" font-family="Helvetica, Arial, sans-serif">Step 2</text>
<line x1="250" y1="88" x2="275" y2="88" stroke="#ff7f0e" stroke-width="2"/>
<text x="282" y="92" font-size="12" font-family="Helvetica, Arial, sans-serif">Step 10</text>
<rect x="80" y="430" width="840" height="260" fill="none" stroke="#cccccc" stroke-width="1"/>
<polyline fill="none" stroke="#d62728" stroke-width="2" points="80.00,554.59 80.84,548.80 81.68,543.25 82.52,537.92 83.36,532.81 84.20,527.90 85.05,523.19 85.89,518.66 86.73,514.33 87.57,510.16 88.41,506.16 89.25,502.33 90.09,498.64 90.93,495.11 91.77,491.72 92.61,488.47 93.45,485.35 94.29,482.36 95.14,479.49 95.98,476.75 96.82,474.11 97.66,471.59 98.50,469.17 99.34,466.86 100.18,464.65 101.02,462.53 101.86,460.51 102.70,458.57 103.54,456.72 104.38,454.96 105.23,453.28 106.07,451.67 106.91,450.15 107.75,448.69 108.59,447.31 109.43,445.99 110.27,444.74 111.11,443.56 111.95,442.44 112.79,441.38 113.63,440.38 114.47,439.43 115.32,438.54 116.16,437.70 117.00,436.92 117.84,436.18 118.68,435.50 119.52,434.86 120.36,434.26 121.20,433.72 122.04,433.21 122.88,432.75 123.72,432.32 124.56,431.94 125.41,431.59 126.25,431.28 127.09,431.01 127.93,430.77 128.77,430.57 129.61,430.40 130.45,430.26 131.29,430.15 132.13,430.07 132.97,430.02 133.81,430.00 134.65,430.01 135.50,430.04 136.34,430.10 137.18,430.18 138.02,430.29 138.86,430.42 139.70,430.58 140.54,430.76 141.38,430.96 142.22,431.18 143.06,431.42 143.90,431.68 144.74,431.96 145.59,432.26 146.43,432.57 147.27,432.91 148.11,433.26 148.95,433.63 149.79,434.01 150.63,434.41 151.47,434.82 152.31,435.25 153.15,435.70 153.99,436.15 154.83,436.62 155.68,437.11 156.52,437.60 157.36,438.11 158.20,438.63 159.04,439.16 159.88,439.70 160.72,440.25 161.56,440.81 162.40,441.38 163.24,441.96 164.08,442.56 164.92,443.16 165.77,443.76 166.61,444.38 167.45,445.00 168.29,445.64 169.13,446.28 169.97,446.92 170.81,447.58 171.65,448.24 172.49,448.90 173.33,449.58 174.17,450.26 175.02,450.94 175.86,451.63 176.70,452.33 177.54,453.03 178.38,453.73 179.22,454.44 180.06,455.15 180.90,455.87 181.74,456.60 182.58,457.32 183.42,458.05 184.26,458.78 185.11,459.52 185.95,460.26 186.79,461.00 187.63,461.75 188.47,462.50 189.31,463.25 190.15,464.00 190.99,464.75 191.83,465.51 192.67,466.27 193.51,467.03 194.35,467.79 195.20,468.55 196.04,469.32 196.88,470.08 197.72,470.85 198.56,471.62 199.40,472.39 200.24,473.16 201.08,473.93 201.92,474.70 202.76,475.47 203.60,476.24 204.44,477.01 205.29,477.78 206.13,478.55 206.97,479.33 207.81,480.10 208.65,480.87 209.49,481.64 210.33,482.41 211.17,483.18 212.01,483.95 212.85,484.72 213.69,485.49 214.53,486.25 215.38,487.02 216.22,487.78 217.06,488.55 217.90,489.31 218.74,490.07 219.58,490.83 220.42,491.59 221.26,492.35 222.10,493.11 222.94,493.86 223.78,494.62 224.62,495.37 225.47,496.12 226.31,496.87 227.15,497.62 227.99,498.36 228.83,499.11 229.67,499.85 230.51,500.59 231.35,501.33 232.19,502.06 233.03,502.80 233.87,503.53 234.71,504.26 235.56,504.99 236.40,505.71 237.24,506.44 238.08,507.16 238.92,507.88 239.76,508.60 240.60,509.31 241.44,510.02 242.28,510.73 243.12,511.44 243.96,512.15 244.80,512.85 245.65,513.55 246.49,514.25 247.33,514.94 248.17,515.64 249.01,516.33 249.85,517.02 250.69,517.70 251.53,518.39 252.37,519.07 253.21,519.75 254.05,520.42 254.89,521.09 255.74,521.76 256.58,522.43 257.42,523.10 258.26,523.76 259.10,524.42 259.94,525.08 260.78,525.73 261.62,526.38 262.46,527.03 263.30,527.68 264.14,528.33 264.98,528.97 265.83,529.61 266.67,530.24 267.51,530.88 268.35,531.51 269.19,532.13 270.03,532.76 270.87,533.38 271.71,534.00 272.55,534.62 273.39,535.24 274.23,535.85 275.08,536.46 275.92,537.06 276.76,537.67 277.60,538.27 278.44,538.87 279.28,539.47 280.12,540.06 280.96,540.65 281.80,541.24 282.64,541.82 283.48,542.41 284.32,542.99 285.17,543.57 286.01,544.14 286.85,544.72 287.69,545.29 288.53,545.85 289.37,546.42 290.21,546.98 291.05,547.54 291.89,548.10 292.73,548.66 293.57,549.21 294.41,549.76 295.26,550.31 296.10,550.85 296.94,551.40 297.78,551.94 298.62,552.48 299.46,553.01 300.30,553.55 301.14,554.08 301.98,554.61 302.82,555.13 303.66,555.66 304.50,556.18 305.35,556.70 306.19,557.22 307.03,557.73 307.87,558.25 308.71,558.76 309.55,559.27 310.39,559.77 311.23,560.28 312.07,560.78 312.91,561.28 313.75,561.78 314.59,562.28 315.44,562.77 316.28,563.26 317.12,563.75 317.96,564.24 318.80,564.73 319.64,565.21 320.48,565.69 321.32,566.17 322.16,566.65 323.00,567.12 323.84,567.60 324.68,568.07 325.53,568.54 326.37,569.01 327.21,569.48 328.05,569.94 328.89,570.41 329.73,570.87 330.57,571.33 331.41,571.78 332.25,572.24 333.09,572.70 333.93,573.15 334.77,573.60 335.62,574.05 336.46,574.50 337.30,574.94 338.14,575.39 338.98,575.83 339.82,576.27 340.66,576.71 341.50,577.15 342.34,577.59 343.18,578.02 344.02,578.46 344.86,578.89 345.71,579.32 346.55,579.75 347.39,580.18 348.23,580.61 349.07,581.04 349.91,581.46 350.75,581.88 351.59,582.31 352.43,582.73 353.27,583.15 354.11,583.56 354.95,583.98 355.80,584.40 356.64,584.81 357.48,585.23 358.32,585.64 359.16,586.05 360.00,586.46 360.84,586.87 361.68,587.28 362.52,587.68 363.36,588.09 364.20,588.50 365.05,588.90 365.89,589.30 366.73,589.71 367.57,590.11 368.41,590.51 369.25,590.91 370.09,591.31 370.93,591.70 371.77,592.10 372.61,592.50 373.45,592.89 374.29,593.28 375.14,593.68 375.98,594.07 376.82,594.46 377.66,594.85 378.50,595.24 379.34,595.63 380.18,596.02 381.02,596.41 381.86,596.80 382.70,597.19 383.54,597.57 384.38,597.96 385.23,598.34 386.07,598.73 386.91,599.11 387.75,599.50 388.59,599.88 389.43,600.26 390.27,600.64 391.11,601.03 391.95,601.41 392.79,601.79 393.63,602.17 394.47,602.55 395.32,602.93 396.16,603.30 397.00,603.68 397.84,604.06 398.68,604.44 399.52,604.82 400.36,605.19 401.20,605.57 402.04,605.94 402.88,606.32 403.72,606.70 404.56,607.07 405.41,607.45 406.25,607.82 407.09,608.19 407.93,608.57 408.77,608.94 409.61,609.32 410.45,609.69 411.29,610.06 412.13,610.43 412.97,610.81 413.81,611.18 414.65,611.55 415.50,611.92 416.34,612.29 417.18,612.67 418.02,613.04 418.86,613.41 419.70,613.78 420.54,614.15 421.38,614.52 422.22,614.89 423.06,615.26 423.90,615.63 424.74,616.01 425.59,616.38 426.43,616.75 427.27,617.12 428.11,617.49 428.95,617.86 429.79,618.23 430.63,618.60 431.47,618.97 432.31,619.34 433.15,619.71 433.99,620.08 434.83,620.45 435.68,620.82 436.52,621.19 437.36,621.56 438.20,621.93 439.04,622.30 439.88,622.67 440.72,623.04 441.56,623.41 442.40,623.78 443.24,624.15 444.08,624.52 444.92,624.88 445.77,625.25 446.61,625.62 447.45,625.99 448.29,626.36 449.13,626.73 449.97,627.10 450.81,627.47 451.65,627.84 452.49,628.21 453.33,628.58 454.17,628.95 455.02,629.32 455.86,629.69 456.70,630.06 457.54,630.43 458.38,630.80 459.22,631.17 460.06,631.54 460.90,631.91 461.74,632.28 462.58,632.65 463.42,633.03 464.26,633.40 465.11,633.77 465.95,634.14 466.79,634.51 467.63,634.88 468.47,635.25 469.31,635.62 470.15,635.99 470.99,636.36 471.83,636.73 472.67,637.10 473.51,637.47 474.35,637.83 475.20,638.20 476.04,638.57 476.88,638.94 477.72,639.31 478.56,639.68 479.40,640.05 480.24,640.42 481.08,640.79 481.92,641.16 482.76,641.53 483.60,641.90 484.44,642.27 485.29,642.63 486.13,643.00 486.97,643.37 487.81,643.74 488.65,644.11 489.49,644.47 490.33,644.84 491.17,645.21 492.01,645.57 492.85,645.94 493.69,646.31 494.53,646.67 495.38,647.04 496.22,647.41 497.06,647.77 497.90,648.14 498.74,648.50 499.58,648.87 500.42,649.23 501.26,649.59 502.10,649.96 502.94,650.32 503.78,650.68 504.62,651.04 505.47,651.41 506.31,651.77 507.15,652.13 507.99,652.49 508.83,652.85 509.67,653.21 510.51,653.57 511.35,653.93 512.19,654.28 513.03,654.64 513.87,655.00 514.71,655.35 515.56,655.71 516.40,656.06 517.24,656.42 518.08,656.77 518.92,657.13 519.76,657.48 520.60,657.83 521.44,658.18 522.28,658.53 523.12,658.88 523.96,659.23 524.80,659.58 525.65,659.92 526.49,660.27 527.33,660.62 528.17,660.96 529.01,661.30 529.85,661.65 530.69,661.99 531.53,662.33 532.37,662.67 533.21,663.01 534.05,663.35 534.89,663.69 535.74,664.02 536.58,664.36 537.42,664.69 538.26,665.02 539.10,665.35 539.94,665.69 540.78,666.01 541.62,666.34 542.46,666.67 543.30,667.00 544.14,667.32 544.98,667.64 545.83,667.97 546.67,668.29 547.51,668.61 548.35,668.92 549.19,669.24 550.03,669.55 550.87,669.87 551.71,670.18 552.55,670.49 553.39,670.80 554.23,671.11 555.08,671.41 555.92,671.72 556.76,672.02 557.60,672.32 558.44,672.62 559.28,672.92 560.12,673.22 560.96,673.51 561.80,673.81 562.64,674.10 563.48,674.39 564.32,674.67 565.17,674.96 566.01,675.24 566.85,675.52 567.69,675.80 568.53,676.08 569.37,676.36 570.21,676.63 571.05,676.90 571.89,677.17 572.73,677.44 573.57,677.71 574.41,677.97 575.26,678.23 576.10,678.49 576.94,678.75 577.78,679.01 578.62,679.26 579.46,679.51 580.30,679.76 581.14,680.00 581.98,680.25 582.82,680.49 583.66,680.72 584.50,680.96 585.35,681.19 586.19,681.43 587.03,681.65 587.87,681.88 588.71,682.10 589.55,682.33 590.39,682.54 591.23,682.76 592.07,682.97 592.91,683.18 593.75,683.39 594.59,683.60 595.44,683.80 596.28,684.00 597.12,684.19 597.96,684.39 598.80,684.58 599.64,684.77 600.48,684.95 601.32,685.13 602.16,685.31 603.00,685.49 603.84,685.66 604.68,685.83 605.53,686.00 606.37,686.16 607.21,686.32 608.05,686.48 608.89,686.64 609.73,686.79 610.57,686.93 611.41,687.08 612.25,687.22 613.09,687.36 613.93,687.49 614.77,687.63 615.62,687.75 616.46,687.88 617.30,688.00 618.14,688.12 618.98,688.23 619.82,688.35 620.66,688.45 621.50,688.56 622.34,688.66 623.18,688.76 624.02,688.85 624.86,688.94 625.71,689.03 626.55,689.11 627.39,689.19 628.23,689.27 629.07,689.34 629.91,689.41 630.75,689.47 631.59,689.53 632.43,689.59 633.27,689.65 634.11,689.70 634.95,689.74 635.80,689.78 636.64,689.82 637.48,689.86 638.32,689.89 639.16,689.92 640.00,689.94 640.84,689.96 641.68,689.98 642.52,689.99 643.36,690.00 644.20,690.00 645.05,690.00 645.89,690.00 646.73,689.99 647.57,689.98 648.41,689.96 649.25,689.94 650.09,689.92 650.93,689.89 651.77,689.86 652.61,689.83 653.45,689.79 654.29,689.74 655.14,689.70 655.98,689.65 656.82,689.59 657.66,689.53 658.50,689.47 659.34,689.40 660.18,689.33 661.02,689.26 661.86,689.18 662.70,689.10 663.54,689.01 664.38,688.92 665.23,688.83 666.07,688.73 666.91,688.63 667.75,688.52 668.59,688.41 669.43,688.30 670.27,688.18 671.11,688.06 671.95,687.93 672.79,687.80 673.63,687.67 674.47,687.53 675.32,687.39 676.16,687.24 677.00,687.10 677.84,686.94 678.68,686.79 679.52,686.63 680.36,686.46 681.20,686.30 682.04,686.12 682.88,685.95 683.72,685.77 684.56,685.59 685.41,685.40 686.25,685.21 687.09,685.02 687.93,684.83 688.77,684.63 689.61,684.42 690.45,684.22 691.29,684.01 692.13,683.79 692.97,683.57 693.81,683.35 694.65,683.13 695.50,682.90 696.34,682.67 697.18,682.44 698.02,682.20 698.86,681.96 699.70,681.72 700.54,681.47 701.38,681.23 702.22,680.97 703.06,680.72 703.90,680.46 704.74,680.20 705.59,679.94 706.43,679.67 707.27,679.40 708.11,679.13 708.95,678.85 709.79,678.58 710.63,678.30 711.47,678.01 712.31,677.73 713.15,677.44 713.99,677.15 714.83,676.86 715.68,676.57 716.52,676.27 717.36,675.97 718.20,675.67 719.04,675.37 719.88,675.06 720.72,674.75 721.56,674.45 722.40,674.13 723.24,673.82 724.08,673.51 724.92,673.19 725.77,672.87 726.61,672.55 727.45,672.23 728.29,671.91 729.13,671.59 729.97,671.26 730.81,670.93 731.65,670.61 732.49,670.28 733.33,669.95 734.17,669.61 735.02,669.28 735.86,668.95 736.70,668.61 737.54,668.28 738.38,667.94 739.22,667.61 740.06,667.27 740.90,666.93 741.74,666.59 742.58,666.26 743.42,665.92 744.26,665.58 745.11,665.24 745.95,664.90 746.79,664.56 747.63,664.22 748.47,663.88 749.31,663.54 750.15,663.20 750.99,662.86 751.83,662.52 752.67,662.18 753.51,661.84 754.35,661.50 755.20,661.16 756.04,660.83 756.88,660.49 757.72,660.16 758.56,659.82 759.40,659.49 760.24,659.15 761.08,658.82 761.92,658.49 762.76,658.16 763.60,657.83 764.44,657.50 765.29,657.18 766.13,656.85 766.97,656.53 767.81,656.21 768.65,655.89 769.49,655.57 770.33,655.25 771.17,654.94 772.01,654.62 772.85,654.31 773.69,654.00 774.53,653.69 775.38,653.39 776.22,653.09 777.06,652.78 777.90,652.48 778.74,652.19 779.58,651.89 780.42,651.60 781.26,651.31 782.10,651.02 782.94,650.74 783.78,650.46 784.62,650.18 785.47,649.90 786.31,649.62 787.15,649.35 787.99,649.08 788.83,648.82 789.67,648.55 790.51,648.29 791.35,648.04 792.19,647.78 793.03,647.53 793.87,647.28 794.71,647.04 795.56,646.80 796.40,646.56 797.24,646.33 798.08,646.09 798.92,645.87 799.76,645.64 800.60,645.42 801.44,645.20 802.28,644.99 803.12,644.77 803.96,644.57 804.80,644.36 805.65,644.16 806.49,643.96 807.33,643.77 808.17,643.58 809.01,643.39 809.85,643.21 810.69,643.03 811.53,642.86 812.37,642.69 813.21,642.52 814.05,642.36 814.89,642.20 815.74,642.04 816.58,641.89 817.42,641.74 818.26,641.59 819.10,641.45 819.94,641.31 820.78,641.18 821.62,641.05 822.46,640.92 823.30,640.80 824.14,640.68 824.98,640.57 825.83,640.46 826.67,640.35 827.51,640.25 828.35,640.15 829.19,640.05 830.03,639.96 830.87,639.87 831.71,639.79 832.55,639.71 833.39,639.63 834.23,639.56 835.08,639.49 835.92,639.42 836.76,639.36 837.60,639.30 838.44,639.25 839.28,639.19 840.12,639.15 840.96,639.10 841.80,639.06 842.64,639.02 843.48,638.99 844.32,638.96 845.17,638.93 846.01,638.91 846.85,638.89 847.69,638.87 848.53,638.85 849.37,638.84 850.21,638.83 851.05,638.83 851.89,638.83 852.73,638.83 853.57,638.83 854.41,638.84 855.26,638.85 856.10,638.87 856.94,638.88 857.78,638.90 858.62,638.92 859.46,638.95 860.30,638.97 861.14,639.00 861.98,639.04 862.82,639.07 863.66,639.11 864.50,639.15 865.35,639.19 866.19,639.24 867.03,639.28 867.87,639.33 868.71,639.38 869.55,639.44 870.39,639.49 871.23,639.55 872.07,639.61 872.91,639.67 873.75,639.74 874.59,639.80 875.44,639.87 876.28,639.94 877.12,640.01 877.96,640.08 878.80,640.16 879.64,640.23 880.48,640.31 881.32,640.39 882.16,640.47 883.00,640.55 883.84,640.63 884.68,640.72 885.53,640.80 886.37,640.89 887.21,640.97 888.05,641.06 888.89,641.15 889.73,641.24 890.57,641.33 891.41,641.42 892.25,641.52 893.09,641.61 893.93,641.70 894.77,641.80 895.62,641.89 896.46,641.99 897.30,642.08 898.14,642.18 898.98,642.27 899.82,642.37 900.66,642.47 901.50,642.56 902.34,642.66 903.18,642.76 904.02,642.85 904.86,642.95 905.71,643.05 906.55,643.14 907.39,643.24 908.23,643.34 909.07,643.43 909.91,643.53 910.75,643.62 911.59,643.72 912.43,643.81 913.27,643.91 914.11,644.00 914.95,644.09 915.80,644.18 916.64,644.28 917.48,644.37 918.32,644.46 919.16,644.55 920.00,644.63"/>
<text x="500" y="418" text-anchor="middle" font-size="18" font-family="Helvetica, Arial, sans-serif">Difference Curve</text>
<text x="80" y="714" text-anchor="start" font-size="12" font-family="Helvetica, Arial, sans-serif">x in [0.05, 0.95]</text>
<text x="920" y="714" text-anchor="end" font-size="12" font-family="Helvetica, Arial, sans-serif">y in [-3.099e-01, 1.579e+00]</text>
<line x1="90" y1="448" x2="115" y2="448" stroke="#d62728" stroke-width="2"/>
<text x="122" y="452" font-size="12" font-family="Helvetica, Arial, sans-serif">Difference</text>
<rect x="80" y="790" width="840" height="260" fill="none" stroke="#cccccc" stroke-width="1"/>
<polyline fill="none" stroke="#d62728" stroke-width="2" points="80.00,914.59 80.84,908.80 81.68,903.25 82.52,897.92 83.36,892.81 84.20,887.90 85.05,883.19 85.89,878.66 86.73,874.33 87.57,870.16 88.41,866.16 89.25,862.33 90.09,858.64 90.93,855.11 91.77,851.72 92.61,848.47 93.45,845.35 94.29,842.36 95.14,839.49 95.98,836.75 96.82,834.11 97.66,831.59 98.50,829.17 99.34,826.86 100.18,824.65 101.02,822.53 101.86,820.51 102.70,818.57 103.54,816.72 104.38,814.96 105.23,813.28 106.07,811.67 106.91,810.15 107.75,808.69 108.59,807.31 109.43,805.99 110.27,804.74 111.11,803.56 111.95,802.44 112.79,801.38 113.63,800.38 114.47,799.43 115.32,798.54 116.16,797.70 117.00,796.92 117.84,796.18 118.68,795.50 119.52,794.86 120.36,794.26 121.20,793.72 122.04,793.21 122.88,792.75 123.72,792.32 124.56,791.94 125.41,791.59 126.25,791.28 127.09,791.01 127.93,790.77 128.77,790.57 129.61,790.40 130.45,790.26 131.29,790.15 132.13,790.07 132.97,790.02 133.81,790.00 134.65,790.01 135.50,790.04 136.34,790.10 137.18,790.18 138.02,790.29 138.86,790.42 139.70,790.58 140.54,790.76 141.38,790.96 142.22,791.18 143.06,791.42 143.90,791.68 144.74,791.96 145.59,792.26 146.43,792.57 147.27,792.91 148.11,793.26 148.95,793.63 149.79,794.01 150.63,794.41 151.47,794.82 152.31,795.25 153.15,795.70 153.99,796.15 154.83,796.62 155.68,797.11 156.52,797.60 157.36,798.11 158.20,798.63 159.04,799.16 159.88,799.70 160.72,800.25 161.56,800.81 162.40,801.38 163.24,801.96 164.08,802.56 164.92,803.16 165.77,803.76 166.61,804.38 167.45,805.00 168.29,805.64 169.13,806.28 169.97,806.92 170.81,807.58 171.65,808.24 172.49,808.90 173.33,809.58 174.17,810.26 175.02,810.94 175.86,811.63 176.70,812.33 177.54,813.03 178.38,813.73 179.22,814.44 180.06,815.15 180.90,815.87 181.74,816.60 182.58,817.32 183.42,818.05 184.26,818.78 185.11,819.52 185.95,820.26 186.79,821.00 187.63,821.75 188.47,822.50 189.31,823.25 190.15,824.00 190.99,824.75 191.83,825.51 192.67,826.27 193.51,827.03 194.35,827.79 195.20,828.55 196.04,829.32 196.88,830.08 197.72,830.85 198.56,831.62 199.40,832.39 200.24,833.16 201.08,833.93 201.92,834.70 202.76,835.47 203.60,836.24 204.44,837.01 205.29,837.78 206.13,838.55 206.97,839.33 207.81,840.10 208.65,840.87 209.49,841.64 210.33,842.41 211.17,843.18 212.01,843.95 212.85,844.72 213.69,845.49 214.53,846.25 215.38,847.02 216.22,847.78 217.06,848.55 217.90,849.31 218.74,850.07 219.58,850.83 220.42,851.59 221.26,852.35 222.10,853.11 222.94,853.86 223.78,854.62 224.62,855.37 225.47,856.12 226.31,856.87 227.15,857.62 227.99,858.36 228.83,859.11 229.67,859.85 230.51,860.59 231.35,861.33 232.19,862.06 233.03,862.80 233.87,863.53 234.71,864.26 235.56,864.99 236.40,865.71 237.24,866.44 238.08,867.16 238.92,867.88 239.76,868.60 240.60,869.31 241.44,870.02 242.28,870.73 243.12,871.44 243.96,872.15 244.80,872.85 245.65,873.55 246.49,874.25 247.33,874.94 248.17,875.64 249.01,876.33 249.85,877.02 250.69,877.70 251.53,878.39 252.37,879.07 253.21,879.75 254.05,880.42 254.89,881.09 255.74,881.76 256.58,882.43 257.42,883.10 258.26,883.76 259.10,884.42 259.94,885.08 260.78,885.73 261.62,886.38 262.46,887.03 263.30,887.68 264.14,888.33 264.98,888.97 265.83,889.61 266.67,890.24 267.51,890.88 268.35,891.51 269.19,892.13 270.03,892.76 270.87,893.38 271.71,894.00 272.55,894.62 273.39,895.24 274.23,895.85 275.08,896.46 275.92,897.06 276.76,897.67 277.60,898.27 278.44,898.87 279.28,899.47 280.12,900.06 280.96,900.65 281.80,901.24 282.64,901.82 283.48,902.41 284.32,902.99 285.17,903.57 286.01,904.14 286.85,904.72 287.69,905.29 288.53,905.85 289.37,906.42 290.21,906.98 291.05,907.54 291.89,908.10 292.73,908.66 293.57,909.21 294.41,909.76 295.26,910.31 296.10,910.85 296.94,911.40 297.78,911.94 298.62,912.48 299.46,913.01 300.30,913.55 301.14,914.08 301.98,914.61 302.82,915.13 303.66,915.66 304.50,916.18 305.35,916.70 306.19,917.22 307.03,917.73 307.87,918.25 308.71,918.76 309.55,919.27 310.39,919.77 311.23,920.28 312.07,920.78 312.91,921.28 313.75,921.78 314.59,922.28 315.44,922.77 316.28,923.26 317.12,923.75 317.96,924.24 318.80,924.73 319.64,925.21 320.48,925.69 321.32,926.17 322.16,926.65 323.00,927.12 323.84,927.60 324.68,928.07 325.53,928.54 326.37,929.01 327.21,929.48 328.05,929.94 328.89,930.41 329.73,930.87 330.57,931.33 331.41,931.78 332.25,932.24 333.09,932.70 333.93,933.15 334.77,933.60 335.62,934.05 336.46,934.50 337.30,934.94 338.14,935.39 338.98,935.83 339.82,936.27 340.66,936.71 341.50,937.15 342.34,937.59 343.18,938.02 344.02,938.46 344.86,938.89 345.71,939.32 346.55,939.75 347.39,940.18 348.23,940.61 349.07,941.04 349.91,941.46 350.75,941.88 351.59,942.31 352.43,942.73 353.27,943.15 354.11,943.56 354.95,943.98 355.80,944.40 356.64,944.81 357.48,945.23 358.32,945.64 359.16,946.05 360.00,946.46 360.84,946.87 361.68,947.28 362.52,947.68 363.36,948.09 364.20,948.50 365.05,948.90 365.89,949.30 366.73,949.71 367.57,950.11 368.41,950.51 369.25,950.91 370.09,951.31 370.93,951.70 371.77,952.10 372.61,952.50 373.45,952.89 374.29,953.28 375.14,953.68 375.98,954.07 376.82,954.46 377.66,954.85 378.50,955.24 379.34,955.63 380.18,956.02 381.02,956.41 381.86,956.80 382.70,957.19 383.54,957.57 384.38,957.96 385.23,958.34 386.07,958.73 386.91,959.11 387.75,959.50 388.59,959.88 389.43,960.26 390.27,960.64 391.11,961.03 391.95,961.41 392.79,961.79 393.63,962.17 394.47,962.55 395.32,962.93 396.16,963.30 397.00,963.68 397.84,964.06 398.68,964.44 399.52,964.82 400.36,965.19 401.20,965.57 402.04,965.94 402.88,966.32 403.72,966.70 404.56,967.07 405.41,967.45 406.25,967.82 407.09,968.19 407.93,968.57 408.77,968.94 409.61,969.32 410.45,969.69 411.29,970.06 412.13,970.43 412.97,970.81 413.81,971.18 414.65,971.55 415.50,971.92 416.34,972.29 417.18,972.67 418.02,973.04 418.86,973.41 419.70,973.78 420.54,974.15 421.38,974.52 422.22,974.89 423.06,975.26 423.90,975.63 424.74,976.01 425.59,976.38 426.43,976.75 427.27,977.12 428.11,977.49 428.95,977.86 429.79,978.23 430.63,978.60 431.47,978.97 432.31,979.34 433.15,979.71 433.99,980.08 434.83,980.45 435.68,980.82 436.52,981.19 437.36,981.56 438.20,981.93 439.04,982.30 439.88,982.67 440.72,983.04 441.56,983.41 442.40,983.78 443.24,984.15 444.08,984.52 444.92,984.88 445.77,985.25 446.61,985.62 447.45,985.99 448.29,986.36 449.13,986.73 449.97,987.10 450.81,987.47 451.65,987.84 452.49,988.21 453.33,988.58 454.17,988.95 455.02,989.32 455.86,989.69 456.70,990.06 457.54,990.43 458.38,990.80 459.22,991.17 460.06,991.54 460.90,991.91 461.74,992.28 462.58,992.65 463.42,993.03 464.26,993.40 465.11,993.77 465.95,994.14 466.79,994.51 467.63,994.88 468.47,995.25 469.31,995.62 470.15,995.99 470.99,996.36 471.83,996.73 472.67,997.10 473.51,997.47 474.35,997.83 475.20,998.20 476.04,998.57 476.88,998.94 477.72,999.31 478.56,999.68 479.40,1000.05 480.24,1000.42 481.08,1000.79 481.92,1001.16 482.76,1001.53 483.60,1001.90 484.44,1002.27 485.29,1002.63 486.13,1003.00 486.97,1003.37 487.81,1003.74 488.65,1004.11 489.49,1004.47 490.33,1004.84 491.17,1005.21 492.01,1005.57 492.85,1005.94 493.69,1006.31 494.53,1006.67 495.38,1007.04 496.22,1007.41 497.06,1007.77 497.90,1008.14 498.74,1008.50 499.58,1008.87 500.42,1009.23 501.26,1009.59 502.10,1009.96 502.94,1010.32 503.78,1010.68 504.62,1011.04 505.47,1011.41 506.31,1011.77 507.15,1012.13 507.99,1012.49 508.83,1012.85 509.67,1013.21 510.51,1013.57 511.35,1013.93 512.19,1014.28 513.03,1014.64 513.87,1015.00 514.71,1015.35 515.56,1015.71 516.40,1016.06 517.24,1016.42 518.08,1016.77 518.92,1017.13 519.76,1017.48 520.60,1017.83 521.44,1018.18 522.28,1018.53 523.12,1018.88 523.96,1019.23 524.80,1019.58 525.65,1019.92 526.49,1020.27 527.33,1020.62 528.17,1020.96 529.01,1021.30 529.85,1021.65 530.69,1021.99 531.53,1022.33 532.37,1022.67 533.21,1023.01 534.05,1023.35 534.89,1023.69 535.74,1024.02 536.58,1024.36 537.42,1024.69 538.26,1025.02 539.10,1025.35 539.94,1025.69 540.78,1026.01 541.62,1026.34 542.46,1026.67 543.30,1027.00 544.14,1027.32 544.98,1027.64 545.83,1027.97 546.67,1028.29 547.51,1028.61 548.35,1028.92 549.19,1029.24 550.03,1029.55 550.87,1029.87 551.71,1030.18 552.55,1030.49 553.39,1030.80 554.23,1031.11 555.08,1031.41 555.92,1031.72 556.76,1032.02 557.60,1032.32 558.44,1032.62 559.28,1032.92 560.12,1033.22 560.96,1033.51 561.80,1033.81 562.64,1034.10 563.48,1034.39 564.32,1034.67 565.17,1034.96 566.01,1035.24 566.85,1035.52 567.69,1035.80 568.53,1036.08 569.37,1036.36 570.21,1036.63 571.05,1036.90 571.89,1037.17 572.73,1037.44 573.57,1037.71 574.41,1037.97 575.26,1038.23 576.10,1038.49 576.94,1038.75 577.78,1039.01 578.62,1039.26 579.46,1039.51 580.30,1039.76 581.14,1040.00 581.98,1040.25 582.82,1040.49 583.66,1040.72 584.50,1040.96 585.35,1041.19 586.19,1041.43 587.03,1041.65 587.87,1041.88 588.71,1042.10 589.55,1042.33 590.39,1042.54 591.23,1042.76 592.07,1042.97 592.91,1043.18 593.75,1043.39 594.59,1043.60 595.44,1043.80 596.28,1044.00 597.12,1044.19 597.96,1044.39 598.80,1044.58 599.64,1044.77 600.48,1044.95 601.32,1045.13 602.16,1045.31 603.00,1045.49 603.84,1045.66 604.68,1045.83 605.53,1046.00 606.37,1046.16 607.21,1046.32 608.05,1046.48 608.89,1046.64 609.73,1046.79 610.57,1046.93 611.41,1047.08 612.25,1047.22 613.09,1047.36 613.93,1047.49 614.77,1047.63 615.62,1047.75 616.46,1047.88 617.30,1048.00 618.14,1048.12 618.98,1048.23 619.82,1048.35 620.66,1048.45 621.50,1048.56 622.34,1048.66 623.18,1048.76 624.02,1048.85 624.86,1048.94 625.71,1049.03 626.55,1049.11 627.39,1049.19 628.23,1049.27 629.07,1049.34 629.91,1049.41 630.75,1049.47 631.59,1049.53 632.43,1049.59 633.27,1049.65 634.11,1049.70 634.95,1049.74 635.80,1049.78 636.64,1049.82 637.48,1049.86 638.32,1049.89 639.16,1049.92 640.00,1049.94 640.84,1049.96 641.68,1049.98 642.52,1049.99 643.36,1050.00 644.20,1050.00 645.05,1050.00 645.89,1050.00 646.73,1049.99 647.57,1049.98 648.41,1049.96 649.25,1049.94 650.09,1049.92 650.93,1049.89 651.77,1049.86 652.61,1049.83 653.45,1049.79 654.29,1049.74 655.14,1049.70 655.98,1049.65 656.82,1049.59 657.66,1049.53 658.50,1049.47 659.34,1049.40 660.18,1049.33 661.02,1049.26 661.86,1049.18 662.70,1049.10 663.54,1049.01 664.38,1048.92 665.23,1048.83 666.07,1048.73 666.91,1048.63 667.75,1048.52 668.59,1048.41 669.43,1048.30 670.27,1048.18 671.11,1048.06 671.95,1047.93 672.79,1047.80 673.63,1047.67 674.47,1047.53 675.32,1047.39 676.16,1047.24 677.00,1047.10 677.84,1046.94 678.68,1046.79 679.52,1046.63 680.36,1046.46 681.20,1046.30 682.04,1046.12 682.88,1045.95 683.72,1045.77 684.56,1045.59 685.41,1045.40 686.25,1045.21 687.09,1045.02 687.93,1044.83 688.77,1044.63 689.61,1044.42 690.45,1044.22 691.29,1044.01 692.13,1043.79 692.97,1043.57 693.81,1043.35 694.65,1043.13 695.50,1042.90 696.34,1042.67 697.18,1042.44 698.02,1042.20 698.86,1041.96 699.70,1041.72 700.54,1041.47 701.38,1041.23 702.22,1040.97 703.06,1040.72 703.90,1040.46 704.74,1040.20 705.59,1039.94 706.43,1039.67 707.27,1039.40 708.11,1039.13 708.95,1038.85 709.79,1038.58 710.63,1038.30 711.47,1038.01 712.31,1037.73 713.15,1037.44 713.99,1037.15 714.83,1036.86 715.68,1036.57 716.52,1036.27 717.36,1035.97 718.20,1035.67 719.04,1035.37 719.88,1035.06 720.72,1034.75 721.56,1034.45 722.40,1034.13 723.24,1033.82 724.08,1033.51 724.92,1033.19 725.77,1032.87 726.61,1032.55 727.45,1032.23 728.29,1031.91 729.13,1031.59 729.97,1031.26 730.81,1030.93 731.65,1030.61 732.49,1030.28 733.33,1029.95 734.17,1029.61 735.02,1029.28 735.86,1028.95 736.70,1028.61 737.54,1028.28 738.38,1027.94 739.22,1027.61 740.06,1027.27 740.90,1026.93 741.74,1026.59 742.58,1026.26 743.42,1025.92 744.26,1025.58 745.11,1025.24 745.95,1024.90 746.79,1024.56 747.63,1024.22 748.47,1023.88 749.31,1023.54 750.15,1023.20 750.99,1022.86 751.83,1022.52 752.67,1022.18 753.51,1021.84 754.35,1021.50 755.20,1021.16 756.04,1020.83 756.88,1020.49 757.72,1020.16 758.56,1019.82 759.40,1019.49 760.24,1019.15 761.08,1018.82 761.92,1018.49 762.76,1018.16 763.60,1017.83 764.44,1017.50 765.29,1017.18 766.13,1016.85 766.97,1016.53 767.81,1016.21 768.65,1015.89 769.49,1015.57 770.33,1015.25 771.17,1014.94 772.01,1014.62 772.85,1014.31 773.69,1014.00 774.53,1013.69 775.38,1013.39 776.22,1013.09 777.06,1012.78 777.90,1012.48 778.74,1012.19 779.58,1011.89 780.42,1011.60 781.26,1011.31 782.10,1011.02 782.94,1010.74 783.78,1010.46 784.62,1010.18 785.47,1009.90 786.31,1009.62 787.15,1009.35 787.99,1009.08 788.83,1008.82 789.67,1008.55 790.51,1008.29 791.35,1008.04 792.19,1007.78 793.03,1007.53 793.87,1007.28 794.71,1007.04 795.56,1006.80 796.40,1006.56 797.24,1006.33 798.08,1006.09 798.92,1005.87 799.76,1005.64 800.60,1005.42 801.44,1005.20 802.28,1004.99 803.12,1004.77 803.96,1004.57 804.80,1004.36 805.65,1004.16 806.49,1003.96 807.33,1003.77 808.17,1003.58 809.01,1003.39 809.85,1003.21 810.69,1003.03 811.53,1002.86 812.37,1002.69 813.21,1002.52 814.05,1002.36 814.89,1002.20 815.74,1002.04 816.58,1001.89 817.42,1001.74 818.26,1001.59 819.10,1001.45 819.94,1001.31 820.78,1001.18 821.62,1001.05 822.46,1000.92 823.30,1000.80 824.14,1000.68 824.98,1000.57 825.83,1000.46 826.67,1000.35 827.51,1000.25 828.35,1000.15 829.19,1000.05 830.03,999.96 830.87,999.87 831.71,999.79 832.55,999.71 833.39,999.63 834.23,999.56 835.08,999.49 835.92,999.42 836.76,999.36 837.60,999.30 838.44,999.25 839.28,999.19 840.12,999.15 840.96,999.10 841.80,999.06 842.64,999.02 843.48,998.99 844.32,998.96 845.17,998.93 846.01,998.91 846.85,998.89 847.69,998.87 848.53,998.85 849.37,998.84 850.21,998.83 851.05,998.83 851.89,998.83 852.73,998.83 853.57,998.83 854.41,998.84 855.26,998.85 856.10,998.87 856.94,998.88 857.78,998.90 858.62,998.92 859.46,998.95 860.30,998.97 861.14,999.00 861.98,999.04 862.82,999.07 863.66,999.11 864.50,999.15 865.35,999.19 866.19,999.24 867.03,999.28 867.87,999.33 868.71,999.38 869.55,999.44 870.39,999.49 871.23,999.55 872.07,999.61 872.91,999.67 873.75,999.74 874.59,999.80 875.44,999.87 876.28,999.94 877.12,1000.01 877.96,1000.08 878.80,1000.16 879.64,1000.23 880.48,1000.31 881.32,1000.39 882.16,1000.47 883.00,1000.55 883.84,1000.63 884.68,1000.72 885.53,1000.80 886.37,1000.89 887.21,1000.97 888.05,1001.06 888.89,1001.15 889.73,1001.24 890.57,1001.33 891.41,1001.42 892.25,1001.52 893.09,1001.61 893.93,1001.70 894.77,1001.80 895.62,1001.89 896.46,1001.99 897.30,1002.08 898.14,1002.18 898.98,1002.27 899.82,1002.37 900.66,1002.47 901.50,1002.56 902.34,1002.66 903.18,1002.76 904.02,1002.85 904.86,1002.95 905.71,1003.05 906.55,1003.14 907.39,1003.24 908.23,1003.34 909.07,1003.43 909.91,1003.53 910.75,1003.62 911.59,1003.72 912.43,1003.81 913.27,1003.91 914.11,1004.00 914.95,1004.09 915.80,1004.18 916.64,1004.28 917.48,1004.37 918.32,1004.46 919.16,1004.55 920.00,1004.63"/>
<polyline fill="none" stroke="#2ca02c" stroke-width="2" points="80.00,811.92 80.84,811.22 81.68,810.53 82.52,809.86 83.36,809.19 84.20,808.54 85.05,807.90 85.89,807.28 86.73,806.67 87.57,806.06 88.41,805.48 89.25,804.90 90.09,804.34 90.93,803.78 91.77,803.24 92.61,802.72 93.45,802.20 94.29,801.69 95.14,801.20 95.98,800.72 96.82,800.25 97.66,799.79 98.50,799.35 99.34,798.91 100.18,798.49 101.02,798.08 101.86,797.67 102.70,797.28 103.54,796.90 104.38,796.54 105.23,796.18 106.07,795.83 106.91,795.50 107.75,795.17 108.59,794.86 109.43,794.55 110.27,794.26 111.11,793.98 111.95,793.70 112.79,793.44 113.63,793.19 114.47,792.95 115.32,792.71 116.16,792.49 117.00,792.28 117.84,792.08 118.68,791.88 119.52,791.70 120.36,791.53 121.20,791.37 122.04,791.21 122.88,791.07 123.72,790.93 124.56,790.81 125.41,790.69 126.25,790.58 127.09,790.49 127.93,790.40 128.77,790.32 129.61,790.25 130.45,790.19 131.29,790.13 132.13,790.09 132.97,790.05 133.81,790.03 134.65,790.01 135.50,790.00 136.34,790.00 137.18,790.01 138.02,790.02 138.86,790.05 139.70,790.08 140.54,790.12 141.38,790.17 142.22,790.23 143.06,790.29 143.90,790.36 144.74,790.45 145.59,790.53 146.43,790.63 147.27,790.74 148.11,790.85 148.95,790.97 149.79,791.09 150.63,791.23 151.47,791.37 152.31,791.52 153.15,791.68 153.99,791.84 154.83,792.01 155.68,792.19 156.52,792.38 157.36,792.57 158.20,792.77 159.04,792.97 159.88,793.19 160.72,793.41 161.56,793.63 162.40,793.87 163.24,794.11 164.08,794.36 164.92,794.61 165.77,794.87 166.61,795.14 167.45,795.41 168.29,795.69 169.13,795.97 169.97,796.26 170.81,796.56 171.65,796.87 172.49,797.18 173.33,797.49 174.17,797.81 175.02,798.14 175.86,798.48 176.70,798.82 177.54,799.16 178.38,799.51 179.22,799.87 180.06,800.23 180.90,800.60 181.74,800.97 182.58,801.35 183.42,801.74 184.26,802.13 185.11,802.52 185.95,802.92 186.79,803.33 187.63,803.74 188.47,804.15 189.31,804.58 190.15,805.00 190.99,805.43 191.83,805.87 192.67,806.31 193.51,806.75 194.35,807.21 195.20,807.66 196.04,808.12 196.88,808.58 197.72,809.05 198.56,809.53 199.40,810.01 200.24,810.49 201.08,810.98 201.92,811.47 202.76,811.96 203.60,812.46 204.44,812.97 205.29,813.48 206.13,813.99 206.97,814.50 207.81,815.03 208.65,815.55 209.49,816.08 210.33,816.61 211.17,817.15 212.01,817.69 212.85,818.23 213.69,818.78 214.53,819.33 215.38,819.89 216.22,820.45 217.06,821.01 217.90,821.58 218.74,822.14 219.58,822.72 220.42,823.29 221.26,823.87 222.10,824.46 222.94,825.04 223.78,825.63 224.62,826.23 225.47,826.82 226.31,827.42 227.15,828.02 227.99,828.63 228.83,829.24 229.67,829.85 230.51,830.46 231.35,831.08 232.19,831.70 233.03,832.32 233.87,832.95 234.71,833.58 235.56,834.21 236.40,834.84 237.24,835.48 238.08,836.12 238.92,836.76 239.76,837.40 240.60,838.05 241.44,838.70 242.28,839.35 243.12,840.00 243.96,840.66 244.80,841.31 245.65,841.97 246.49,842.64 247.33,843.30 248.17,843.97 249.01,844.64 249.85,845.31 250.69,845.98 251.53,846.66 252.37,847.33 253.21,848.01 254.05,848.69 254.89,849.38 255.74,850.06 256.58,850.75 257.42,851.43 258.26,852.12 259.10,852.82 259.94,853.51 260.78,854.20 261.62,854.90 262.46,855.60 263.30,856.30 264.14,857.00 264.98,857.70 265.83,858.40 266.67,859.11 267.51,859.82 268.35,860.52 269.19,861.23 270.03,861.94 270.87,862.65 271.71,863.37 272.55,864.08 273.39,864.80 274.23,865.51 275.08,866.23 275.92,866.95 276.76,867.67 277.60,868.39 278.44,869.11 279.28,869.83 280.12,870.55 280.96,871.28 281.80,872.00 282.64,872.73 283.48,873.45 284.32,874.18 285.17,874.91 286.01,875.63 286.85,876.36 287.69,877.09 288.53,877.82 289.37,878.55 290.21,879.29 291.05,880.02 291.89,880.75 292.73,881.48 293.57,882.22 294.41,882.95 295.26,883.68 296.10,884.42 296.94,885.15 297.78,885.89 298.62,886.62 299.46,887.36 300.30,888.09 301.14,888.83 301.98,889.56 302.82,890.30 303.66,891.04 304.50,891.77 305.35,892.51 306.19,893.25 307.03,893.98 307.87,894.72 308.71,895.45 309.55,896.19 310.39,896.93 311.23,897.66 312.07,898.40 312.91,899.13 313.75,899.87 314.59,900.61 315.44,901.34 316.28,902.08 317.12,902.81 317.96,903.54 318.80,904.28 319.64,905.01 320.48,905.75 321.32,906.48 322.16,907.21 323.00,907.94 323.84,908.67 324.68,909.40 325.53,910.14 326.37,910.87 327.21,911.59 328.05,912.32 328.89,913.05 329.73,913.78 330.57,914.51 331.41,915.23 332.25,915.96 333.09,916.68 333.93,917.41 334.77,918.13 335.62,918.85 336.46,919.58 337.30,920.30 338.14,921.02 338.98,921.74 339.82,922.45 340.66,923.17 341.50,923.89 342.34,924.61 343.18,925.32 344.02,926.03 344.86,926.75 345.71,927.46 346.55,928.17 347.39,928.88 348.23,929.59 349.07,930.30 349.91,931.00 350.75,931.71 351.59,932.41 352.43,933.12 353.27,933.82 354.11,934.52 354.95,935.22 355.80,935.92 356.64,936.62 357.48,937.31 358.32,938.01 359.16,938.70 360.00,939.39 360.84,940.08 361.68,940.77 362.52,941.46 363.36,942.15 364.20,942.83 365.05,943.52 365.89,944.20 366.73,944.88 367.57,945.56 368.41,946.24 369.25,946.92 370.09,947.59 370.93,948.27 371.77,948.94 372.61,949.61 373.45,950.28 374.29,950.95 375.14,951.61 375.98,952.28 376.82,952.94 377.66,953.60 378.50,954.26 379.34,954.92 380.18,955.58 381.02,956.23 381.86,956.89 382.70,957.54 383.54,958.19 384.38,958.83 385.23,959.48 386.07,960.13 386.91,960.77 387.75,961.41 388.59,962.05 389.43,962.69 390.27,963.32 391.11,963.95 391.95,964.59 392.79,965.22 393.63,965.84 394.47,966.47 395.32,967.10 396.16,967.72 397.00,968.34 397.84,968.96 398.68,969.57 399.52,970.19 400.36,970.80 401.20,971.41 402.04,972.02 402.88,972.63 403.72,973.23 404.56,973.84 405.41,974.44 406.25,975.04 407.09,975.63 407.93,976.23 408.77,976.82 409.61,977.41 410.45,978.00 411.29,978.59 412.13,979.17 412.97,979.75 413.81,980.33 414.65,980.91 415.50,981.49 416.34,982.06 417.18,982.63 418.02,983.20 418.86,983.77 419.70,984.33 420.54,984.90 421.38,985.46 422.22,986.02 423.06,986.57 423.90,987.13 424.74,987.68 425.59,988.23 426.43,988.78 427.27,989.32 428.11,989.86 428.95,990.40 429.79,990.94 430.63,991.48 431.47,992.01 432.31,992.54 433.15,993.07 433.99,993.60 434.83,994.13 435.68,994.65 436.52,995.17 437.36,995.69 438.20,996.20 439.04,996.71 439.88,997.22 440.72,997.73 441.56,998.24 442.40,998.74 443.24,999.24 444.08,999.74 444.92,1000.24 445.77,1000.73 446.61,1001.22 447.45,1001.71 448.29,1002.20 449.13,1002.68 449.97,1003.17 450.81,1003.65 451.65,1004.12 452.49,1004.60 453.33,1005.07 454.17,1005.54 455.02,1006.01 455.86,1006.47 456.70,1006.93 457.54,1007.39 458.38,1007.85 459.22,1008.31 460.06,1008.76 460.90,1009.21 461.74,1009.66 462.58,1010.10 463.42,1010.55 464.26,1010.99 465.11,1011.42 465.95,1011.86 466.79,1012.29 467.63,1012.72 468.47,1013.15 469.31,1013.58 470.15,1014.00 470.99,1014.42 471.83,1014.84 472.67,1015.25 473.51,1015.67 474.35,1016.08 475.20,1016.48 476.04,1016.89 476.88,1017.29 477.72,1017.69 478.56,1018.09 479.40,1018.48 480.24,1018.88 481.08,1019.27 481.92,1019.65 482.76,1020.04 483.60,1020.42 484.44,1020.80 485.29,1021.18 486.13,1021.55 486.97,1021.93 487.81,1022.30 488.65,1022.66 489.49,1023.03 490.33,1023.39 491.17,1023.75 492.01,1024.11 492.85,1024.46 493.69,1024.81 494.53,1025.16 495.38,1025.51 496.22,1025.85 497.06,1026.20 497.90,1026.54 498.74,1026.87 499.58,1027.21 500.42,1027.54 501.26,1027.87 502.10,1028.19 502.94,1028.52 503.78,1028.84 504.62,1029.16 505.47,1029.47 506.31,1029.79 507.15,1030.10 507.99,1030.41 508.83,1030.71 509.67,1031.02 510.51,1031.32 511.35,1031.62 512.19,1031.91 513.03,1032.21 513.87,1032.50 514.71,1032.78 515.56,1033.07 516.40,1033.35 517.24,1033.63 518.08,1033.91 518.92,1034.19 519.76,1034.46 520.60,1034.73 521.44,1035.00 522.28,1035.27 523.12,1035.53 523.96,1035.79 524.80,1036.05 525.65,1036.30 526.49,1036.56 527.33,1036.81 528.17,1037.05 529.01,1037.30 529.85,1037.54 530.69,1037.78 531.53,1038.02 532.37,1038.26 533.21,1038.49 534.05,1038.72 534.89,1038.95 535.74,1039.18 536.58,1039.40 537.42,1039.62 538.26,1039.84 539.10,1040.05 539.94,1040.27 540.78,1040.48 541.62,1040.69 542.46,1040.89 543.30,1041.09 544.14,1041.30 544.98,1041.49 545.83,1041.69 546.67,1041.88 547.51,1042.08 548.35,1042.26 549.19,1042.45 550.03,1042.63 550.87,1042.82 551.71,1043.00 552.55,1043.17 553.39,1043.35 554.23,1043.52 555.08,1043.69 555.92,1043.86 556.76,1044.02 557.60,1044.18 558.44,1044.34 559.28,1044.50 560.12,1044.66 560.96,1044.81 561.80,1044.96 562.64,1045.11 563.48,1045.25 564.32,1045.40 565.17,1045.54 566.01,1045.68 566.85,1045.81 567.69,1045.95 568.53,1046.08 569.37,1046.21 570.21,1046.34 571.05,1046.46 571.89,1046.59 572.73,1046.71 573.57,1046.83 574.41,1046.94 575.26,1047.05 576.10,1047.17 576.94,1047.28 577.78,1047.38 578.62,1047.49 579.46,1047.59 580.30,1047.69 581.14,1047.79 581.98,1047.88 582.82,1047.98 583.66,1048.07 584.50,1048.16 585.35,1048.24 586.19,1048.33 587.03,1048.41 587.87,1048.49 588.71,1048.57 589.55,1048.65 590.39,1048.72 591.23,1048.79 592.07,1048.86 592.91,1048.93 593.75,1048.99 594.59,1049.06 595.44,1049.12 596.28,1049.18 597.12,1049.23 597.96,1049.29 598.80,1049.34 599.64,1049.39 600.48,1049.44 601.32,1049.49 602.16,1049.53 603.00,1049.57 603.84,1049.61 604.68,1049.65 605.53,1049.69 606.37,1049.72 607.21,1049.75 608.05,1049.78 608.89,1049.81 609.73,1049.84 610.57,1049.86 611.41,1049.89 612.25,1049.91 613.09,1049.92 613.93,1049.94 614.77,1049.95 615.62,1049.97 616.46,1049.98 617.30,1049.99 618.14,1049.99 618.98,1050.00 619.82,1050.00 620.66,1050.00 621.50,1050.00 622.34,1050.00 623.18,1049.99 624.02,1049.98 624.86,1049.98 625.71,1049.97 626.55,1049.95 627.39,1049.94 628.23,1049.92 629.07,1049.91 629.91,1049.89 630.75,1049.86 631.59,1049.84 632.43,1049.82 633.27,1049.79 634.11,1049.76 634.95,1049.73 635.80,1049.70 636.64,1049.67 637.48,1049.63 638.32,1049.59 639.16,1049.55 640.00,1049.51 640.84,1049.47 641.68,1049.43 642.52,1049.38 643.36,1049.33 644.20,1049.28 645.05,1049.23 645.89,1049.18 646.73,1049.13 647.57,1049.07 648.41,1049.01 649.25,1048.96 650.09,1048.89 650.93,1048.83 651.77,1048.77 652.61,1048.70 653.45,1048.64 654.29,1048.57 655.14,1048.50 655.98,1048.43 656.82,1048.35 657.66,1048.28 658.50,1048.20 659.34,1048.13 660.18,1048.05 661.02,1047.97 661.86,1047.88 662.70,1047.80 663.54,1047.72 664.38,1047.63 665.23,1047.54 666.07,1047.45 666.91,1047.36 667.75,1047.27 668.59,1047.18 669.43,1047.08 670.27,1046.98 671.11,1046.89 671.95,1046.79 672.79,1046.69 673.63,1046.58 674.47,1046.48 675.32,1046.38 676.16,1046.27 677.00,1046.16 677.84,1046.06 678.68,1045.95 679.52,1045.83 680.36,1045.72 681.20,1045.61 682.04,1045.49 682.88,1045.38 683.72,1045.26 684.56,1045.14 685.41,1045.02 686.25,1044.90 687.09,1044.78 687.93,1044.66 688.77,1044.53 689.61,1044.40 690.45,1044.28 691.29,1044.15 692.13,1044.02 692.97,1043.89 693.81,1043.76 694.65,1043.63 695.50,1043.49 696.34,1043.36 697.18,1043.22 698.02,1043.08 698.86,1042.95 699.70,1042.81 700.54,1042.67 701.38,1042.53 702.22,1042.38 703.06,1042.24 703.90,1042.10 704.74,1041.95 705.59,1041.80 706.43,1041.66 707.27,1041.51 708.11,1041.36 708.95,1041.21 709.79,1041.06 710.63,1040.91 711.47,1040.75 712.31,1040.60 713.15,1040.44 713.99,1040.29 714.83,1040.13 715.68,1039.97 716.52,1039.82 717.36,1039.66 718.20,1039.50 719.04,1039.33 719.88,1039.17 720.72,1039.01 721.56,1038.85 722.40,1038.68 723.24,1038.52 724.08,1038.35 724.92,1038.19 725.77,1038.02 726.61,1037.85 727.45,1037.68 728.29,1037.51 729.13,1037.34 729.97,1037.17 730.81,1037.00 731.65,1036.83 732.49,1036.65 733.33,1036.48 734.17,1036.30 735.02,1036.13 735.86,1035.95 736.70,1035.78 737.54,1035.60 738.38,1035.42 739.22,1035.24 740.06,1035.07 740.90,1034.89 741.74,1034.71 742.58,1034.53 743.42,1034.34 744.26,1034.16 745.11,1033.98 745.95,1033.80 746.79,1033.61 747.63,1033.43 748.47,1033.25 749.31,1033.06 750.15,1032.87 750.99,1032.69 751.83,1032.50 752.67,1032.32 753.51,1032.13 754.35,1031.94 755.20,1031.75 756.04,1031.56 756.88,1031.37 757.72,1031.18 758.56,1030.99 759.40,1030.80 760.24,1030.61 761.08,1030.42 761.92,1030.23 762.76,1030.04 763.60,1029.85 764.44,1029.66 765.29,1029.46 766.13,1029.27 766.97,1029.08 767.81,1028.88 768.65,1028.69 769.49,1028.49 770.33,1028.30 771.17,1028.10 772.01,1027.91 772.85,1027.71 773.69,1027.52 774.53,1027.32 775.38,1027.13 776.22,1026.93 777.06,1026.73 777.90,1026.54 778.74,1026.34 779.58,1026.14 780.42,1025.95 781.26,1025.75 782.10,1025.55 782.94,1025.35 783.78,1025.16 784.62,1024.96 785.47,1024.76 786.31,1024.56 787.15,1024.36 787.99,1024.16 788.83,1023.97 789.67,1023.77 790.51,1023.57 791.35,1023.37 792.19,1023.17 793.03,1022.97 793.87,1022.77 794.71,1022.57 795.56,1022.38 796.40,1022.18 797.24,1021.98 798.08,1021.78 798.92,1021.58 799.76,1021.38 800.60,1021.18 801.44,1020.98 802.28,1020.78 803.12,1020.58 803.96,1020.39 804.80,1020.19 805.65,1019.99 806.49,1019.79 807.33,1019.59 808.17,1019.39 809.01,1019.19 809.85,1019.00 810.69,1018.80 811.53,1018.60 812.37,1018.40 813.21,1018.20 814.05,1018.01 814.89,1017.81 815.74,1017.61 816.58,1017.42 817.42,1017.22 818.26,1017.02 819.10,1016.83 819.94,1016.63 820.78,1016.43 821.62,1016.24 822.46,1016.04 823.30,1015.85 824.14,1015.65 824.98,1015.45 825.83,1015.26 826.67,1015.07 827.51,1014.87 828.35,1014.68 829.19,1014.48 830.03,1014.29 830.87,1014.10 831.71,1013.90 832.55,1013.71 833.39,1013.52 834.23,1013.33 835.08,1013.13 835.92,1012.94 836.76,1012.75 837.60,1012.56 838.44,1012.37 839.28,1012.18 840.12,1011.99 840.96,1011.80 841.80,1011.61 842.64,1011.42 843.48,1011.23 844.32,1011.05 845.17,1010.86 846.01,1010.67 846.85,1010.49 847.69,1010.30 848.53,1010.11 849.37,1009.93 850.21,1009.74 851.05,1009.56 851.89,1009.37 852.73,1009.19 853.57,1009.01 854.41,1008.82 855.26,1008.64 856.10,1008.46 856.94,1008.28 857.78,1008.09 858.62,1007.91 859.46,1007.73 860.30,1007.55 861.14,1007.37 861.98,1007.20 862.82,1007.02 863.66,1006.84 864.50,1006.66 865.35,1006.49 866.19,1006.31 867.03,1006.13 867.87,1005.96 868.71,1005.78 869.55,1005.61 870.39,1005.43 871.23,1005.26 872.07,1005.09 872.91,1004.92 873.75,1004.74 874.59,1004.57 875.44,1004.40 876.28,1004.23 877.12,1004.06 877.96,1003.90 878.80,1003.73 879.64,1003.56 880.48,1003.39 881.32,1003.23 882.16,1003.06 883.00,1002.89 883.84,1002.73 884.68,1002.56 885.53,1002.40 886.37,1002.24 887.21,1002.08 888.05,1001.91 888.89,1001.75 889.73,1001.59 890.57,1001.43 891.41,1001.27 892.25,1001.11 893.09,1000.96 893.93,1000.80 894.77,1000.64 895.62,1000.48 896.46,1000.33 897.30,1000.17 898.14,1000.02 898.98,999.86 899.82,999.71 900.66,999.56 901.50,999.41 902.34,999.26 903.18,999.11 904.02,998.96 904.86,998.81 905.71,998.66 906.55,998.51 907.39,998.36 908.23,998.21 909.07,998.07 909.91,997.92 910.75,997.78 911.59,997.63 912.43,997.49 913.27,997.35 914.11,997.20 914.95,997.06 915.80,996.92 916.64,996.78 917.48,996.64 918.32,996.50 919.16,996.36 920.00,996.23"/>
<text x="500" y="778" text-anchor="middle" font-size="18" font-family="Helvetica, Arial, sans-serif">Polynomial Approximation to Difference</text>
<text x="80" y="1074" text-anchor="start" font-size="12" font-family="Helvetica, Arial, sans-serif">x in [0.05, 0.95]</text>
<text x="920" y="1074" text-anchor="end" font-size="12" font-family="Helvetica, Arial, sans-serif">y in [-3.099e-01, 1.579e+00]</text>
<line x1="90" y1="808" x2="115" y2="808" stroke="#d62728" stroke-width="2"/>
<text x="122" y="812" font-size="12" font-family="Helvetica, Arial, sans-serif">Difference</text>
<line x1="250" y1="808" x2="275" y2="808" stroke="#2ca02c" stroke-width="2"/>
<text x="282" y="812" font-size="12" font-family="Helvetica, Arial, sans-serif">Poly deg 5, R2=0.977279</text>
</svg>