<svg xmlns="http://www.w3.org/2000/svg" width="1000" height="1200" viewBox="0 0 1000 1200">
<rect width="100%" height="100%" fill="white"/>
<text x="500" y="35" text-anchor="middle" font-size="24" font-family="Helvetica, Arial, sans-serif">War and Peace: Step-10 Ablation</text>
<rect x="80" y="70" width="840" height="260" fill="none" stroke="#cccccc" stroke-width="1"/>
<polyline fill="none" stroke="#1f77b4" stroke-width="2" points="80.00,70.00 80.84,72.16 81.68,74.27 82.52,76.35 83.36,78.39 84.20,80.40 85.05,82.37 85.89,84.30 86.73,86.21 87.57,88.08 88.41,89.92 89.25,91.74 90.09,93.52 90.93,95.27 91.77,97.00 92.61,98.71 93.45,100.38 94.29,102.03 95.14,103.66 95.98,105.27 96.82,106.85 97.66,108.41 98.50,109.94 99.34,111.46 100.18,112.95 101.02,114.43 101.86,115.88 102.70,117.32 103.54,118.74 104.38,120.14 105.23,121.52 106.07,122.88 106.91,124.23 107.75,125.56 108.59,126.88 109.43,128.17 110.27,129.46 111.11,130.72 111.95,131.98 112.79,133.22 113.63,134.44 114.47,135.65 115.32,136.85 116.16,138.03 117.00,139.20 117.84,140.36 118.68,141.50 119.52,142.63 120.36,143.75 121.20,144.86 122.04,145.96 122.88,147.04 123.72,148.12 124.56,149.18 125.41,150.23 126.25,151.27 127.09,152.31 127.93,153.33 128.77,154.34 129.61,155.34 130.45,156.33 131.29,157.31 132.13,158.28 132.97,159.25 133.81,160.20 134.65,161.15 135.50,162.08 136.34,163.01 137.18,163.93 138.02,164.84 138.86,165.74 139.70,166.64 140.54,167.53 141.38,168.40 142.22,169.28 143.06,170.14 143.90,171.00 144.74,171.84 145.59,172.69 146.43,173.52 147.27,174.35 148.11,175.17 148.95,175.98 149.79,176.79 150.63,177.59 151.47,178.38 152.31,179.17 153.15,179.95 153.99,180.73 154.83,181.50 155.68,182.26 156.52,183.01 157.36,183.77 158.20,184.51 159.04,185.25 159.88,185.98 160.72,186.71 161.56,187.43 162.40,188.15 163.24,188.86 164.08,189.57 164.92,190.27 165.77,190.96 166.61,191.65 167.45,192.34 168.29,193.02 169.13,193.69 169.97,194.36 170.81,195.03 171.65,195.69 172.49,196.35 173.33,197.00 174.17,197.64 175.02,198.29 175.86,198.93 176.70,199.56 177.54,200.19 178.38,200.81 179.22,201.43 180.06,202.05 180.90,202.66 181.74,203.27 182.58,203.87 183.42,204.47 184.26,205.07 185.11,205.66 185.95,206.25 186.79,206.83 187.63,207.41 188.47,207.99 189.31,208.56 190.15,209.13 190.99,209.70 191.83,210.26 192.67,210.82 193.51,211.37 194.35,211.92 195.20,212.47 196.04,213.02 196.88,213.56 197.72,214.09 198.56,214.63 199.40,215.16 200.24,215.69 201.08,216.21 201.92,216.73 202.76,217.25 203.60,217.77 204.44,218.28 205.29,218.79 206.13,219.29 206.97,219.80 207.81,220.30 208.65,220.79 209.49,221.29 210.33,221.78 211.17,222.27 212.01,222.75 212.85,223.23 213.69,223.71 214.53,224.19 215.38,224.66 216.22,225.14 217.06,225.60 217.90,226.07 218.74,226.53 219.58,227.00 220.42,227.45 221.26,227.91 222.10,228.36 222.94,228.81 223.78,229.26 224.62,229.71 225.47,230.15 226.31,230.59 227.15,231.03 227.99,231.47 228.83,231.90 229.67,232.33 230.51,232.76 231.35,233.19 232.19,233.61 233.03,234.03 233.87,234.45 234.71,234.87 235.56,235.28 236.40,235.70 237.24,236.11 238.08,236.52 238.92,236.92 239.76,237.33 240.60,237.73 241.44,238.13 242.28,238.53 243.12,238.93 243.96,239.32 244.80,239.71 245.65,240.10 246.49,240.49 247.33,240.88 248.17,241.26 249.01,241.64 249.85,242.02 250.69,242.40 251.53,242.78 252.37,243.15 253.21,243.52 254.05,243.90 254.89,244.26 255.74,244.63 256.58,245.00 257.42,245.36 258.26,245.72 259.10,246.08 259.94,246.44 260.78,246.80 261.62,247.15 262.46,247.50 263.30,247.86 264.14,248.21 264.98,248.55 265.83,248.90 266.67,249.24 267.51,249.59 268.35,249.93 269.19,250.27 270.03,250.61 270.87,250.94 271.71,251.28 272.55,251.61 273.39,251.94 274.23,252.27 275.08,252.60 275.92,252.93 276.76,253.25 277.60,253.58 278.44,253.90 279.28,254.22 280.12,254.54 280.96,254.86 281.80,255.17 282.64,255.49 283.48,255.80 284.32,256.12 285.17,256.43 286.01,256.74 286.85,257.04 287.69,257.35 288.53,257.66 289.37,257.96 290.21,258.26 291.05,258.56 291.89,258.86 292.73,259.16 293.57,259.46 294.41,259.75 295.26,260.05 296.10,260.34 296.94,260.63 297.78,260.92 298.62,261.21 299.46,261.50 300.30,261.79 301.14,262.07 301.98,262.36 302.82,262.64 303.66,262.92 304.50,263.20 305.35,263.48 306.19,263.76 307.03,264.03 307.87,264.31 308.71,264.58 309.55,264.86 310.39,265.13 311.23,265.40 312.07,265.67 312.91,265.94 313.75,266.21 314.59,266.47 315.44,266.74 316.28,267.00 317.12,267.26 317.96,267.53 318.80,267.79 319.64,268.05 320.48,268.30 321.32,268.56 322.16,268.82 323.00,269.07 323.84,269.33 324.68,269.58 325.53,269.83 326.37,270.08 327.21,270.33 328.05,270.58 328.89,270.83 329.73,271.08 330.57,271.32 331.41,271.57 332.25,271.81 333.09,272.05 333.93,272.29 334.77,272.53 335.62,272.77 336.46,273.01 337.30,273.25 338.14,273.49 338.98,273.72 339.82,273.96 340.66,274.19 341.50,274.42 342.34,274.66 343.18,274.89 344.02,275.12 344.86,275.35 345.71,275.57 346.55,275.80 347.39,276.03 348.23,276.25 349.07,276.48 349.91,276.70 350.75,276.92 351.59,277.15 352.43,277.37 353.27,277.59 354.11,277.81 354.95,278.03 355.80,278.24 356.64,278.46 357.48,278.68 358.32,278.89 359.16,279.10 360.00,279.32 360.84,279.53 361.68,279.74 362.52,279.95 363.36,280.16 364.20,280.37 365.05,280.58 365.89,280.79 366.73,280.99 367.57,281.20 368.41,281.40 369.25,281.61 370.09,281.81 370.93,282.01 371.77,282.22 372.61,282.42 373.45,282.62 374.29,282.82 375.14,283.01 375.98,283.21 376.82,283.41 377.66,283.61 378.50,283.80 379.34,284.00 380.18,284.19 381.02,284.38 381.86,284.58 382.70,284.77 383.54,284.96 384.38,285.15 385.23,285.34 386.07,285.53 386.91,285.72 387.75,285.90 388.59,286.09 389.43,286.28 390.27,286.46 391.11,286.65 391.95,286.83 392.79,287.01 393.63,287.20 394.47,287.38 395.32,287.56 396.16,287.74 397.00,287.92 397.84,288.10 398.68,288.28 399.52,288.46 400.36,288.63 401.20,288.81 402.04,288.99 402.88,289.16 403.72,289.33 404.56,289.51 405.41,289.68 406.25,289.85 407.09,290.03 407.93,290.20 408.77,290.37 409.61,290.54 410.45,290.71 411.29,290.88 412.13,291.04 412.97,291.21 413.81,291.38 414.65,291.54 415.50,291.71 416.34,291.87 417.18,292.04 418.02,292.20 418.86,292.37 419.70,292.53 420.54,292.69 421.38,292.85 422.22,293.01 423.06,293.17 423.90,293.33 424.74,293.49 425.59,293.65 426.43,293.81 427.27,293.96 428.11,294.12 428.95,294.28 429.79,294.43 430.63,294.59 431.47,294.74 432.31,294.90 433.15,295.05 433.99,295.20 434.83,295.35 435.68,295.50 436.52,295.66 437.36,295.81 438.20,295.96 439.04,296.10 439.88,296.25 440.72,296.40 441.56,296.55 442.40,296.70 443.24,296.84 444.08,296.99 444.92,297.13 445.77,297.28 446.61,297.42 447.45,297.57 448.29,297.71 449.13,297.85 449.97,298.00 450.81,298.14 451.65,298.28 452.49,298.42 453.33,298.56 454.17,298.70 455.02,298.84 455.86,298.98 456.70,299.12 457.54,299.25 458.38,299.39 459.22,299.53 460.06,299.66 460.90,299.80 461.74,299.94 462.58,300.07 463.42,300.20 464.26,300.34 465.11,300.47 465.95,300.60 466.79,300.74 467.63,300.87 468.47,301.00 469.31,301.13 470.15,301.26 470.99,301.39 471.83,301.52 472.67,301.65 473.51,301.78 474.35,301.91 475.20,302.03 476.04,302.16 476.88,302.29 477.72,302.42 478.56,302.54 479.40,302.67 480.24,302.79 481.08,302.92 481.92,303.04 482.76,303.16 483.60,303.29 484.44,303.41 485.29,303.53 486.13,303.65 486.97,303.77 487.81,303.90 488.65,304.02 489.49,304.14 490.33,304.26 491.17,304.38 492.01,304.49 492.85,304.61 493.69,304.73 494.53,304.85 495.38,304.96 496.22,305.08 497.06,305.20 497.90,305.31 498.74,305.43 499.58,305.54 500.42,305.66 501.26,305.77 502.10,305.89 502.94,306.00 503.78,306.11 504.62,306.23 505.47,306.34 506.31,306.45 507.15,306.56 507.99,306.67 508.83,306.78 509.67,306.89 510.51,307.00 511.35,307.11 512.19,307.22 513.03,307.33 513.87,307.44 514.71,307.54 515.56,307.65 516.40,307.76 517.24,307.87 518.08,307.97 518.92,308.08 519.76,308.18 520.60,308.29 521.44,308.39 522.28,308.50 523.12,308.60 523.96,308.70 524.80,308.81 525.65,308.91 526.49,309.01 527.33,309.11 528.17,309.22 529.01,309.32 529.85,309.42 530.69,309.52 531.53,309.62 532.37,309.72 533.21,309.82 534.05,309.92 534.89,310.02 535.74,310.12 536.58,310.21 537.42,310.31 538.26,310.41 539.10,310.51 539.94,310.60 540.78,310.70 541.62,310.79 542.46,310.89 543.30,310.99 544.14,311.08 544.98,311.18 545.83,311.27 546.67,311.36 547.51,311.46 548.35,311.55 549.19,311.64 550.03,311.74 550.87,311.83 551.71,311.92 552.55,312.01 553.39,312.10 554.23,312.19 555.08,312.28 555.92,312.37 556.76,312.46 557.60,312.55 558.44,312.64 559.28,312.73 560.12,312.82 560.96,312.91 561.80,313.00 562.64,313.08 563.48,313.17 564.32,313.26 565.17,313.35 566.01,313.43 566.85,313.52 567.69,313.60 568.53,313.69 569.37,313.77 570.21,313.86 571.05,313.94 571.89,314.03 572.73,314.11 573.57,314.19 574.41,314.28 575.26,314.36 576.10,314.44 576.94,314.53 577.78,314.61 578.62,314.69 579.46,314.77 580.30,314.85 581.14,314.93 581.98,315.01 582.82,315.09 583.66,315.17 584.50,315.25 585.35,315.33 586.19,315.41 587.03,315.49 587.87,315.57 588.71,315.65 589.55,315.72 590.39,315.80 591.23,315.88 592.07,315.96 592.91,316.03 593.75,316.11 594.59,316.18 595.44,316.26 596.28,316.34 597.12,316.41 597.96,316.49 598.80,316.56 599.64,316.64 600.48,316.71 601.32,316.78 602.16,316.86 603.00,316.93 603.84,317.00 604.68,317.08 605.53,317.15 606.37,317.22 607.21,317.29 608.05,317.36 608.89,317.44 609.73,317.51 610.57,317.58 611.41,317.65 612.25,317.72 613.09,317.79 613.93,317.86 614.77,317.93 615.62,318.00 616.46,318.07 617.30,318.13 618.14,318.20 618.98,318.27 619.82,318.34 620.66,318.41 621.50,318.47 622.34,318.54 623.18,318.61 624.02,318.67 624.86,318.74 625.71,318.81 626.55,318.87 627.39,318.94 628.23,319.00 629.07,319.07 629.91,319.13 630.75,319.20 631.59,319.26 632.43,319.33 633.27,319.39 634.11,319.45 634.95,319.52 635.80,319.58 636.64,319.64 637.48,319.70 638.32,319.77 639.16,319.83 640.00,319.89 640.84,319.95 641.68,320.01 642.52,320.07 643.36,320.14 644.20,320.20 645.05,320.26 645.89,320.32 646.73,320.38 647.57,320.44 648.41,320.50 649.25,320.55 650.09,320.61 650.93,320.67 651.77,320.73 652.61,320.79 653.45,320.85 654.29,320.90 655.14,320.96 655.98,321.02 656.82,321.08 657.66,321.13 658.50,321.19 659.34,321.25 660.18,321.30 661.02,321.36 661.86,321.41 662.70,321.47 663.54,321.52 664.38,321.58 665.23,321.63 666.07,321.69 666.91,321.74 667.75,321.80 668.59,321.85 669.43,321.91 670.27,321.96 671.11,322.01 671.95,322.06 672.79,322.12 673.63,322.17 674.47,322.22 675.32,322.27 676.16,322.33 677.00,322.38 677.84,322.43 678.68,322.48 679.52,322.53 680.36,322.58 681.20,322.63 682.04,322.68 682.88,322.73 683.72,322.78 684.56,322.83 685.41,322.88 686.25,322.93 687.09,322.98 687.93,323.03 688.77,323.08 689.61,323.13 690.45,323.18 691.29,323.22 692.13,323.27 692.97,323.32 693.81,323.37 694.65,323.41 695.50,323.46 696.34,323.51 697.18,323.55 698.02,323.60 698.86,323.65 699.70,323.69 700.54,323.74 701.38,323.78 702.22,323.83 703.06,323.87 703.90,323.92 704.74,323.96 705.59,324.01 706.43,324.05 707.27,324.10 708.11,324.14 708.95,324.19 709.79,324.23 710.63,324.27 711.47,324.32 712.31,324.36 713.15,324.40 713.99,324.44 714.83,324.49 715.68,324.53 716.52,324.57 717.36,324.61 718.20,324.65 719.04,324.70 719.88,324.74 720.72,324.78 721.56,324.82 722.40,324.86 723.24,324.90 724.08,324.94 724.92,324.98 725.77,325.02 726.61,325.06 727.45,325.10 728.29,325.14 729.13,325.18 729.97,325.22 730.81,325.26 731.65,325.30 732.49,325.33 733.33,325.37 734.17,325.41 735.02,325.45 735.86,325.49 736.70,325.52 737.54,325.56 738.38,325.60 739.22,325.64 740.06,325.67 740.90,325.71 741.74,325.75 742.58,325.78 743.42,325.82 744.26,325.85 745.11,325.89 745.95,325.92 746.79,325.96 747.63,326.00 748.47,326.03 749.31,326.07 750.15,326.10 750.99,326.13 751.83,326.17 752.67,326.20 753.51,326.24 754.35,326.27 755.20,326.30 756.04,326.34 756.88,326.37 757.72,326.40 758.56,326.44 759.40,326.47 760.24,326.50 761.08,326.54 761.92,326.57 762.76,326.60 763.60,326.63 764.44,326.66 765.29,326.69 766.13,326.73 766.97,326.76 767.81,326.79 768.65,326.82 769.49,326.85 770.33,326.88 771.17,326.91 772.01,326.94 772.85,326.97 773.69,327.00 774.53,327.03 775.38,327.06 776.22,327.09 777.06,327.12 777.90,327.15 778.74,327.18 779.58,327.21 780.42,327.24 781.26,327.26 782.10,327.29 782.94,327.32 783.78,327.35 784.62,327.38 785.47,327.40 786.31,327.43 787.15,327.46 787.99,327.49 788.83,327.51 789.67,327.54 790.51,327.57 791.35,327.59 792.19,327.62 793.03,327.65 793.87,327.67 794.71,327.70 795.56,327.72 796.40,327.75 797.24,327.78 798.08,327.80 798.92,327.83 799.76,327.85 800.60,327.88 801.44,327.90 802.28,327.92 803.12,327.95 803.96,327.97 804.80,328.00 805.65,328.02 806.49,328.05 807.33,328.07 808.17,328.09 809.01,328.12 809.85,328.14 810.69,328.16 811.53,328.19 812.37,328.21 813.21,328.23 814.05,328.25 814.89,328.28 815.74,328.30 816.58,328.32 817.42,328.34 818.26,328.36 819.10,328.38 819.94,328.41 820.78,328.43 821.62,328.45 822.46,328.47 823.30,328.49 824.14,328.51 824.98,328.53 825.83,328.55 826.67,328.57 827.51,328.59 828.35,328.61 829.19,328.63 830.03,328.65 830.87,328.67 831.71,328.69 832.55,328.71 833.39,328.73 834.23,328.75 835.08,328.77 835.92,328.79 836.76,328.80 837.60,328.82 838.44,328.84 839.28,328.86 840.12,328.88 840.96,328.90 841.80,328.91 842.64,328.93 843.48,328.95 844.32,328.97 845.17,328.98 846.01,329.00 846.85,329.02 847.69,329.03 848.53,329.05 849.37,329.07 850.21,329.08 851.05,329.10 851.89,329.12 852.73,329.13 853.57,329.15 854.41,329.16 855.26,329.18 856.10,329.19 856.94,329.21 857.78,329.23 858.62,329.24 859.46,329.26 860.30,329.27 861.14,329.28 861.98,329.30 862.82,329.31 863.66,329.33 864.50,329.34 865.35,329.36 866.19,329.37 867.03,329.38 867.87,329.40 868.71,329.41 869.55,329.42 870.39,329.44 871.23,329.45 872.07,329.46 872.91,329.48 873.75,329.49 874.59,329.50 875.44,329.51 876.28,329.53 877.12,329.54 877.96,329.55 878.80,329.56 879.64,329.57 880.48,329.59 881.32,329.60 882.16,329.61 883.00,329.62 883.84,329.63 884.68,329.64 885.53,329.65 886.37,329.66 887.21,329.68 888.05,329.69 888.89,329.70 889.73,329.71 890.57,329.72 891.41,329.73 892.25,329.74 893.09,329.75 893.93,329.76 894.77,329.77 895.62,329.78 896.46,329.79 897.30,329.79 898.14,329.80 898.98,329.81 899.82,329.82 900.66,329.83 901.50,329.84 902.34,329.85 903.18,329.86 904.02,329.86 904.86,329.87 905.71,329.88 906.55,329.89 907.39,329.90 908.23,329.90 909.07,329.91 909.91,329.92 910.75,329.93 911.59,329.93 912.43,329.94 913.27,329.95 914.11,329.95 914.95,329.96 915.80,329.97 916.64,329.97 917.48,329.98 918.32,329.99 919.16,329.99 920.00,330.00"/>
<polyline fill="none" stroke="#ff7f0e" stroke-width="2" points="80.00,136.89 80.84,134.41 81.68,131.99 82.52,129.63 83.36,127.33 84.20,125.10 85.05,122.92 85.89,120.80 86.73,118.73 87.57,116.72 88.41,114.77 89.25,112.86 90.09,111.02 90.93,109.22 91.77,107.48 92.61,105.78 93.45,104.14 94.29,102.54 95.14,100.99 95.98,99.49 96.82,98.03 97.66,96.62 98.50,95.26 99.34,93.94 100.18,92.66 101.02,91.43 101.86,90.23 102.70,89.08 103.54,87.97 104.38,86.90 105.23,85.86 106.07,84.87 106.91,83.91 107.75,83.00 108.59,82.11 109.43,81.27 110.27,80.46 111.11,79.68 111.95,78.94 112.79,78.23 113.63,77.56 114.47,76.91 115.32,76.30 116.16,75.73 117.00,75.18 117.84,74.66 118.68,74.18 119.52,73.72 120.36,73.29 121.20,72.89 122.04,72.52 122.88,72.17 123.72,71.86 124.56,71.57 125.41,71.30 126.25,71.06 127.09,70.85 127.93,70.66 128.77,70.50 129.61,70.36 130.45,70.24 131.29,70.15 132.13,70.08 132.97,70.03 133.81,70.00 134.65,70.00 135.50,70.02 136.34,70.06 137.18,70.11 138.02,70.19 138.86,70.29 139.70,70.41 140.54,70.55 141.38,70.71 142.22,70.88 143.06,71.07 143.90,71.29 144.74,71.52 145.59,71.76 146.43,72.02 147.27,72.30 148.11,72.60 148.95,72.91 149.79,73.24 150.63,73.58 151.47,73.94 152.31,74.32 153.15,74.70 153.99,75.11 154.83,75.52 155.68,75.95 156.52,76.40 157.36,76.85 158.20,77.33 159.04,77.81 159.88,78.30 160.72,78.81 161.56,79.33 162.40,79.86 163.24,80.41 164.08,80.96 164.92,81.53 165.77,82.11 166.61,82.70 167.45,83.29 168.29,83.90 169.13,84.52 169.97,85.15 170.81,85.79 171.65,86.44 172.49,87.10 173.33,87.76 174.17,88.44 175.02,89.12 175.86,89.81 176.70,90.52 177.54,91.23 178.38,91.94 179.22,92.67 180.06,93.40 180.90,94.14 181.74,94.89 182.58,95.64 183.42,96.40 184.26,97.17 185.11,97.95 185.95,98.73 186.79,99.52 187.63,100.31 188.47,101.11 189.31,101.92 190.15,102.73 190.99,103.55 191.83,104.37 192.67,105.20 193.51,106.03 194.35,106.87 195.20,107.71 196.04,108.56 196.88,109.41 197.72,110.27 198.56,111.13 199.40,112.00 200.24,112.87 201.08,113.74 201.92,114.62 202.76,115.50 203.60,116.38 204.44,117.27 205.29,118.16 206.13,119.06 206.97,119.96 207.81,120.86 208.65,121.76 209.49,122.67 210.33,123.58 211.17,124.49 212.01,125.41 212.85,126.32 213.69,127.24 214.53,128.17 215.38,129.09 216.22,130.02 217.06,130.94 217.90,131.87 218.74,132.80 219.58,133.74 220.42,134.67 221.26,135.61 222.10,136.55 222.94,137.49 223.78,138.43 224.62,139.37 225.47,140.31 226.31,141.25 227.15,142.20 227.99,143.14 228.83,144.09 229.67,145.03 230.51,145.98 231.35,146.93 232.19,147.88 233.03,148.83 233.87,149.77 234.71,150.72 235.56,151.67 236.40,152.62 237.24,153.57 238.08,154.52 238.92,155.47 239.76,156.42 240.60,157.37 241.44,158.32 242.28,159.26 243.12,160.21 243.96,161.16 244.80,162.11 245.65,163.05 246.49,164.00 247.33,164.94 248.17,165.89 249.01,166.83 249.85,167.77 250.69,168.71 251.53,169.65 252.37,170.59 253.21,171.53 254.05,172.47 254.89,173.40 255.74,174.34 256.58,175.27 257.42,176.20 258.26,177.13 259.10,178.06 259.94,178.99 260.78,179.92 261.62,180.84 262.46,181.77 263.30,182.69 264.14,183.61 264.98,184.52 265.83,185.44 266.67,186.36 267.51,187.27 268.35,188.18 269.19,189.09 270.03,190.00 270.87,190.90 271.71,191.80 272.55,192.71 273.39,193.61 274.23,194.50 275.08,195.40 275.92,196.29 276.76,197.18 277.60,198.07 278.44,198.95 279.28,199.84 280.12,200.72 280.96,201.60 281.80,202.47 282.64,203.35 283.48,204.22 284.32,205.09 285.17,205.96 286.01,206.82 286.85,207.68 287.69,208.54 288.53,209.40 289.37,210.25 290.21,211.10 291.05,211.95 291.89,212.80 292.73,213.64 293.57,214.48 294.41,215.32 295.26,216.15 296.10,216.99 296.94,217.82 297.78,218.64 298.62,219.47 299.46,220.29 300.30,221.11 301.14,221.92 301.98,222.73 302.82,223.54 303.66,224.35 304.50,225.15 305.35,225.95 306.19,226.75 307.03,227.54 307.87,228.33 308.71,229.12 309.55,229.91 310.39,230.69 311.23,231.47 312.07,232.24 312.91,233.01 313.75,233.78 314.59,234.55 315.44,235.31 316.28,236.07 317.12,236.83 317.96,237.58 318.80,238.33 319.64,239.08 320.48,239.82 321.32,240.57 322.16,241.30 323.00,242.04 323.84,242.77 324.68,243.50 325.53,244.22 326.37,244.94 327.21,245.66 328.05,246.37 328.89,247.08 329.73,247.79 330.57,248.50 331.41,249.20 332.25,249.89 333.09,250.59 333.93,251.28 334.77,251.97 335.62,252.65 336.46,253.33 337.30,254.01 338.14,254.69 338.98,255.36 339.82,256.02 340.66,256.69 341.50,257.35 342.34,258.01 343.18,258.66 344.02,259.31 344.86,259.96 345.71,260.60 346.55,261.24 347.39,261.88 348.23,262.51 349.07,263.14 349.91,263.77 350.75,264.39 351.59,265.01 352.43,265.63 353.27,266.24 354.11,266.85 354.95,267.46 355.80,268.06 356.64,268.66 357.48,269.26 358.32,269.85 359.16,270.44 360.00,271.03 360.84,271.61 361.68,272.19 362.52,272.76 363.36,273.34 364.20,273.90 365.05,274.47 365.89,275.03 366.73,275.59 367.57,276.15 368.41,276.70 369.25,277.25 370.09,277.79 370.93,278.33 371.77,278.87 372.61,279.41 373.45,279.94 374.29,280.47 375.14,280.99 375.98,281.51 376.82,282.03 377.66,282.55 378.50,283.06 379.34,283.57 380.18,284.07 381.02,284.57 381.86,285.07 382.70,285.57 383.54,286.06 384.38,286.55 385.23,287.03 386.07,287.51 386.91,287.99 387.75,288.47 388.59,288.94 389.43,289.41 390.27,289.87 391.11,290.33 391.95,290.79 392.79,291.25 393.63,291.70 394.47,292.15 395.32,292.60 396.16,293.04 397.00,293.48 397.84,293.91 398.68,294.35 399.52,294.78 400.36,295.20 401.20,295.63 402.04,296.05 402.88,296.46 403.72,296.88 404.56,297.29 405.41,297.70 406.25,298.10 407.09,298.50 407.93,298.90 408.77,299.30 409.61,299.69 410.45,300.08 411.29,300.46 412.13,300.85 412.97,301.23 413.81,301.60 414.65,301.98 415.50,302.35 416.34,302.71 417.18,303.08 418.02,303.44 418.86,303.80 419.70,304.15 420.54,304.51 421.38,304.86 422.22,305.20 423.06,305.55 423.90,305.89 424.74,306.23 425.59,306.56 426.43,306.89 427.27,307.22 428.11,307.55 428.95,307.87 429.79,308.19 430.63,308.51 431.47,308.82 432.31,309.14 433.15,309.45 433.99,309.75 434.83,310.05 435.68,310.36 436.52,310.65 437.36,310.95 438.20,311.24 439.04,311.53 439.88,311.82 440.72,312.10 441.56,312.38 442.40,312.66 443.24,312.94 444.08,313.21 444.92,313.48 445.77,313.75 446.61,314.01 447.45,314.27 448.29,314.53 449.13,314.79 449.97,315.04 450.81,315.30 451.65,315.55 452.49,315.79 453.33,316.04 454.17,316.28 455.02,316.52 455.86,316.75 456.70,316.99 457.54,317.22 458.38,317.45 459.22,317.67 460.06,317.90 460.90,318.12 461.74,318.34 462.58,318.55 463.42,318.77 464.26,318.98 465.11,319.19 465.95,319.39 466.79,319.60 467.63,319.80 468.47,320.00 469.31,320.20 470.15,320.39 470.99,320.58 471.83,320.77 472.67,320.96 473.51,321.15 474.35,321.33 475.20,321.51 476.04,321.69 476.88,321.86 477.72,322.04 478.56,322.21 479.40,322.38 480.24,322.55 481.08,322.71 481.92,322.87 482.76,323.03 483.60,323.19 484.44,323.35 485.29,323.50 486.13,323.65 486.97,323.80 487.81,323.95 488.65,324.10 489.49,324.24 490.33,324.38 491.17,324.52 492.01,324.66 492.85,324.79 493.69,324.93 494.53,325.06 495.38,325.19 496.22,325.32 497.06,325.44 497.90,325.56 498.74,325.68 499.58,325.80 500.42,325.92 501.26,326.04 502.10,326.15 502.94,326.26 503.78,326.37 504.62,326.48 505.47,326.58 506.31,326.69 507.15,326.79 507.99,326.89 508.83,326.99 509.67,327.09 510.51,327.18 511.35,327.27 512.19,327.37 513.03,327.45 513.87,327.54 514.71,327.63 515.56,327.71 516.40,327.79 517.24,327.88 518.08,327.95 518.92,328.03 519.76,328.11 520.60,328.18 521.44,328.25 522.28,328.32 523.12,328.39 523.96,328.46 524.80,328.53 525.65,328.59 526.49,328.65 527.33,328.71 528.17,328.77 529.01,328.83 529.85,328.89 530.69,328.94 531.53,329.00 532.37,329.05 533.21,329.10 534.05,329.15 534.89,329.19 535.74,329.24 536.58,329.28 537.42,329.33 538.26,329.37 539.10,329.41 539.94,329.45 540.78,329.48 541.62,329.52 542.46,329.56 543.30,329.59 544.14,329.62 544.98,329.65 545.83,329.68 546.67,329.71 547.51,329.73 548.35,329.76 549.19,329.78 550.03,329.80 550.87,329.83 551.71,329.85 552.55,329.86 553.39,329.88 554.23,329.90 555.08,329.91 555.92,329.93 556.76,329.94 557.60,329.95 558.44,329.96 559.28,329.97 560.12,329.98 560.96,329.98 561.80,329.99 562.64,329.99 563.48,330.00 564.32,330.00 565.17,330.00 566.01,330.00 566.85,330.00 567.69,330.00 568.53,329.99 569.37,329.99 570.21,329.98 571.05,329.98 571.89,329.97 572.73,329.96 573.57,329.95 574.41,329.94 575.26,329.93 576.10,329.92 576.94,329.90 577.78,329.89 578.62,329.87 579.46,329.86 580.30,329.84 581.14,329.82 581.98,329.80 582.82,329.78 583.66,329.76 584.50,329.74 585.35,329.72 586.19,329.70 587.03,329.67 587.87,329.65 588.71,329.62 589.55,329.60 590.39,329.57 591.23,329.54 592.07,329.51 592.91,329.48 593.75,329.45 594.59,329.42 595.44,329.39 596.28,329.35 597.12,329.32 597.96,329.29 598.80,329.25 599.64,329.21 600.48,329.18 601.32,329.14 602.16,329.10 603.00,329.06 603.84,329.03 604.68,328.99 605.53,328.94 606.37,328.90 607.21,328.86 608.05,328.82 608.89,328.78 609.73,328.73 610.57,328.69 611.41,328.64 612.25,328.60 613.09,328.55 613.93,328.51 614.77,328.46 615.62,328.41 616.46,328.36 617.30,328.31 618.14,328.26 618.98,328.21 619.82,328.16 620.66,328.11 621.50,328.06 622.34,328.01 623.18,327.96 624.02,327.90 624.86,327.85 625.71,327.80 626.55,327.74 627.39,327.69 628.23,327.63 629.07,327.58 629.91,327.52 630.75,327.47 631.59,327.41 632.43,327.35 633.27,327.29 634.11,327.24 634.95,327.18 635.80,327.12 636.64,327.06 637.48,327.00 638.32,326.94 639.16,326.88 640.00,326.82 640.84,326.76 641.68,326.70 642.52,326.64 643.36,326.58 644.20,326.52 645.05,326.45 645.89,326.39 646.73,326.33 647.57,326.27 648.41,326.20 649.25,326.14 650.09,326.07 650.93,326.01 651.77,325.95 652.61,325.88 653.45,325.82 654.29,325.75 655.14,325.69 655.98,325.62 656.82,325.56 657.66,325.49 658.50,325.43 659.34,325.36 660.18,325.29 661.02,325.23 661.86,325.16 662.70,325.09 663.54,325.03 664.38,324.96 665.23,324.89 666.07,324.83 666.91,324.76 667.75,324.69 668.59,324.62 669.43,324.56 670.27,324.49 671.11,324.42 671.95,324.35 672.79,324.29 673.63,324.22 674.47,324.15 675.32,324.08 676.16,324.01 677.00,323.95 677.84,323.88 678.68,323.81 679.52,323.74 680.36,323.67 681.20,323.60 682.04,323.54 682.88,323.47 683.72,323.40 684.56,323.33 685.41,323.26 686.25,323.20 687.09,323.13 687.93,323.06 688.77,322.99 689.61,322.92 690.45,322.85 691.29,322.79 692.13,322.72 692.97,322.65 693.81,322.58 694.65,322.52 695.50,322.45 696.34,322.38 697.18,322.31 698.02,322.25 698.86,322.18 699.70,322.11 700.54,322.04 701.38,321.98 702.22,321.91 703.06,321.84 703.90,321.78 704.74,321.71 705.59,321.64 706.43,321.58 707.27,321.51 708.11,321.45 708.95,321.38 709.79,321.31 710.63,321.25 711.47,321.18 712.31,321.12 713.15,321.05 713.99,320.99 714.83,320.93 715.68,320.86 716.52,320.80 717.36,320.73 718.20,320.67 719.04,320.61 719.88,320.54 720.72,320.48 721.56,320.42 722.40,320.36 723.24,320.29 724.08,320.23 724.92,320.17 725.77,320.11 726.61,320.05 727.45,319.99 728.29,319.93 729.13,319.86 729.97,319.80 730.81,319.74 731.65,319.69 732.49,319.63 733.33,319.57 734.17,319.51 735.02,319.45 735.86,319.39 736.70,319.33 737.54,319.28 738.38,319.22 739.22,319.16 740.06,319.11 740.90,319.05 741.74,318.99 742.58,318.94 743.42,318.88 744.26,318.83 745.11,318.77 745.95,318.72 746.79,318.67 747.63,318.61 748.47,318.56 749.31,318.51 750.15,318.45 750.99,318.40 751.83,318.35 752.67,318.30 753.51,318.25 754.35,318.20 755.20,318.15 756.04,318.10 756.88,318.05 757.72,318.00 758.56,317.95 759.40,317.90 760.24,317.85 761.08,317.81 761.92,317.76 762.76,317.71 763.60,317.67 764.44,317.62 765.29,317.58 766.13,317.53 766.97,317.49 767.81,317.44 768.65,317.40 769.49,317.36 770.33,317.31 771.17,317.27 772.01,317.23 772.85,317.19 773.69,317.15 774.53,317.11 775.38,317.07 776.22,317.03 777.06,316.99 777.90,316.95 778.74,316.91 779.58,316.88 780.42,316.84 781.26,316.80 782.10,316.77 782.94,316.73 783.78,316.70 784.62,316.66 785.47,316.63 786.31,316.59 787.15,316.56 787.99,316.53 788.83,316.49 789.67,316.46 790.51,316.43 791.35,316.40 792.19,316.37 793.03,316.34 793.87,316.31 794.71,316.28 795.56,316.26 796.40,316.23 797.24,316.20 798.08,316.17 798.92,316.15 799.76,316.12 800.60,316.10 801.44,316.07 802.28,316.05 803.12,316.03 803.96,316.00 804.80,315.98 805.65,315.96 806.49,315.94 807.33,315.92 808.17,315.90 809.01,315.88 809.85,315.86 810.69,315.84 811.53,315.82 812.37,315.80 813.21,315.79 814.05,315.77 814.89,315.75 815.74,315.74 816.58,315.72 817.42,315.71 818.26,315.69 819.10,315.68 819.94,315.67 820.78,315.66 821.62,315.64 822.46,315.63 823.30,315.62 824.14,315.61 824.98,315.60 825.83,315.60 826.67,315.59 827.51,315.58 828.35,315.57 829.19,315.57 830.03,315.56 830.87,315.55 831.71,315.55 832.55,315.55 833.39,315.54 834.23,315.54 835.08,315.54 835.92,315.53 836.76,315.53 837.60,315.53 838.44,315.53 839.28,315.53 840.12,315.53 840.96,315.53 841.80,315.54 842.64,315.54 843.48,315.54 844.32,315.54 845.17,315.55 846.01,315.55 846.85,315.56 847.69,315.57 848.53,315.57 849.37,315.58 850.21,315.59 851.05,315.59 851.89,315.60 852.73,315.61 853.57,315.62 854.41,315.63 855.26,315.64 856.10,315.66 856.94,315.67 857.78,315.68 858.62,315.69 859.46,315.71 860.30,315.72 861.14,315.74 861.98,315.75 862.82,315.77 863.66,315.79 864.50,315.80 865.35,315.82 866.19,315.84 867.03,315.86 867.87,315.88 868.71,315.90 869.55,315.92 870.39,315.94 871.23,315.96 872.07,315.99 872.91,316.01 873.75,316.03 874.59,316.06 875.44,316.08 876.28,316.11 877.12,316.14 877.96,316.16 878.80,316.19 879.64,316.22 880.48,316.25 881.32,316.27 882.16,316.30 883.00,316.34 883.84,316.37 884.68,316.40 885.53,316.43 886.37,316.46 887.21,316.50 888.05,316.53 888.89,316.56 889.73,316.60 890.57,316.64 891.41,316.67 892.25,316.71 893.09,316.75 893.93,316.78 894.77,316.82 895.62,316.86 896.46,316.90 897.30,316.94 898.14,316.99 898.98,317.03 899.82,317.07 900.66,317.11 901.50,317.16 902.34,317.20 903.18,317.25 904.02,317.29 904.86,317.34 905.71,317.39 906.55,317.43 907.39,317.48 908.23,317.53 909.07,317.58 909.91,317.63 910.75,317.68 911.59,317.73 912.43,317.79 913.27,317.84 914.11,317.89 914.95,317.95 915.80,318.00 916.64,318.06 917.48,318.11 918.32,318.17 919.16,318.23 920.00,318.29"/>
<text x="500" y="58" text-anchor="middle" font-size="18" font-family="Helvetica, Arial, sans-serif">Step-2 vs Step-10 ZM Corrections</text>
<text x="80" y="354" text-anchor="start" font-size="12" font-family="Helvetica, Arial, sans-serif">x in [0.05, 0.95]</text>
<text x="920" y="354" text-anchor="end" font-size="12" font-family="Helvetica, Arial, sans-serif">y in [-2.269e-01, 4.612e+00]</text>
<line x1="90" y1="88" x2="115" y2="88" stroke="#1f77b4" stroke-width="2"/>
<text x="122" y="92" font-size="12" font-family="Helvetica, Arial, sans-serif">Step 2</text>
<line x1="250" y1="88" x2="275" y2="88" stroke="#ff7f0e" stroke-width="2"/>
<text x="282" y="92" font-size="12" font-family="Helvetica, Arial, sans-serif">Step 10</text>
<rect x="80" y="430" width="840" height="260" fill="none" stroke="#cccccc" stroke-width="1"/>
<polyline fill="none" stroke="#d62728" stroke-width="2" points="80.00,571.63 80.84,567.21 81.68,562.90 82.52,558.68 83.36,554.57 84.20,550.55 85.05,546.63 85.89,542.80 86.73,539.07 87.57,535.42 88.41,531.86 89.25,528.39 90.09,525.00 90.93,521.69 91.77,518.47 92.61,515.33 93.45,512.26 94.29,509.28 95.14,506.36 95.98,503.53 96.82,500.76 97.66,498.07 98.50,495.45 99.34,492.89 100.18,490.41 101.02,487.99 101.86,485.63 102.70,483.34 103.54,481.11 104.38,478.95 105.23,476.84 106.07,474.80 106.91,472.81 107.75,470.89 108.59,469.01 109.43,467.20 110.27,465.44 111.11,463.73 111.95,462.07 112.79,460.47 113.63,458.92 114.47,457.42 115.32,455.96 116.16,454.56 117.00,453.20 117.84,451.89 118.68,450.63 119.52,449.41 120.36,448.24 121.20,447.11 122.04,446.02 122.88,444.97 123.72,443.97 124.56,443.01 125.41,442.08 126.25,441.20 127.09,440.36 127.93,439.55 128.77,438.78 129.61,438.05 130.45,437.35 131.29,436.69 132.13,436.06 132.97,435.47 133.81,434.91 134.65,434.39 135.50,433.89 136.34,433.43 137.18,433.00 138.02,432.61 138.86,432.24 139.70,431.90 140.54,431.59 141.38,431.31 142.22,431.06 143.06,430.84 143.90,430.64 144.74,430.47 145.59,430.33 146.43,430.22 147.27,430.12 148.11,430.06 148.95,430.02 149.79,430.00 150.63,430.01 151.47,430.04 152.31,430.09 153.15,430.17 153.99,430.26 154.83,430.38 155.68,430.52 156.52,430.69 157.36,430.87 158.20,431.07 159.04,431.29 159.88,431.54 160.72,431.80 161.56,432.08 162.40,432.38 163.24,432.69 164.08,433.03 164.92,433.38 165.77,433.75 166.61,434.14 167.45,434.54 168.29,434.96 169.13,435.39 169.97,435.84 170.81,436.31 171.65,436.79 172.49,437.28 173.33,437.79 174.17,438.32 175.02,438.85 175.86,439.40 176.70,439.97 177.54,440.55 178.38,441.14 179.22,441.74 180.06,442.35 180.90,442.98 181.74,443.62 182.58,444.27 183.42,444.93 184.26,445.61 185.11,446.29 185.95,446.98 186.79,447.69 187.63,448.40 188.47,449.13 189.31,449.86 190.15,450.61 190.99,451.36 191.83,452.12 192.67,452.89 193.51,453.67 194.35,454.46 195.20,455.26 196.04,456.06 196.88,456.87 197.72,457.69 198.56,458.52 199.40,459.36 200.24,460.20 201.08,461.05 201.92,461.90 202.76,462.77 203.60,463.63 204.44,464.51 205.29,465.39 206.13,466.28 206.97,467.17 207.81,468.07 208.65,468.97 209.49,469.88 210.33,470.80 211.17,471.72 212.01,472.64 212.85,473.57 213.69,474.50 214.53,475.44 215.38,476.38 216.22,477.33 217.06,478.28 217.90,479.23 218.74,480.19 219.58,481.15 220.42,482.12 221.26,483.09 222.10,484.06 222.94,485.03 223.78,486.01 224.62,486.99 225.47,487.98 226.31,488.96 227.15,489.95 227.99,490.94 228.83,491.93 229.67,492.93 230.51,493.93 231.35,494.93 232.19,495.93 233.03,496.93 233.87,497.93 234.71,498.94 235.56,499.95 236.40,500.96 237.24,501.97 238.08,502.98 238.92,503.99 239.76,505.00 240.60,506.02 241.44,507.03 242.28,508.05 243.12,509.06 243.96,510.08 244.80,511.10 245.65,512.11 246.49,513.13 247.33,514.15 248.17,515.17 249.01,516.18 249.85,517.20 250.69,518.22 251.53,519.24 252.37,520.25 253.21,521.27 254.05,522.29 254.89,523.30 255.74,524.32 256.58,525.33 257.42,526.35 258.26,527.36 259.10,528.37 259.94,529.38 260.78,530.39 261.62,531.40 262.46,532.41 263.30,533.42 264.14,534.42 264.98,535.43 265.83,536.43 266.67,537.43 267.51,538.43 268.35,539.43 269.19,540.43 270.03,541.42 270.87,542.41 271.71,543.41 272.55,544.40 273.39,545.38 274.23,546.37 275.08,547.36 275.92,548.34 276.76,549.32 277.60,550.30 278.44,551.27 279.28,552.25 280.12,553.22 280.96,554.19 281.80,555.16 282.64,556.12 283.48,557.08 284.32,558.04 285.17,559.00 286.01,559.96 286.85,560.91 287.69,561.86 288.53,562.81 289.37,563.75 290.21,564.69 291.05,565.63 291.89,566.57 292.73,567.50 293.57,568.43 294.41,569.36 295.26,570.29 296.10,571.21 296.94,572.13 297.78,573.05 298.62,573.96 299.46,574.87 300.30,575.78 301.14,576.68 301.98,577.58 302.82,578.48 303.66,579.38 304.50,580.27 305.35,581.15 306.19,582.04 307.03,582.92 307.87,583.80 308.71,584.68 309.55,585.55 310.39,586.42 311.23,587.28 312.07,588.14 312.91,589.00 313.75,589.86 314.59,590.71 315.44,591.55 316.28,592.40 317.12,593.24 317.96,594.08 318.80,594.91 319.64,595.74 320.48,596.57 321.32,597.39 322.16,598.21 323.00,599.02 323.84,599.84 324.68,600.64 325.53,601.45 326.37,602.25 327.21,603.05 328.05,603.84 328.89,604.63 329.73,605.42 330.57,606.20 331.41,606.98 332.25,607.75 333.09,608.52 333.93,609.29 334.77,610.05 335.62,610.81 336.46,611.57 337.30,612.32 338.14,613.07 338.98,613.81 339.82,614.55 340.66,615.29 341.50,616.02 342.34,616.75 343.18,617.47 344.02,618.19 344.86,618.91 345.71,619.62 346.55,620.33 347.39,621.04 348.23,621.74 349.07,622.43 349.91,623.13 350.75,623.82 351.59,624.50 352.43,625.18 353.27,625.86 354.11,626.53 354.95,627.20 355.80,627.87 356.64,628.53 357.48,629.19 358.32,629.84 359.16,630.49 360.00,631.14 360.84,631.78 361.68,632.41 362.52,633.05 363.36,633.68 364.20,634.30 365.05,634.93 365.89,635.54 366.73,636.16 367.57,636.77 368.41,637.37 369.25,637.97 370.09,638.57 370.93,639.17 371.77,639.76 372.61,640.34 373.45,640.93 374.29,641.50 375.14,642.08 375.98,642.65 376.82,643.21 377.66,643.78 378.50,644.34 379.34,644.89 380.18,645.44 381.02,645.99 381.86,646.53 382.70,647.07 383.54,647.60 384.38,648.14 385.23,648.66 386.07,649.19 386.91,649.71 387.75,650.22 388.59,650.73 389.43,651.24 390.27,651.74 391.11,652.24 391.95,652.74 392.79,653.23 393.63,653.72 394.47,654.21 395.32,654.69 396.16,655.16 397.00,655.64 397.84,656.11 398.68,656.57 399.52,657.03 400.36,657.49 401.20,657.95 402.04,658.40 402.88,658.84 403.72,659.29 404.56,659.73 405.41,660.16 406.25,660.59 407.09,661.02 407.93,661.45 408.77,661.87 409.61,662.28 410.45,662.70 411.29,663.11 412.13,663.51 412.97,663.92 413.81,664.31 414.65,664.71 415.50,665.10 416.34,665.49 417.18,665.87 418.02,666.25 418.86,666.63 419.70,667.01 420.54,667.38 421.38,667.74 422.22,668.10 423.06,668.46 423.90,668.82 424.74,669.17 425.59,669.52 426.43,669.87 427.27,670.21 428.11,670.55 428.95,670.88 429.79,671.21 430.63,671.54 431.47,671.87 432.31,672.19 433.15,672.51 433.99,672.82 434.83,673.13 435.68,673.44 436.52,673.75 437.36,674.05 438.20,674.35 439.04,674.64 439.88,674.93 440.72,675.22 441.56,675.50 442.40,675.79 443.24,676.06 444.08,676.34 444.92,676.61 445.77,676.88 446.61,677.15 447.45,677.41 448.29,677.67 449.13,677.92 449.97,678.18 450.81,678.43 451.65,678.67 452.49,678.92 453.33,679.16 454.17,679.40 455.02,679.63 455.86,679.86 456.70,680.09 457.54,680.31 458.38,680.54 459.22,680.76 460.06,680.97 460.90,681.19 461.74,681.40 462.58,681.60 463.42,681.81 464.26,682.01 465.11,682.21 465.95,682.40 466.79,682.60 467.63,682.79 468.47,682.97 469.31,683.16 470.15,683.34 470.99,683.52 471.83,683.70 472.67,683.87 473.51,684.04 474.35,684.21 475.20,684.37 476.04,684.53 476.88,684.69 477.72,684.85 478.56,685.01 479.40,685.16 480.24,685.31 481.08,685.45 481.92,685.60 482.76,685.74 483.60,685.88 484.44,686.01 485.29,686.15 486.13,686.28 486.97,686.40 487.81,686.53 488.65,686.65 489.49,686.77 490.33,686.89 491.17,687.01 492.01,687.12 492.85,687.23 493.69,687.34 494.53,687.45 495.38,687.55 496.22,687.65 497.06,687.75 497.90,687.85 498.74,687.94 499.58,688.03 500.42,688.12 501.26,688.21 502.10,688.30 502.94,688.38 503.78,688.46 504.62,688.54 505.47,688.61 506.31,688.69 507.15,688.76 507.99,688.83 508.83,688.90 509.67,688.96 510.51,689.03 511.35,689.09 512.19,689.15 513.03,689.20 513.87,689.26 514.71,689.31 515.56,689.36 516.40,689.41 517.24,689.45 518.08,689.50 518.92,689.54 519.76,689.58 520.60,689.62 521.44,689.66 522.28,689.69 523.12,689.72 523.96,689.76 524.80,689.78 525.65,689.81 526.49,689.84 527.33,689.86 528.17,689.88 529.01,689.90 529.85,689.92 530.69,689.93 531.53,689.95 532.37,689.96 533.21,689.97 534.05,689.98 534.89,689.99 535.74,689.99 536.58,690.00 537.42,690.00 538.26,690.00 539.10,690.00 539.94,690.00 540.78,689.99 541.62,689.99 542.46,689.98 543.30,689.97 544.14,689.96 544.98,689.94 545.83,689.93 546.67,689.91 547.51,689.90 548.35,689.88 549.19,689.86 550.03,689.84 550.87,689.81 551.71,689.79 552.55,689.76 553.39,689.74 554.23,689.71 555.08,689.68 555.92,689.64 556.76,689.61 557.60,689.58 558.44,689.54 559.28,689.50 560.12,689.47 560.96,689.43 561.80,689.38 562.64,689.34 563.48,689.30 564.32,689.25 565.17,689.21 566.01,689.16 566.85,689.11 567.69,689.06 568.53,689.01 569.37,688.96 570.21,688.90 571.05,688.85 571.89,688.79 572.73,688.73 573.57,688.68 574.41,688.62 575.26,688.56 576.10,688.50 576.94,688.43 577.78,688.37 578.62,688.30 579.46,688.24 580.30,688.17 581.14,688.10 581.98,688.03 582.82,687.96 583.66,687.89 584.50,687.82 585.35,687.75 586.19,687.68 587.03,687.60 587.87,687.52 588.71,687.45 589.55,687.37 590.39,687.29 591.23,687.21 592.07,687.13 592.91,687.05 593.75,686.97 594.59,686.89 595.44,686.80 596.28,686.72 597.12,686.63 597.96,686.55 598.80,686.46 599.64,686.37 600.48,686.29 601.32,686.20 602.16,686.11 603.00,686.02 603.84,685.92 604.68,685.83 605.53,685.74 606.37,685.65 607.21,685.55 608.05,685.46 608.89,685.36 609.73,685.27 610.57,685.17 611.41,685.07 612.25,684.97 613.09,684.88 613.93,684.78 614.77,684.68 615.62,684.58 616.46,684.48 617.30,684.38 618.14,684.27 618.98,684.17 619.82,684.07 620.66,683.96 621.50,683.86 622.34,683.76 623.18,683.65 624.02,683.55 624.86,683.44 625.71,683.33 626.55,683.23 627.39,683.12 628.23,683.01 629.07,682.90 629.91,682.80 630.75,682.69 631.59,682.58 632.43,682.47 633.27,682.36 634.11,682.25 634.95,682.14 635.80,682.03 636.64,681.92 637.48,681.80 638.32,681.69 639.16,681.58 640.00,681.47 640.84,681.35 641.68,681.24 642.52,681.13 643.36,681.01 644.20,680.90 645.05,680.79 645.89,680.67 646.73,680.56 647.57,680.44 648.41,680.33 649.25,680.21 650.09,680.10 650.93,679.98 651.77,679.87 652.61,679.75 653.45,679.63 654.29,679.52 655.14,679.40 655.98,679.28 656.82,679.17 657.66,679.05 658.50,678.93 659.34,678.82 660.18,678.70 661.02,678.58 661.86,678.47 662.70,678.35 663.54,678.23 664.38,678.11 665.23,678.00 666.07,677.88 666.91,677.76 667.75,677.64 668.59,677.53 669.43,677.41 670.27,677.29 671.11,677.17 671.95,677.06 672.79,676.94 673.63,676.82 674.47,676.71 675.32,676.59 676.16,676.47 677.00,676.35 677.84,676.24 678.68,676.12 679.52,676.00 680.36,675.89 681.20,675.77 682.04,675.65 682.88,675.54 683.72,675.42 684.56,675.30 685.41,675.19 686.25,675.07 687.09,674.96 687.93,674.84 688.77,674.72 689.61,674.61 690.45,674.49 691.29,674.38 692.13,674.26 692.97,674.15 693.81,674.04 694.65,673.92 695.50,673.81 696.34,673.69 697.18,673.58 698.02,673.47 698.86,673.35 699.70,673.24 700.54,673.13 701.38,673.02 702.22,672.90 703.06,672.79 703.90,672.68 704.74,672.57 705.59,672.46 706.43,672.35 707.27,672.24 708.11,672.13 708.95,672.02 709.79,671.91 710.63,671.80 711.47,671.69 712.31,671.58 713.15,671.48 713.99,671.37 714.83,671.26 715.68,671.15 716.52,671.05 717.36,670.94 718.20,670.84 719.04,670.73 719.88,670.63 720.72,670.52 721.56,670.42 722.40,670.31 723.24,670.21 724.08,670.11 724.92,670.00 725.77,669.90 726.61,669.80 727.45,669.70 728.29,669.60 729.13,669.50 729.97,669.40 730.81,669.30 731.65,669.20 732.49,669.10 733.33,669.00 734.17,668.91 735.02,668.81 735.86,668.71 736.70,668.62 737.54,668.52 738.38,668.43 739.22,668.33 740.06,668.24 740.90,668.15 741.74,668.05 742.58,667.96 743.42,667.87 744.26,667.78 745.11,667.69 745.95,667.60 746.79,667.51 747.63,667.42 748.47,667.33 749.31,667.24 750.15,667.15 750.99,667.07 751.83,666.98 752.67,666.90 753.51,666.81 754.35,666.73 755.20,666.64 756.04,666.56 756.88,666.48 757.72,666.40 758.56,666.31 759.40,666.23 760.24,666.15 761.08,666.07 761.92,665.99 762.76,665.92 763.60,665.84 764.44,665.76 765.29,665.69 766.13,665.61 766.97,665.54 767.81,665.46 768.65,665.39 769.49,665.31 770.33,665.24 771.17,665.17 772.01,665.10 772.85,665.03 773.69,664.96 774.53,664.89 775.38,664.82 776.22,664.75 777.06,664.69 777.90,664.62 778.74,664.56 779.58,664.49 780.42,664.43 781.26,664.36 782.10,664.30 782.94,664.24 783.78,664.18 784.62,664.12 785.47,664.06 786.31,664.00 787.15,663.94 787.99,663.88 788.83,663.83 789.67,663.77 790.51,663.72 791.35,663.66 792.19,663.61 793.03,663.55 793.87,663.50 794.71,663.45 795.56,663.40 796.40,663.35 797.24,663.30 798.08,663.25 798.92,663.20 799.76,663.16 800.60,663.11 801.44,663.06 802.28,663.02 803.12,662.98 803.96,662.93 804.80,662.89 805.65,662.85 806.49,662.81 807.33,662.77 808.17,662.73 809.01,662.69 809.85,662.65 810.69,662.61 811.53,662.58 812.37,662.54 813.21,662.51 814.05,662.47 814.89,662.44 815.74,662.41 816.58,662.38 817.42,662.35 818.26,662.32 819.10,662.29 819.94,662.26 820.78,662.23 821.62,662.21 822.46,662.18 823.30,662.15 824.14,662.13 824.98,662.11 825.83,662.08 826.67,662.06 827.51,662.04 828.35,662.02 829.19,662.00 830.03,661.98 830.87,661.96 831.71,661.95 832.55,661.93 833.39,661.92 834.23,661.90 835.08,661.89 835.92,661.88 836.76,661.86 837.60,661.85 838.44,661.84 839.28,661.83 840.12,661.82 840.96,661.81 841.80,661.81 842.64,661.80 843.48,661.80 844.32,661.79 845.17,661.79 846.01,661.78 846.85,661.78 847.69,661.78 848.53,661.78 849.37,661.78 850.21,661.78 851.05,661.78 851.89,661.78 852.73,661.79 853.57,661.79 854.41,661.80 855.26,661.80 856.10,661.81 856.94,661.82 857.78,661.82 858.62,661.83 859.46,661.84 860.30,661.85 861.14,661.87 861.98,661.88 862.82,661.89 863.66,661.91 864.50,661.92 865.35,661.94 866.19,661.95 867.03,661.97 867.87,661.99 868.71,662.01 869.55,662.03 870.39,662.05 871.23,662.07 872.07,662.09 872.91,662.12 873.75,662.14 874.59,662.16 875.44,662.19 876.28,662.22 877.12,662.24 877.96,662.27 878.80,662.30 879.64,662.33 880.48,662.36 881.32,662.39 882.16,662.43 883.00,662.46 883.84,662.49 884.68,662.53 885.53,662.56 886.37,662.60 887.21,662.64 888.05,662.68 888.89,662.72 889.73,662.76 890.57,662.80 891.41,662.84 892.25,662.88 893.09,662.93 893.93,662.97 894.77,663.01 895.62,663.06 896.46,663.11 897.30,663.16 898.14,663.20 898.98,663.25 899.82,663.31 900.66,663.36 901.50,663.41 902.34,663.46 903.18,663.52 904.02,663.57 904.86,663.63 905.71,663.68 906.55,663.74 907.39,663.80 908.23,663.86 909.07,663.92 909.91,663.98 910.75,664.05 911.59,664.11 912.43,664.17 913.27,664.24 914.11,664.30 914.95,664.37 915.80,664.44 916.64,664.51 917.48,664.58 918.32,664.65 919.16,664.72 920.00,664.79"/>
<text x="500" y="418" text-anchor="middle" font-size="18" font-family="Helvetica, Arial, sans-serif">Difference Curve</text>
<text x="80" y="714" text-anchor="start" font-size="12" font-family="Helvetica, Arial, sans-serif">x in [0.05, 0.95]</text>
<text x="920" y="714" text-anchor="end" font-size="12" font-family="Helvetica, Arial, sans-serif">y in [-3.705e-01, 3.346e+00]</text>
<line x1="90" y1="448" x2="115" y2="448" stroke="#d62728" stroke-width="2"/>
<text x="122" y="452" font-size="12" font-family="Helvetica, Arial, sans-serif">Difference</text>
<rect x="80" y="790" width="840" height="260" fill="none" stroke="#cccccc" stroke-width="1"/>
<polyline fill="none" stroke="#d62728" stroke-width="2" points="80.00,931.63 80.84,927.21 81.68,922.90 82.52,918.68 83.36,914.57 84.20,910.55 85.05,906.63 85.89,902.80 86.73,899.07 87.57,895.42 88.41,891.86 89.25,888.39 90.09,885.00 90.93,881.69 91.77,878.47 92.61,875.33 93.45,872.26 94.29,869.28 95.14,866.36 95.98,863.53 96.82,860.76 97.66,858.07 98.50,855.45 99.34,852.89 100.18,850.41 101.02,847.99 101.86,845.63 102.70,843.34 103.54,841.11 104.38,838.95 105.23,836.84 106.07,834.80 106.91,832.81 107.75,830.89 108.59,829.01 109.43,827.20 110.27,825.44 111.11,823.73 111.95,822.07 112.79,820.47 113.63,818.92 114.47,817.42 115.32,815.96 116.16,814.56 117.00,813.20 117.84,811.89 118.68,810.63 119.52,809.41 120.36,808.24 121.20,807.11 122.04,806.02 122.88,804.97 123.72,803.97 124.56,803.01 125.41,802.08 126.25,801.20 127.09,800.36 127.93,799.55 128.77,798.78 129.61,798.05 130.45,797.35 131.29,796.69 132.13,796.06 132.97,795.47 133.81,794.91 134.65,794.39 135.50,793.89 136.34,793.43 137.18,793.00 138.02,792.61 138.86,792.24 139.70,791.90 140.54,791.59 141.38,791.31 142.22,791.06 143.06,790.84 143.90,790.64 144.74,790.47 145.59,790.33 146.43,790.22 147.27,790.12 148.11,790.06 148.95,790.02 149.79,790.00 150.63,790.01 151.47,790.04 152.31,790.09 153.15,790.17 153.99,790.26 154.83,790.38 155.68,790.52 156.52,790.69 157.36,790.87 158.20,791.07 159.04,791.29 159.88,791.54 160.72,791.80 161.56,792.08 162.40,792.38 163.24,792.69 164.08,793.03 164.92,793.38 165.77,793.75 166.61,794.14 167.45,794.54 168.29,794.96 169.13,795.39 169.97,795.84 170.81,796.31 171.65,796.79 172.49,797.28 173.33,797.79 174.17,798.32 175.02,798.85 175.86,799.40 176.70,799.97 177.54,800.55 178.38,801.14 179.22,801.74 180.06,802.35 180.90,802.98 181.74,803.62 182.58,804.27 183.42,804.93 184.26,805.61 185.11,806.29 185.95,806.98 186.79,807.69 187.63,808.40 188.47,809.13 189.31,809.86 190.15,810.61 190.99,811.36 191.83,812.12 192.67,812.89 193.51,813.67 194.35,814.46 195.20,815.26 196.04,816.06 196.88,816.87 197.72,817.69 198.56,818.52 199.40,819.36 200.24,820.20 201.08,821.05 201.92,821.90 202.76,822.77 203.60,823.63 204.44,824.51 205.29,825.39 206.13,826.28 206.97,827.17 207.81,828.07 208.65,828.97 209.49,829.88 210.33,830.80 211.17,831.72 212.01,832.64 212.85,833.57 213.69,834.50 214.53,835.44 215.38,836.38 216.22,837.33 217.06,838.28 217.90,839.23 218.74,840.19 219.58,841.15 220.42,842.12 221.26,843.09 222.10,844.06 222.94,845.03 223.78,846.01 224.62,846.99 225.47,847.98 226.31,848.96 227.15,849.95 227.99,850.94 228.83,851.93 229.67,852.93 230.51,853.93 231.35,854.93 232.19,855.93 233.03,856.93 233.87,857.93 234.71,858.94 235.56,859.95 236.40,860.96 237.24,861.97 238.08,862.98 238.92,863.99 239.76,865.00 240.60,866.02 241.44,867.03 242.28,868.05 243.12,869.06 243.96,870.08 244.80,871.10 245.65,872.11 246.49,873.13 247.33,874.15 248.17,875.17 249.01,876.18 249.85,877.20 250.69,878.22 251.53,879.24 252.37,880.25 253.21,881.27 254.05,882.29 254.89,883.30 255.74,884.32 256.58,885.33 257.42,886.35 258.26,887.36 259.10,888.37 259.94,889.38 260.78,890.39 261.62,891.40 262.46,892.41 263.30,893.42 264.14,894.42 264.98,895.43 265.83,896.43 266.67,897.43 267.51,898.43 268.35,899.43 269.19,900.43 270.03,901.42 270.87,902.41 271.71,903.41 272.55,904.40 273.39,905.38 274.23,906.37 275.08,907.36 275.92,908.34 276.76,909.32 277.60,910.30 278.44,911.27 279.28,912.25 280.12,913.22 280.96,914.19 281.80,915.16 282.64,916.12 283.48,917.08 284.32,918.04 285.17,919.00 286.01,919.96 286.85,920.91 287.69,921.86 288.53,922.81 289.37,923.75 290.21,924.69 291.05,925.63 291.89,926.57 292.73,927.50 293.57,928.43 294.41,929.36 295.26,930.29 296.10,931.21 296.94,932.13 297.78,933.05 298.62,933.96 299.46,934.87 300.30,935.78 301.14,936.68 301.98,937.58 302.82,938.48 303.66,939.38 304.50,940.27 305.35,941.15 306.19,942.04 307.03,942.92 307.87,943.80 308.71,944.68 309.55,945.55 310.39,946.42 311.23,947.28 312.07,948.14 312.91,949.00 313.75,949.86 314.59,950.71 315.44,951.55 316.28,952.40 317.12,953.24 317.96,954.08 318.80,954.91 319.64,955.74 320.48,956.57 321.32,957.39 322.16,958.21 323.00,959.02 323.84,959.84 324.68,960.64 325.53,961.45 326.37,962.25 327.21,963.05 328.05,963.84 328.89,964.63 329.73,965.42 330.57,966.20 331.41,966.98 332.25,967.75 333.09,968.52 333.93,969.29 334.77,970.05 335.62,970.81 336.46,971.57 337.30,972.32 338.14,973.07 338.98,973.81 339.82,974.55 340.66,975.29 341.50,976.02 342.34,976.75 343.18,977.47 344.02,978.19 344.86,978.91 345.71,979.62 346.55,980.33 347.39,981.04 348.23,981.74 349.07,982.43 349.91,983.13 350.75,983.82 351.59,984.50 352.43,985.18 353.27,985.86 354.11,986.53 354.95,987.20 355.80,987.87 356.64,988.53 357.48,989.19 358.32,989.84 359.16,990.49 360.00,991.14 360.84,991.78 361.68,992.41 362.52,993.05 363.36,993.68 364.20,994.30 365.05,994.93 365.89,995.54 366.73,996.16 367.57,996.77 368.41,997.37 369.25,997.97 370.09,998.57 370.93,999.17 371.77,999.76 372.61,1000.34 373.45,1000.93 374.29,1001.50 375.14,1002.08 375.98,1002.65 376.82,1003.21 377.66,1003.78 378.50,1004.34 379.34,1004.89 380.18,1005.44 381.02,1005.99 381.86,1006.53 382.70,1007.07 383.54,1007.60 384.38,1008.14 385.23,1008.66 386.07,1009.19 386.91,1009.71 387.75,1010.22 388.59,1010.73 389.43,1011.24 390.27,1011.74 391.11,1012.24 391.95,1012.74 392.79,1013.23 393.63,1013.72 394.47,1014.21 395.32,1014.69 396.16,1015.16 397.00,1015.64 397.84,1016.11 398.68,1016.57 399.52,1017.03 400.36,1017.49 401.20,1017.95 402.04,1018.40 402.88,1018.84 403.72,1019.29 404.56,1019.73 405.41,1020.16 406.25,1020.59 407.09,1021.02 407.93,1021.45 408.77,1021.87 409.61,1022.28 410.45,1022.70 411.29,1023.11 412.13,1023.51 412.97,1023.92 413.81,1024.31 414.65,1024.71 415.50,1025.10 416.34,1025.49 417.18,1025.87 418.02,1026.25 418.86,1026.63 419.70,1027.01 420.54,1027.38 421.38,1027.74 422.22,1028.10 423.06,1028.46 423.90,1028.82 424.74,1029.17 425.59,1029.52 426.43,1029.87 427.27,1030.21 428.11,1030.55 428.95,1030.88 429.79,1031.21 430.63,1031.54 431.47,1031.87 432.31,1032.19 433.15,1032.51 433.99,1032.82 434.83,1033.13 435.68,1033.44 436.52,1033.75 437.36,1034.05 438.20,1034.35 439.04,1034.64 439.88,1034.93 440.72,1035.22 441.56,1035.50 442.40,1035.79 443.24,1036.06 444.08,1036.34 444.92,1036.61 445.77,1036.88 446.61,1037.15 447.45,1037.41 448.29,1037.67 449.13,1037.92 449.97,1038.18 450.81,1038.43 451.65,1038.67 452.49,1038.92 453.33,1039.16 454.17,1039.40 455.02,1039.63 455.86,1039.86 456.70,1040.09 457.54,1040.31 458.38,1040.54 459.22,1040.76 460.06,1040.97 460.90,1041.19 461.74,1041.40 462.58,1041.60 463.42,1041.81 464.26,1042.01 465.11,1042.21 465.95,1042.40 466.79,1042.60 467.63,1042.79 468.47,1042.97 469.31,1043.16 470.15,1043.34 470.99,1043.52 471.83,1043.70 472.67,1043.87 473.51,1044.04 474.35,1044.21 475.20,1044.37 476.04,1044.53 476.88,1044.69 477.72,1044.85 478.56,1045.01 479.40,1045.16 480.24,1045.31 481.08,1045.45 481.92,1045.60 482.76,1045.74 483.60,1045.88 484.44,1046.01 485.29,1046.15 486.13,1046.28 486.97,1046.40 487.81,1046.53 488.65,1046.65 489.49,1046.77 490.33,1046.89 491.17,1047.01 492.01,1047.12 492.85,1047.23 493.69,1047.34 494.53,1047.45 495.38,1047.55 496.22,1047.65 497.06,1047.75 497.90,1047.85 498.74,1047.94 499.58,1048.03 500.42,1048.12 501.26,1048.21 502.10,1048.30 502.94,1048.38 503.78,1048.46 504.62,1048.54 505.47,1048.61 506.31,1048.69 507.15,1048.76 507.99,1048.83 508.83,1048.90 509.67,1048.96 510.51,1049.03 511.35,1049.09 512.19,1049.15 513.03,1049.20 513.87,1049.26 514.71,1049.31 515.56,1049.36 516.40,1049.41 517.24,1049.45 518.08,1049.50 518.92,1049.54 519.76,1049.58 520.60,1049.62 521.44,1049.66 522.28,1049.69 523.12,1049.72 523.96,1049.76 524.80,1049.78 525.65,1049.81 526.49,1049.84 527.33,1049.86 528.17,1049.88 529.01,1049.90 529.85,1049.92 530.69,1049.93 531.53,1049.95 532.37,1049.96 533.21,1049.97 534.05,1049.98 534.89,1049.99 535.74,1049.99 536.58,1050.00 537.42,1050.00 538.26,1050.00 539.10,1050.00 539.94,1050.00 540.78,1049.99 541.62,1049.99 542.46,1049.98 543.30,1049.97 544.14,1049.96 544.98,1049.94 545.83,1049.93 546.67,1049.91 547.51,1049.90 548.35,1049.88 549.19,1049.86 550.03,1049.84 550.87,1049.81 551.71,1049.79 552.55,1049.76 553.39,1049.74 554.23,1049.71 555.08,1049.68 555.92,1049.64 556.76,1049.61 557.60,1049.58 558.44,1049.54 559.28,1049.50 560.12,1049.47 560.96,1049.43 561.80,1049.38 562.64,1049.34 563.48,1049.30 564.32,1049.25 565.17,1049.21 566.01,1049.16 566.85,1049.11 567.69,1049.06 568.53,1049.01 569.37,1048.96 570.21,1048.90 571.05,1048.85 571.89,1048.79 572.73,1048.73 573.57,1048.68 574.41,1048.62 575.26,1048.56 576.10,1048.50 576.94,1048.43 577.78,1048.37 578.62,1048.30 579.46,1048.24 580.30,1048.17 581.14,1048.10 581.98,1048.03 582.82,1047.96 583.66,1047.89 584.50,1047.82 585.35,1047.75 586.19,1047.68 587.03,1047.60 587.87,1047.52 588.71,1047.45 589.55,1047.37 590.39,1047.29 591.23,1047.21 592.07,1047.13 592.91,1047.05 593.75,1046.97 594.59,1046.89 595.44,1046.80 596.28,1046.72 597.12,1046.63 597.96,1046.55 598.80,1046.46 599.64,1046.37 600.48,1046.29 601.32,1046.20 602.16,1046.11 603.00,1046.02 603.84,1045.92 604.68,1045.83 605.53,1045.74 606.37,1045.65 607.21,1045.55 608.05,1045.46 608.89,1045.36 609.73,1045.27 610.57,1045.17 611.41,1045.07 612.25,1044.97 613.09,1044.88 613.93,1044.78 614.77,1044.68 615.62,1044.58 616.46,1044.48 617.30,1044.38 618.14,1044.27 618.98,1044.17 619.82,1044.07 620.66,1043.96 621.50,1043.86 622.34,1043.76 623.18,1043.65 624.02,1043.55 624.86,1043.44 625.71,1043.33 626.55,1043.23 627.39,1043.12 628.23,1043.01 629.07,1042.90 629.91,1042.80 630.75,1042.69 631.59,1042.58 632.43,1042.47 633.27,1042.36 634.11,1042.25 634.95,1042.14 635.80,1042.03 636.64,1041.92 637.48,1041.80 638.32,1041.69 639.16,1041.58 640.00,1041.47 640.84,1041.35 641.68,1041.24 642.52,1041.13 643.36,1041.01 644.20,1040.90 645.05,1040.79 645.89,1040.67 646.73,1040.56 647.57,1040.44 648.41,1040.33 649.25,1040.21 650.09,1040.10 650.93,1039.98 651.77,1039.87 652.61,1039.75 653.45,1039.63 654.29,1039.52 655.14,1039.40 655.98,1039.28 656.82,1039.17 657.66,1039.05 658.50,1038.93 659.34,1038.82 660.18,1038.70 661.02,1038.58 661.86,1038.47 662.70,1038.35 663.54,1038.23 664.38,1038.11 665.23,1038.00 666.07,1037.88 666.91,1037.76 667.75,1037.64 668.59,1037.53 669.43,1037.41 670.27,1037.29 671.11,1037.17 671.95,1037.06 672.79,1036.94 673.63,1036.82 674.47,1036.71 675.32,1036.59 676.16,1036.47 677.00,1036.35 677.84,1036.24 678.68,1036.12 679.52,1036.00 680.36,1035.89 681.20,1035.77 682.04,1035.65 682.88,1035.54 683.72,1035.42 684.56,1035.30 685.41,1035.19 686.25,1035.07 687.09,1034.96 687.93,1034.84 688.77,1034.72 689.61,1034.61 690.45,1034.49 691.29,1034.38 692.13,1034.26 692.97,1034.15 693.81,1034.04 694.65,1033.92 695.50,1033.81 696.34,1033.69 697.18,1033.58 698.02,1033.47 698.86,1033.35 699.70,1033.24 700.54,1033.13 701.38,1033.02 702.22,1032.90 703.06,1032.79 703.90,1032.68 704.74,1032.57 705.59,1032.46 706.43,1032.35 707.27,1032.24 708.11,1032.13 708.95,1032.02 709.79,1031.91 710.63,1031.80 711.47,1031.69 712.31,1031.58 713.15,1031.48 713.99,1031.37 714.83,1031.26 715.68,1031.15 716.52,1031.05 717.36,1030.94 718.20,1030.84 719.04,1030.73 719.88,1030.63 720.72,1030.52 721.56,1030.42 722.40,1030.31 723.24,1030.21 724.08,1030.11 724.92,1030.00 725.77,1029.90 726.61,1029.80 727.45,1029.70 728.29,1029.60 729.13,1029.50 729.97,1029.40 730.81,1029.30 731.65,1029.20 732.49,1029.10 733.33,1029.00 734.17,1028.91 735.02,1028.81 735.86,1028.71 736.70,1028.62 737.54,1028.52 738.38,1028.43 739.22,1028.33 740.06,1028.24 740.90,1028.15 741.74,1028.05 742.58,1027.96 743.42,1027.87 744.26,1027.78 745.11,1027.69 745.95,1027.60 746.79,1027.51 747.63,1027.42 748.47,1027.33 749.31,1027.24 750.15,1027.15 750.99,1027.07 751.83,1026.98 752.67,1026.90 753.51,1026.81 754.35,1026.73 755.20,1026.64 756.04,1026.56 756.88,1026.48 757.72,1026.40 758.56,1026.31 759.40,1026.23 760.24,1026.15 761.08,1026.07 761.92,1025.99 762.76,1025.92 763.60,1025.84 764.44,1025.76 765.29,1025.69 766.13,1025.61 766.97,1025.54 767.81,1025.46 768.65,1025.39 769.49,1025.31 770.33,1025.24 771.17,1025.17 772.01,1025.10 772.85,1025.03 773.69,1024.96 774.53,1024.89 775.38,1024.82 776.22,1024.75 777.06,1024.69 777.90,1024.62 778.74,1024.56 779.58,1024.49 780.42,1024.43 781.26,1024.36 782.10,1024.30 782.94,1024.24 783.78,1024.18 784.62,1024.12 785.47,1024.06 786.31,1024.00 787.15,1023.94 787.99,1023.88 788.83,1023.83 789.67,1023.77 790.51,1023.72 791.35,1023.66 792.19,1023.61 793.03,1023.55 793.87,1023.50 794.71,1023.45 795.56,1023.40 796.40,1023.35 797.24,1023.30 798.08,1023.25 798.92,1023.20 799.76,1023.16 800.60,1023.11 801.44,1023.06 802.28,1023.02 803.12,1022.98 803.96,1022.93 804.80,1022.89 805.65,1022.85 806.49,1022.81 807.33,1022.77 808.17,1022.73 809.01,1022.69 809.85,1022.65 810.69,1022.61 811.53,1022.58 812.37,1022.54 813.21,1022.51 814.05,1022.47 814.89,1022.44 815.74,1022.41 816.58,1022.38 817.42,1022.35 818.26,1022.32 819.10,1022.29 819.94,1022.26 820.78,1022.23 821.62,1022.21 822.46,1022.18 823.30,1022.15 824.14,1022.13 824.98,1022.11 825.83,1022.08 826.67,1022.06 827.51,1022.04 828.35,1022.02 829.19,1022.00 830.03,1021.98 830.87,1021.96 831.71,1021.95 832.55,1021.93 833.39,1021.92 834.23,1021.90 835.08,1021.89 835.92,1021.88 836.76,1021.86 837.60,1021.85 838.44,1021.84 839.28,1021.83 840.12,1021.82 840.96,1021.81 841.80,1021.81 842.64,1021.80 843.48,1021.80 844.32,1021.79 845.17,1021.79 846.01,1021.78 846.85,1021.78 847.69,1021.78 848.53,1021.78 849.37,1021.78 850.21,1021.78 851.05,1021.78 851.89,1021.78 852.73,1021.79 853.57,1021.79 854.41,1021.80 855.26,1021.80 856.10,1021.81 856.94,1021.82 857.78,1021.82 858.62,1021.83 859.46,1021.84 860.30,1021.85 861.14,1021.87 861.98,1021.88 862.82,1021.89 863.66,1021.91 864.50,1021.92 865.35,1021.94 866.19,1021.95 867.03,1021.97 867.87,1021.99 868.71,1022.01 869.55,1022.03 870.39,1022.05 871.23,1022.07 872.07,1022.09 872.91,1022.12 873.75,1022.14 874.59,1022.16 875.44,1022.19 876.28,1022.22 877.12,1022.24 877.96,1022.27 878.80,1022.30 879.64,1022.33 880.48,1022.36 881.32,1022.39 882.16,1022.43 883.00,1022.46 883.84,1022.49 884.68,1022.53 885.53,1022.56 886.37,1022.60 887.21,1022.64 888.05,1022.68 888.89,1022.72 889.73,1022.76 890.57,1022.80 891.41,1022.84 892.25,1022.88 893.09,1022.93 893.93,1022.97 894.77,1023.01 895.62,1023.06 896.46,1023.11 897.30,1023.16 898.14,1023.20 898.98,1023.25 899.82,1023.31 900.66,1023.36 901.50,1023.41 902.34,1023.46 903.18,1023.52 904.02,1023.57 904.86,1023.63 905.71,1023.68 906.55,1023.74 907.39,1023.80 908.23,1023.86 909.07,1023.92 909.91,1023.98 910.75,1024.05 911.59,1024.11 912.43,1024.17 913.27,1024.24 914.11,1024.30 914.95,1024.37 915.80,1024.44 916.64,1024.51 917.48,1024.58 918.32,1024.65 919.16,1024.72 920.00,1024.79"/>
<polyline fill="none" stroke="#2ca02c" stroke-width="2" points="80.00,879.85 80.84,877.62 81.68,875.42 82.52,873.25 83.36,871.11 84.20,869.01 85.05,866.95 85.89,864.91 86.73,862.91 87.57,860.94 88.41,859.01 89.25,857.10 90.09,855.23 90.93,853.39 91.77,851.58 92.61,849.80 93.45,848.05 94.29,846.34 95.14,844.65 95.98,843.00 96.82,841.37 97.66,839.78 98.50,838.21 99.34,836.67 100.18,835.17 101.02,833.69 101.86,832.24 102.70,830.82 103.54,829.43 104.38,828.06 105.23,826.73 106.07,825.42 106.91,824.14 107.75,822.88 108.59,821.66 109.43,820.46 110.27,819.28 111.11,818.14 111.95,817.02 112.79,815.92 113.63,814.85 114.47,813.81 115.32,812.79 116.16,811.80 117.00,810.83 117.84,809.89 118.68,808.97 119.52,808.08 120.36,807.21 121.20,806.36 122.04,805.54 122.88,804.74 123.72,803.96 124.56,803.21 125.41,802.48 126.25,801.78 127.09,801.09 127.93,800.43 128.77,799.80 129.61,799.18 130.45,798.58 131.29,798.01 132.13,797.46 132.97,796.93 133.81,796.42 134.65,795.93 135.50,795.46 136.34,795.02 137.18,794.59 138.02,794.19 138.86,793.80 139.70,793.43 140.54,793.09 141.38,792.76 142.22,792.45 143.06,792.16 143.90,791.89 144.74,791.64 145.59,791.41 146.43,791.19 147.27,791.00 148.11,790.82 148.95,790.66 149.79,790.52 150.63,790.39 151.47,790.29 152.31,790.20 153.15,790.12 153.99,790.07 154.83,790.03 155.68,790.01 156.52,790.00 157.36,790.01 158.20,790.04 159.04,790.08 159.88,790.14 160.72,790.21 161.56,790.30 162.40,790.40 163.24,790.52 164.08,790.66 164.92,790.80 165.77,790.97 166.61,791.15 167.45,791.34 168.29,791.55 169.13,791.77 169.97,792.00 170.81,792.25 171.65,792.51 172.49,792.79 173.33,793.08 174.17,793.38 175.02,793.69 175.86,794.02 176.70,794.36 177.54,794.71 178.38,795.08 179.22,795.46 180.06,795.84 180.90,796.25 181.74,796.66 182.58,797.09 183.42,797.52 184.26,797.97 185.11,798.43 185.95,798.90 186.79,799.38 187.63,799.87 188.47,800.38 189.31,800.89 190.15,801.42 190.99,801.95 191.83,802.50 192.67,803.05 193.51,803.61 194.35,804.19 195.20,804.77 196.04,805.37 196.88,805.97 197.72,806.58 198.56,807.21 199.40,807.84 200.24,808.48 201.08,809.12 201.92,809.78 202.76,810.45 203.60,811.12 204.44,811.80 205.29,812.49 206.13,813.19 206.97,813.90 207.81,814.61 208.65,815.34 209.49,816.07 210.33,816.80 211.17,817.55 212.01,818.30 212.85,819.06 213.69,819.82 214.53,820.60 215.38,821.38 216.22,822.16 217.06,822.96 217.90,823.76 218.74,824.56 219.58,825.37 220.42,826.19 221.26,827.01 222.10,827.84 222.94,828.68 223.78,829.52 224.62,830.37 225.47,831.22 226.31,832.08 227.15,832.94 227.99,833.81 228.83,834.68 229.67,835.56 230.51,836.44 231.35,837.33 232.19,838.22 233.03,839.12 233.87,840.02 234.71,840.93 235.56,841.84 236.40,842.75 237.24,843.67 238.08,844.59 238.92,845.52 239.76,846.45 240.60,847.38 241.44,848.32 242.28,849.26 243.12,850.20 243.96,851.15 244.80,852.10 245.65,853.06 246.49,854.01 247.33,854.97 248.17,855.93 249.01,856.90 249.85,857.87 250.69,858.84 251.53,859.81 252.37,860.79 253.21,861.77 254.05,862.75 254.89,863.73 255.74,864.71 256.58,865.70 257.42,866.69 258.26,867.68 259.10,868.67 259.94,869.66 260.78,870.66 261.62,871.66 262.46,872.66 263.30,873.66 264.14,874.66 264.98,875.66 265.83,876.66 266.67,877.67 267.51,878.67 268.35,879.68 269.19,880.69 270.03,881.70 270.87,882.70 271.71,883.71 272.55,884.72 273.39,885.74 274.23,886.75 275.08,887.76 275.92,888.77 276.76,889.78 277.60,890.79 278.44,891.81 279.28,892.82 280.12,893.83 280.96,894.84 281.80,895.85 282.64,896.87 283.48,897.88 284.32,898.89 285.17,899.90 286.01,900.91 286.85,901.92 287.69,902.93 288.53,903.94 289.37,904.94 290.21,905.95 291.05,906.96 291.89,907.96 292.73,908.97 293.57,909.97 294.41,910.97 295.26,911.97 296.10,912.97 296.94,913.97 297.78,914.97 298.62,915.96 299.46,916.96 300.30,917.95 301.14,918.94 301.98,919.93 302.82,920.92 303.66,921.91 304.50,922.89 305.35,923.87 306.19,924.85 307.03,925.83 307.87,926.81 308.71,927.79 309.55,928.76 310.39,929.73 311.23,930.70 312.07,931.67 312.91,932.63 313.75,933.59 314.59,934.55 315.44,935.51 316.28,936.47 317.12,937.42 317.96,938.37 318.80,939.32 319.64,940.26 320.48,941.20 321.32,942.14 322.16,943.08 323.00,944.02 323.84,944.95 324.68,945.88 325.53,946.80 326.37,947.73 327.21,948.65 328.05,949.56 328.89,950.48 329.73,951.39 330.57,952.30 331.41,953.20 332.25,954.11 333.09,955.00 333.93,955.90 334.77,956.79 335.62,957.68 336.46,958.57 337.30,959.45 338.14,960.33 338.98,961.20 339.82,962.08 340.66,962.95 341.50,963.81 342.34,964.67 343.18,965.53 344.02,966.38 344.86,967.24 345.71,968.08 346.55,968.93 347.39,969.77 348.23,970.60 349.07,971.43 349.91,972.26 350.75,973.09 351.59,973.91 352.43,974.73 353.27,975.54 354.11,976.35 354.95,977.15 355.80,977.95 356.64,978.75 357.48,979.55 358.32,980.33 359.16,981.12 360.00,981.90 360.84,982.68 361.68,983.45 362.52,984.22 363.36,984.98 364.20,985.74 365.05,986.50 365.89,987.25 366.73,988.00 367.57,988.74 368.41,989.48 369.25,990.22 370.09,990.95 370.93,991.68 371.77,992.40 372.61,993.12 373.45,993.83 374.29,994.54 375.14,995.24 375.98,995.94 376.82,996.64 377.66,997.33 378.50,998.02 379.34,998.70 380.18,999.38 381.02,1000.05 381.86,1000.72 382.70,1001.38 383.54,1002.04 384.38,1002.70 385.23,1003.35 386.07,1004.00 386.91,1004.64 387.75,1005.28 388.59,1005.91 389.43,1006.54 390.27,1007.16 391.11,1007.78 391.95,1008.39 392.79,1009.00 393.63,1009.61 394.47,1010.21 395.32,1010.80 396.16,1011.39 397.00,1011.98 397.84,1012.56 398.68,1013.14 399.52,1013.71 400.36,1014.28 401.20,1014.84 402.04,1015.40 402.88,1015.95 403.72,1016.50 404.56,1017.05 405.41,1017.58 406.25,1018.12 407.09,1018.65 407.93,1019.17 408.77,1019.70 409.61,1020.21 410.45,1020.72 411.29,1021.23 412.13,1021.73 412.97,1022.23 413.81,1022.72 414.65,1023.21 415.50,1023.69 416.34,1024.17 417.18,1024.64 418.02,1025.11 418.86,1025.58 419.70,1026.04 420.54,1026.49 421.38,1026.94 422.22,1027.39 423.06,1027.83 423.90,1028.26 424.74,1028.69 425.59,1029.12 426.43,1029.54 427.27,1029.96 428.11,1030.37 428.95,1030.78 429.79,1031.18 430.63,1031.58 431.47,1031.98 432.31,1032.37 433.15,1032.75 433.99,1033.13 434.83,1033.51 435.68,1033.88 436.52,1034.24 437.36,1034.61 438.20,1034.96 439.04,1035.32 439.88,1035.66 440.72,1036.01 441.56,1036.35 442.40,1036.68 443.24,1037.01 444.08,1037.34 444.92,1037.66 445.77,1037.97 446.61,1038.29 447.45,1038.59 448.29,1038.90 449.13,1039.20 449.97,1039.49 450.81,1039.78 451.65,1040.06 452.49,1040.35 453.33,1040.62 454.17,1040.89 455.02,1041.16 455.86,1041.42 456.70,1041.68 457.54,1041.94 458.38,1042.19 459.22,1042.43 460.06,1042.68 460.90,1042.91 461.74,1043.15 462.58,1043.38 463.42,1043.60 464.26,1043.82 465.11,1044.04 465.95,1044.25 466.79,1044.46 467.63,1044.66 468.47,1044.86 469.31,1045.06 470.15,1045.25 470.99,1045.44 471.83,1045.62 472.67,1045.80 473.51,1045.97 474.35,1046.15 475.20,1046.31 476.04,1046.48 476.88,1046.63 477.72,1046.79 478.56,1046.94 479.40,1047.09 480.24,1047.23 481.08,1047.37 481.92,1047.51 482.76,1047.64 483.60,1047.77 484.44,1047.89 485.29,1048.01 486.13,1048.13 486.97,1048.24 487.81,1048.35 488.65,1048.46 489.49,1048.56 490.33,1048.66 491.17,1048.75 492.01,1048.84 492.85,1048.93 493.69,1049.01 494.53,1049.09 495.38,1049.17 496.22,1049.24 497.06,1049.31 497.90,1049.38 498.74,1049.44 499.58,1049.50 500.42,1049.55 501.26,1049.61 502.10,1049.66 502.94,1049.70 503.78,1049.74 504.62,1049.78 505.47,1049.82 506.31,1049.85 507.15,1049.88 507.99,1049.91 508.83,1049.93 509.67,1049.95 510.51,1049.96 511.35,1049.98 512.19,1049.99 513.03,1050.00 513.87,1050.00 514.71,1050.00 515.56,1050.00 516.40,1049.99 517.24,1049.98 518.08,1049.97 518.92,1049.96 519.76,1049.94 520.60,1049.92 521.44,1049.90 522.28,1049.88 523.12,1049.85 523.96,1049.82 524.80,1049.78 525.65,1049.75 526.49,1049.71 527.33,1049.67 528.17,1049.62 529.01,1049.58 529.85,1049.53 530.69,1049.47 531.53,1049.42 532.37,1049.36 533.21,1049.30 534.05,1049.24 534.89,1049.18 535.74,1049.11 536.58,1049.04 537.42,1048.97 538.26,1048.89 539.10,1048.82 539.94,1048.74 540.78,1048.66 541.62,1048.57 542.46,1048.49 543.30,1048.40 544.14,1048.31 544.98,1048.22 545.83,1048.12 546.67,1048.03 547.51,1047.93 548.35,1047.83 549.19,1047.73 550.03,1047.62 550.87,1047.52 551.71,1047.41 552.55,1047.30 553.39,1047.19 554.23,1047.07 555.08,1046.96 555.92,1046.84 556.76,1046.72 557.60,1046.60 558.44,1046.48 559.28,1046.35 560.12,1046.23 560.96,1046.10 561.80,1045.97 562.64,1045.84 563.48,1045.71 564.32,1045.57 565.17,1045.44 566.01,1045.30 566.85,1045.16 567.69,1045.02 568.53,1044.88 569.37,1044.74 570.21,1044.59 571.05,1044.45 571.89,1044.30 572.73,1044.15 573.57,1044.01 574.41,1043.86 575.26,1043.70 576.10,1043.55 576.94,1043.40 577.78,1043.24 578.62,1043.09 579.46,1042.93 580.30,1042.77 581.14,1042.61 581.98,1042.45 582.82,1042.29 583.66,1042.13 584.50,1041.97 585.35,1041.80 586.19,1041.64 587.03,1041.47 587.87,1041.31 588.71,1041.14 589.55,1040.97 590.39,1040.80 591.23,1040.63 592.07,1040.46 592.91,1040.29 593.75,1040.12 594.59,1039.95 595.44,1039.78 596.28,1039.60 597.12,1039.43 597.96,1039.26 598.80,1039.08 599.64,1038.91 600.48,1038.73 601.32,1038.56 602.16,1038.38 603.00,1038.20 603.84,1038.03 604.68,1037.85 605.53,1037.67 606.37,1037.49 607.21,1037.32 608.05,1037.14 608.89,1036.96 609.73,1036.78 610.57,1036.60 611.41,1036.43 612.25,1036.25 613.09,1036.07 613.93,1035.89 614.77,1035.71 615.62,1035.53 616.46,1035.35 617.30,1035.17 618.14,1035.00 618.98,1034.82 619.82,1034.64 620.66,1034.46 621.50,1034.28 622.34,1034.10 623.18,1033.93 624.02,1033.75 624.86,1033.57 625.71,1033.39 626.55,1033.22 627.39,1033.04 628.23,1032.87 629.07,1032.69 629.91,1032.52 630.75,1032.34 631.59,1032.17 632.43,1031.99 633.27,1031.82 634.11,1031.65 634.95,1031.47 635.80,1031.30 636.64,1031.13 637.48,1030.96 638.32,1030.79 639.16,1030.62 640.00,1030.45 640.84,1030.28 641.68,1030.12 642.52,1029.95 643.36,1029.78 644.20,1029.62 645.05,1029.45 645.89,1029.29 646.73,1029.13 647.57,1028.96 648.41,1028.80 649.25,1028.64 650.09,1028.48 650.93,1028.32 651.77,1028.17 652.61,1028.01 653.45,1027.85 654.29,1027.70 655.14,1027.54 655.98,1027.39 656.82,1027.24 657.66,1027.09 658.50,1026.94 659.34,1026.79 660.18,1026.64 661.02,1026.49 661.86,1026.35 662.70,1026.20 663.54,1026.06 664.38,1025.92 665.23,1025.78 666.07,1025.64 666.91,1025.50 667.75,1025.36 668.59,1025.22 669.43,1025.09 670.27,1024.95 671.11,1024.82 671.95,1024.69 672.79,1024.56 673.63,1024.43 674.47,1024.30 675.32,1024.18 676.16,1024.05 677.00,1023.93 677.84,1023.81 678.68,1023.69 679.52,1023.57 680.36,1023.45 681.20,1023.33 682.04,1023.22 682.88,1023.10 683.72,1022.99 684.56,1022.88 685.41,1022.77 686.25,1022.66 687.09,1022.56 687.93,1022.45 688.77,1022.35 689.61,1022.25 690.45,1022.15 691.29,1022.05 692.13,1021.95 692.97,1021.85 693.81,1021.76 694.65,1021.67 695.50,1021.58 696.34,1021.49 697.18,1021.40 698.02,1021.31 698.86,1021.23 699.70,1021.14 700.54,1021.06 701.38,1020.98 702.22,1020.90 703.06,1020.82 703.90,1020.75 704.74,1020.67 705.59,1020.60 706.43,1020.53 707.27,1020.46 708.11,1020.40 708.95,1020.33 709.79,1020.27 710.63,1020.20 711.47,1020.14 712.31,1020.08 713.15,1020.03 713.99,1019.97 714.83,1019.92 715.68,1019.86 716.52,1019.81 717.36,1019.76 718.20,1019.71 719.04,1019.67 719.88,1019.62 720.72,1019.58 721.56,1019.54 722.40,1019.50 723.24,1019.46 724.08,1019.43 724.92,1019.39 725.77,1019.36 726.61,1019.33 727.45,1019.30 728.29,1019.27 729.13,1019.24 729.97,1019.22 730.81,1019.19 731.65,1019.17 732.49,1019.15 733.33,1019.13 734.17,1019.11 735.02,1019.10 735.86,1019.09 736.70,1019.07 737.54,1019.06 738.38,1019.05 739.22,1019.04 740.06,1019.04 740.90,1019.03 741.74,1019.03 742.58,1019.03 743.42,1019.03 744.26,1019.03 745.11,1019.03 745.95,1019.03 746.79,1019.04 747.63,1019.05 748.47,1019.05 749.31,1019.06 750.15,1019.07 750.99,1019.09 751.83,1019.10 752.67,1019.12 753.51,1019.13 754.35,1019.15 755.20,1019.17 756.04,1019.19 756.88,1019.21 757.72,1019.23 758.56,1019.26 759.40,1019.28 760.24,1019.31 761.08,1019.34 761.92,1019.36 762.76,1019.39 763.60,1019.43 764.44,1019.46 765.29,1019.49 766.13,1019.52 766.97,1019.56 767.81,1019.60 768.65,1019.63 769.49,1019.67 770.33,1019.71 771.17,1019.75 772.01,1019.79 772.85,1019.83 773.69,1019.88 774.53,1019.92 775.38,1019.97 776.22,1020.01 777.06,1020.06 777.90,1020.10 778.74,1020.15 779.58,1020.20 780.42,1020.25 781.26,1020.30 782.10,1020.35 782.94,1020.40 783.78,1020.45 784.62,1020.50 785.47,1020.55 786.31,1020.61 787.15,1020.66 787.99,1020.71 788.83,1020.77 789.67,1020.82 790.51,1020.88 791.35,1020.93 792.19,1020.99 793.03,1021.04 793.87,1021.10 794.71,1021.15 795.56,1021.21 796.40,1021.26 797.24,1021.32 798.08,1021.38 798.92,1021.43 799.76,1021.49 800.60,1021.54 801.44,1021.60 802.28,1021.66 803.12,1021.71 803.96,1021.77 804.80,1021.82 805.65,1021.87 806.49,1021.93 807.33,1021.98 808.17,1022.03 809.01,1022.09 809.85,1022.14 810.69,1022.19 811.53,1022.24 812.37,1022.29 813.21,1022.34 814.05,1022.39 814.89,1022.44 815.74,1022.48 816.58,1022.53 817.42,1022.58 818.26,1022.62 819.10,1022.66 819.94,1022.70 820.78,1022.75 821.62,1022.78 822.46,1022.82 823.30,1022.86 824.14,1022.90 824.98,1022.93 825.83,1022.96 826.67,1022.99 827.51,1023.02 828.35,1023.05 829.19,1023.08 830.03,1023.10 830.87,1023.13 831.71,1023.15 832.55,1023.17 833.39,1023.19 834.23,1023.20 835.08,1023.22 835.92,1023.23 836.76,1023.24 837.60,1023.24 838.44,1023.25 839.28,1023.25 840.12,1023.25 840.96,1023.25 841.80,1023.24 842.64,1023.24 843.48,1023.23 844.32,1023.21 845.17,1023.20 846.01,1023.18 846.85,1023.16 847.69,1023.13 848.53,1023.11 849.37,1023.08 850.21,1023.04 851.05,1023.01 851.89,1022.97 852.73,1022.92 853.57,1022.88 854.41,1022.83 855.26,1022.77 856.10,1022.71 856.94,1022.65 857.78,1022.59 858.62,1022.52 859.46,1022.45 860.30,1022.37 861.14,1022.29 861.98,1022.20 862.82,1022.11 863.66,1022.02 864.50,1021.92 865.35,1021.82 866.19,1021.71 867.03,1021.60 867.87,1021.48 868.71,1021.36 869.55,1021.24 870.39,1021.11 871.23,1020.97 872.07,1020.83 872.91,1020.68 873.75,1020.53 874.59,1020.38 875.44,1020.21 876.28,1020.05 877.12,1019.87 877.96,1019.69 878.80,1019.51 879.64,1019.32 880.48,1019.12 881.32,1018.92 882.16,1018.71 883.00,1018.50 883.84,1018.28 884.68,1018.05 885.53,1017.81 886.37,1017.57 887.21,1017.33 888.05,1017.07 888.89,1016.81 889.73,1016.54 890.57,1016.27 891.41,1015.99 892.25,1015.70 893.09,1015.40 893.93,1015.10 894.77,1014.79 895.62,1014.47 896.46,1014.14 897.30,1013.81 898.14,1013.46 898.98,1013.11 899.82,1012.75 900.66,1012.39 901.50,1012.01 902.34,1011.63 903.18,1011.24 904.02,1010.83 904.86,1010.43 905.71,1010.01 906.55,1009.58 907.39,1009.14 908.23,1008.70 909.07,1008.24 909.91,1007.78 910.75,1007.30 911.59,1006.82 912.43,1006.33 913.27,1005.82 914.11,1005.31 914.95,1004.79 915.80,1004.25 916.64,1003.71 917.48,1003.16 918.32,1002.59 919.16,1002.02 920.00,1001.43"/>
<text x="500" y="778" text-anchor="middle" font-size="18" font-family="Helvetica, Arial, sans-serif">Polynomial Approximation to Difference</text>
<text x="80" y="1074" text-anchor="start" font-size="12" font-family="Helvetica, Arial, sans-serif">x in [0.05, 0.95]</text>
<text x="920" y="1074" text-anchor="end" font-size="12" font-family="Helvetica, Arial, sans-serif">y in [-4.430e-01, 3.346e+00]</text>
<line x1="90" y1="808" x2="115" y2="808" stroke="#d62728" stroke-width="2"/>
<text x="122" y="812" font-size="12" font-family="Helvetica, Arial, sans-serif">Difference</text>
<line x1="250" y1="808" x2="275" y2="808" stroke="#2ca02c" stroke-width="2"/>
<text x="282" y="812" font-size="12" font-family="Helvetica, Arial, sans-serif">Poly deg 5, R2=0.992738</text>
</svg>